/* XPM */
static char * door_10_xpm[] = {
"64 64 142 2",
"  	c None",
". 	c #D6D4D2",
"+ 	c #D5D2D1",
"@ 	c #D3D1CF",
"# 	c #D0CECB",
"$ 	c #CECBC9",
"% 	c #CFCDCB",
"& 	c #D8D8D8",
"* 	c #CBCCCB",
"= 	c #C6C7C7",
"- 	c #C9C9C8",
"; 	c #C9CAC9",
"> 	c #C8C9C7",
", 	c #C7C7C5",
"' 	c #C8C9C8",
") 	c #D7D7D7",
"! 	c #CCCCCB",
"~ 	c #C2C2C0",
"{ 	c #C4C4C2",
"] 	c #C5C4C3",
"^ 	c #C5C5C3",
"/ 	c #C6C5C3",
"( 	c #D7D8D7",
"_ 	c #DADBDA",
": 	c #DBDBDB",
"< 	c #DBDBDA",
"[ 	c #DADAD9",
"} 	c #DADAD8",
"| 	c #D9D9D8",
"1 	c #D1D1D1",
"2 	c #D0D0CF",
"3 	c #D9D9D7",
"4 	c #D7D8D5",
"5 	c #D7D7D5",
"6 	c #D6D6D6",
"7 	c #D1D1D0",
"8 	c #C5C6C5",
"9 	c #D4D5D4",
"0 	c #D4D4D4",
"a 	c #D7D7D6",
"b 	c #D0D1D0",
"c 	c #C6C6C6",
"d 	c #D5D5D4",
"e 	c #D8D8D7",
"f 	c #D8D9D7",
"g 	c #C7C7C7",
"h 	c #D5D6D5",
"i 	c #D5D5D5",
"j 	c #D6D7D6",
"k 	c #D0D0D0",
"l 	c #CFCFCF",
"m 	c #D2D2D2",
"n 	c #BFC0BF",
"o 	c #BFBFBE",
"p 	c #C0C1BF",
"q 	c #C1C1C0",
"r 	c #C0C0BE",
"s 	c #CFD0CF",
"t 	c #CECECE",
"u 	c #CDCDCD",
"v 	c #CECFCE",
"w 	c #D5D5D3",
"x 	c #D4D4D3",
"y 	c #D6D7D5",
"z 	c #D6D6D5",
"A 	c #CFCFCE",
"B 	c #CDCDCC",
"C 	c #CBCBCA",
"D 	c #CBCBC9",
"E 	c #D3D3D2",
"F 	c #D3D2D1",
"G 	c #D3D3D3",
"H 	c #C3C3C3",
"I 	c #C5C5C5",
"J 	c #C6C5C4",
"K 	c #BAB8B7",
"L 	c #BDBBBA",
"M 	c #BEBCBB",
"N 	c #BFBEBD",
"O 	c #C0BEBD",
"P 	c #D5D4D4",
"Q 	c #D8D7D6",
"R 	c #D7D6D5",
"S 	c #CECECD",
"T 	c #D5D4D2",
"U 	c #D4D3D2",
"V 	c #C2C3C3",
"W 	c #D4D3D3",
"X 	c #C3C4C4",
"Y 	c #D3D4D3",
"Z 	c #C4C5C5",
"` 	c #D6D6D4",
" .	c #C4C4C4",
"..	c #D8D8D6",
"+.	c #C0C0BF",
"@.	c #BDBEBC",
"#.	c #BEBFBE",
"$.	c #D6D6D3",
"%.	c #D4D4D2",
"&.	c #CECECC",
"*.	c #CECDCC",
"=.	c #CDCDCB",
"-.	c #CBCCCA",
";.	c #CACAC8",
">.	c #D4D5D3",
",.	c #D5D4D3",
"'.	c #D3D3D1",
").	c #D1D0CE",
"!.	c #D1D0CF",
"~.	c #C8C8C7",
"{.	c #C7C7C6",
"].	c #C6C6C4",
"^.	c #C3C3C1",
"/.	c #C5C5C4",
"(.	c #DADBD9",
"_.	c #DBDCDA",
":.	c #D7D8D6",
"<.	c #D5D6D6",
"[.	c #C6C7C6",
"}.	c #C7C8C7",
"|.	c #D2D2D1",
"1.	c #CDCECD",
"2.	c #CDCCCB",
"3.	c #CBCACA",
"4.	c #CBCAC9",
"5.	c #CCCBCA",
"6.	c #CACAC9",
"7.	c #C2C2C1",
"8.	c #C4C4C3",
"9.	c #C5C6C4",
"0.	c #C6C7C5",
"a.	c #D3D2D2",
"b.	c #CCCBCB",
"c.	c #D6D5D3",
"d.	c #C4C5C4",
"e.	c #D6D5D5",
"f.	c #BFC0BE",
"g.	c #D5D6D3",
"h.	c #D4D3D1",
"i.	c #C7C8C6",
"j.	c #C4C5C3",
"k.	c #C5C6C6",
"                                                                                                                . . . + @ # $ % ",
"                                                                                                                & * = - ; > , ' ",
"                                                                                                                ) ! ~ { ] ^ / ^ ",
"                                                                                                                ( _ ) : < [ } } ",
"                                                                                                                ) | 1 2 3 4 5 5 ",
"                                                                                                                6 | 7 8 6 9 9 0 ",
"                                                                                                                a 3 b c 6 d d 0 ",
"                                                                                                                e f b g ) h h i ",
"                                                                                                                ) e b g j h d i ",
"                                                                                                                a e k = h i 0 0 ",
"                                                                                                                j e l 8 i 9 0 m ",
"                                                                                                                j e k n o p q r ",
"                                                                                                                a ( s t u t t v ",
"                                                                                                                i | w d x x x x ",
"                                                                                                                ) y a a d d z z ",
"                                                                                                                A B B B C C C D ",
"                                                                                                                A E E F 7 2 2 A ",
"                                                                                                                G g H I = = = c ",
"                                                                                                                i J K L M N N O ",
"                                                                                                                P ) E a Q a a a ",
"                                                                                                                i R S C w T T U ",
"                                                                                                                d z u V 0 W G m ",
"                                                                                                                d z S X d 0 x Y ",
"                                                                                                                h 5 v Z i d x 0 ",
"                                                                                                                z 5 l I i d d d ",
"                                                                                                                z a A 8 d d 9 0 ",
"                                                                                                                ` 5 v  .Y G G G ",
"                                                                                                                z ..2 +.@.#.o o ",
"                                                                                                                a e k 2 s 2 2 2 ",
"                                                                                                                a 3 w $.w w %.%.",
"                                                                                                                ) z z d d d ` ` ",
"                                                                                                                &.S *.=.-.;.;.C ",
"                                                                                                                >.,.,.%.'.).&.!.",
"                                                                                                                & C c ~.> {.].g ",
"                                                                                                                ) =.^.^ /.].].].",
"                                                                                                                ( (.) _.< [ } } ",
"                                                                                                                ) | 1 2 3 :.5 5 ",
"                                                                                                                j 3 b 8 <.9 d 0 ",
"                                                                                                                a f 7 [.6 d d 0 ",
"                                                                                                                e f 7 }.) h i i ",
"                                                                                                                a e b }.6 h i i ",
"                                                                                                                a e k = i d 0 x ",
"                                                                                                                j e l I d 9 x |.",
"                                                                                                                j e k n o p q r ",
"                                                                                                                ) :.s t 1.t v A ",
"                                                                                                                i | >.d x x x w ",
"                                                                                                                ) z a z d d z z ",
"                                                                                                                A B B 2.C 3.C 4.",
"                                                                                                                A E E |.7 2 2 A ",
"                                                                                                                Y B - 5.! ! C 6.",
"                                                                                                                i -.7.8.9., 0.0.",
"                                                                                                                d a a.5 R a a R ",
"                                                                                                                d z S b.c.,.T %.",
"                                                                                                                d z u V 0 G G m ",
"                                                                                                                d z S  .d 0 Y Y ",
"                                                                                                                z 5 t d.d d x x ",
"                                                                                                                z a l I e.d d d ",
"                                                                                                                z 5 l 8 i d d 0 ",
"                                                                                                                ` 5 v d.x Y Y Y ",
"                                                                                                                z ..2 f.@.o o o ",
"                                                                                                                a e k 2 s 2 2 s ",
"                                                                                                                ) 3 >.g.w ,.%.h.",
"                                                                                                                & a a z z ` R 5 ",
"                                                                                                                ' ~.i.[.8 j.j.k."};
