/* XPM */
static char * door_7_xpm[] = {
"64 64 242 2",
"  	c None",
". 	c #D6D4D2",
"+ 	c #D5D2D1",
"@ 	c #D3D1CF",
"# 	c #D0CECB",
"$ 	c #CECBC9",
"% 	c #CFCDCB",
"& 	c #CFCCCB",
"* 	c #CFCCCA",
"= 	c #D0CDCC",
"- 	c #D0CECD",
"; 	c #D1D0CF",
"> 	c #CFCECD",
", 	c #D1CFCD",
"' 	c #D3D2CF",
") 	c #D2D0CE",
"! 	c #D0CDCB",
"~ 	c #CFCDCA",
"{ 	c #D8D8D8",
"] 	c #CBCCCB",
"^ 	c #C6C7C7",
"/ 	c #C9C9C8",
"( 	c #C9CAC9",
"_ 	c #C8C9C7",
": 	c #C7C7C5",
"< 	c #C8C9C8",
"[ 	c #C8C8C8",
"} 	c #C7C8C7",
"| 	c #C7C7C7",
"1 	c #C6C6C6",
"2 	c #C5C6C5",
"3 	c #C4C5C4",
"4 	c #D3D4D4",
"5 	c #D2D2D2",
"6 	c #C9C9C9",
"7 	c #CACBCA",
"8 	c #CBCBCA",
"9 	c #CBCCCA",
"0 	c #D7D7D7",
"a 	c #CCCCCB",
"b 	c #C2C2C0",
"c 	c #C4C4C2",
"d 	c #C5C4C3",
"e 	c #C5C5C3",
"f 	c #C6C5C3",
"g 	c #C4C4C3",
"h 	c #C3C3C2",
"i 	c #C2C2C1",
"j 	c #B7B8B8",
"k 	c #D1D2D2",
"l 	c #D6D6D6",
"m 	c #C6C6C5",
"n 	c #BFBFBD",
"o 	c #C1C1BF",
"p 	c #C3C3C1",
"q 	c #C5C5C4",
"r 	c #D7D8D7",
"s 	c #DADBDA",
"t 	c #DBDBDB",
"u 	c #DBDBDA",
"v 	c #DADAD9",
"w 	c #DADAD8",
"x 	c #DCDCDB",
"y 	c #C3C4C4",
"z 	c #D0D0D1",
"A 	c #D8D8D7",
"B 	c #D8D9D8",
"C 	c #D7D7D6",
"D 	c #DADBD9",
"E 	c #D9D9D8",
"F 	c #D1D1D1",
"G 	c #D0D0CF",
"H 	c #D9D9D7",
"I 	c #D7D8D5",
"J 	c #D7D7D5",
"K 	c #DBDBD9",
"L 	c #DADADA",
"M 	c #C3C3C4",
"N 	c #D0D1D1",
"O 	c #CFCFCF",
"P 	c #D1D1CF",
"Q 	c #D8D9D7",
"R 	c #D1D1D0",
"S 	c #D4D5D4",
"T 	c #D4D4D4",
"U 	c #C4C4C4",
"V 	c #D1D1D2",
"W 	c #CECFCF",
"X 	c #D5D5D5",
"Y 	c #D5D6D5",
"Z 	c #D6D6D5",
"` 	c #D0D1D0",
" .	c #D5D5D4",
"..	c #D4D5D5",
"+.	c #D9DAD9",
"@.	c #C4C4C5",
"#.	c #D1D2D1",
"$.	c #CECFCE",
"%.	c #C8C9C9",
"&.	c #C4C5C5",
"*.	c #D5D6D6",
"=.	c #D6D7D7",
"-.	c #D6D7D6",
";.	c #D9D9D9",
">.	c #D6D7D5",
",.	c #CFCFCE",
"'.	c #D0D0D0",
").	c #D4D4D3",
"!.	c #D2D2D1",
"~.	c #D3D3D3",
"{.	c #C3C3C3",
"].	c #CECECE",
"^.	c #BFC0BF",
"/.	c #BFBFBE",
"(.	c #C0C1BF",
"_.	c #C1C1C0",
":.	c #C0C0BE",
"<.	c #C0C0BF",
"[.	c #BEBFBE",
"}.	c #CCCCCC",
"|.	c #C2C3C3",
"1.	c #C0C1C0",
"2.	c #C1C2C1",
"3.	c #CFD0CF",
"4.	c #CDCDCD",
"5.	c #CECECD",
"6.	c #C1C2C2",
"7.	c #CCCDCC",
"8.	c #CFD0D0",
"9.	c #D5D5D3",
"0.	c #D4D4D2",
"a.	c #D6D6D4",
"b.	c #D3D4D3",
"c.	c #CDCDCC",
"d.	c #CBCBC9",
"e.	c #CBCBCB",
"f.	c #CCCCCA",
"g.	c #CCCBCA",
"h.	c #CACAC9",
"i.	c #CACAC8",
"j.	c #CBCAC9",
"k.	c #D3D3D2",
"l.	c #D3D2D1",
"m.	c #D1D0D0",
"n.	c #CDCDCB",
"o.	c #D0D0CE",
"p.	c #D0CFCE",
"q.	c #CFCFCD",
"r.	c #C5C5C5",
"s.	c #C5C6C6",
"t.	c #C2C3C4",
"u.	c #C3C4C3",
"v.	c #C6C7C6",
"w.	c #C6C5C4",
"x.	c #BAB8B7",
"y.	c #BDBBBA",
"z.	c #BEBCBB",
"A.	c #BFBEBD",
"B.	c #C0BEBD",
"C.	c #BEBDBC",
"D.	c #BDBCBB",
"E.	c #BCBABA",
"F.	c #BBBABA",
"G.	c #BBB9B9",
"H.	c #AFAFB0",
"I.	c #CACBCB",
"J.	c #D2D1D1",
"K.	c #C3C1C0",
"L.	c #B9B7B6",
"M.	c #BBB9B8",
"N.	c #BCBBBA",
"O.	c #BFBDBC",
"P.	c #BFBEBC",
"Q.	c #D5D4D4",
"R.	c #D8D7D6",
"S.	c #D8D7D7",
"T.	c #DAD9D9",
"U.	c #BFBFC0",
"V.	c #CBCCCC",
"W.	c #D3D2D2",
"X.	c #D6D5D4",
"Y.	c #D7D6D5",
"Z.	c #D5D4D2",
"`.	c #D4D3D2",
" +	c #D9D8D8",
".+	c #BEBFBF",
"++	c #CBCCCD",
"@+	c #D4D3D1",
"#+	c #D5D4D1",
"$+	c #D4D3D3",
"%+	c #D2D3D2",
"&+	c #CDCECE",
"*+	c #D5D4D3",
"=+	c #C0C0C0",
"-+	c #D4D5D3",
";+	c #D8D8D6",
">+	c #C0C1C1",
",+	c #C7C7C6",
"'+	c #CCCDCD",
")+	c #D9D8D7",
"!+	c #BDBEBC",
"~+	c #BEBFBD",
"{+	c #BEBEBD",
"]+	c #BBBCBB",
"^+	c #BDBEBD",
"/+	c #BCBDBC",
"(+	c #BFC0BE",
"_+	c #C0C1C2",
":+	c #CDCFCF",
"<+	c #D6D6D3",
"[+	c #D3D3D1",
"}+	c #CECECC",
"|+	c #CECDCC",
"1+	c #D1D0CE",
"2+	c #D3D2D0",
"3+	c #C8C8C7",
"4+	c #C6C6C4",
"5+	c #C5C6C4",
"6+	c #D0D2D2",
"7+	c #C4C3C2",
"8+	c #DBDCDA",
"9+	c #D7D8D6",
"0+	c #D9DAD8",
"a+	c #CDCECD",
"b+	c #CDCCCB",
"c+	c #CBCACA",
"d+	c #CCCBCB",
"e+	c #C9C9C7",
"f+	c #C6C7C5",
"g+	c #CDCECF",
"h+	c #C5C4C2",
"i+	c #C4C5C3",
"j+	c #D6D5D3",
"k+	c #D6D5D5",
"l+	c #BCBCBB",
"m+	c #BDBDBC",
"n+	c #C1C1C2",
"o+	c #D5D6D3",
"p+	c #C7C8C6",
"q+	c #C4C6C5",
"r+	c #C6C8C7",
"s+	c #C6C8C6",
"                                                                              . . . + @ # $ % & & * % = - ; > , ' ) # ! ~ ~ * % ",
"                                                                              { ] ^ / ( _ : < [ } | 1 2 3 ^ 4 5 < } 6 7 8 8 ] 9 ",
"                                                                              0 a b c d e f e e e g h i h j k l m n o p c e e q ",
"                                                                              r s 0 t u v w w v u u u v x y z A B C v v D u u x ",
"                                                                              0 E F G H I J J J A A A K L M N A C O P A A Q H w ",
"                                                                              l E R 2 l S S T T S S S v L U V A C W } X X Y Y Z ",
"                                                                              C H ` 1 l  . .T T T ..T +.v @.#.r l $.%.Z X Y l l ",
"                                                                              A Q ` | 0 Y Y X  .S X S +.+.&.k 0 Z $.6 l *.Z l =.",
"                                                                              0 A ` | -.Y  .X X X Y ..+.;.@.k C >.,.( -.l l l l ",
"                                                                              C A '.^ Y X T T ). .X ..E E y k r Z $.( C l l Z l ",
"                                                                              -.A O 2 X S T 5 !.~.T ~.;.E {.k r -.].%.-.l l l Z ",
"                                                                              -.A '.^./.(._.:.<.<.<.[.}.;.|.N 0 -.$.[.1.2.i p h ",
"                                                                              C r 3.].4.].].$.,.5.].$.$.T 6.N C -.3.7.4.].$.O 8.",
"                                                                              X E 9. .).).).).0.).T  . .a.| N C E ).).).).b.).).",
"                                                                              0 >.C C  . .Z Z a.l -.l Z C l l l -.Z a.Z C J >.>.",
"                                                                              ,.c.c.c.8 8 8 d.8 a a a e.] 7.a f.g.8 h.i.j.d.j.d.",
"                                                                              ,.k.k.l.R G G ,.,.G m.G G 3.O c.n.o.P G p.q.q.p.o.",
"                                                                              ~.| {.r.^ ^ ^ 1 s.2 &.y t.6.&.'.'.r.u.r.v.^ v.^ | ",
"                                                                              X w.x.y.z.A.A.B.A.C.D.E.F.G.H.I.J.K.L.M.N.z.O.P.O.",
"                                                                              Q.0 k.C R.C C C S.S.S.A S.T.U.V.W. .5 a. .X.a.Y.R.",
"                                                                              X Y.5.8 9.Z.Z.`.0.Z.0.Z.R. +.+++l.0.e.f.@+@+@+#+Z.",
"                                                                               .Z 4.|.T $+~.5 5 5 %+5 A E U.&+).*+e.U k.5 5 k.~.",
"                                                                               .Z 5.y  .T ).b.~.k.5 5 A  +=+&+).-+}.r.k.%+k.).).",
"                                                                              Y J $.&.X  .).T ).~.k.%+A E 1.$.T  .4.2 ).~.).).).",
"                                                                              Z J O r.X  . . .T T ~.%+;+E >+&+ . .4.,+T ).).).).",
"                                                                              Z C ,.2  . .S T T T T k.A A 1.&+ . .'+v. .).).).S ",
"                                                                              a.J $.U b.~.~.~.~.k.%+!.A )+>+&+Z a.4.1 ).~.k.b.b.",
"                                                                              Z ;+G <.!+[./././.~+{+]+( T.2.W Y.-.O ^+/+{+/.:.(+",
"                                                                              C A '.G 3.G G G O 3.O ,.$.S _+:+0 C O ].].O 3.` '.",
"                                                                              C H 9.<+9.9.0.0.[+k.[+[+[+0.m 8.A H 0.0.`.[+[+[+0.",
"                                                                              0 Z Z  . . .a.a.a.Z X  . .Z  .l 0 Y  . . . .9. .Z ",
"                                                                              }+5.|+n.9 i.i.8 d.d.h.h.h.] c.c.c.c.a 8 8 h.h.h.8 ",
"                                                                              -+*+*+0.[+1+}+; G G p.G G G F ].,.!.2+P P P R P R ",
"                                                                              { 8 1 3+_ ,+4+| ,+,+1 q 3 u.s.4 k [ v.3+/ h.h.h.h.",
"                                                                              0 n.p e q 4+4+4+4+5+q g h h j 6+l v.:.b 7+e 4+4+m ",
"                                                                              r D 0 8+u v w w v u u u L x y 8.A B C v v D u u x ",
"                                                                              0 E F G H 9+J J J A ;+A K L |.8.0 C O P A A Q H 0+",
"                                                                              -.H ` 2 *.S  .T T ..S ..v L {.8.A C $.} X X Y Y l ",
"                                                                              C Q R v.l  . .T S T S T +.v t.8.r -.$.%.l X Z l l ",
"                                                                              A Q R } 0 Y X X  .S  .S +.v y 8.r Z $.6 l Y Z l -.",
"                                                                              C A ` } l Y X X X X *...+.;.M 8.C -.O ( -.l l l l ",
"                                                                              C A '.^ X  .T ).).X X S E E |.8.C >.$.( -.l l Z l ",
"                                                                              -.A O r. .S ).!.!.~.4 ~.E E 6.8.r -.].%.l Z l l l ",
"                                                                              -.A '.^./.(._.:.<.<.<.[.] ;.6.8.0 -.$.[.1.2.i h h ",
"                                                                              0 9+3.].a+].$.,.,.5.].W ].T >+W C C O 4.4.$.O O '.",
"                                                                              X E -+ .).).).9.).).S  . .Z } z C E -+-+).).).).).",
"                                                                              0 Z C Z  . .Z Z a.l -.l Z -.l l l Z Z a.Z >.>.J >.",
"                                                                              ,.c.c.b+8 c+8 j.8 ] a ] 8 ] 7.7.a d+8 h.i.h.d.j.d.",
"                                                                              ,.k.k.!.R G G ,.G '.R ` '.G 3.7.n.o.G o.q.q.q.q.o.",
"                                                                              b.c./ g.a a 8 h.h./ e+3+,+w.} 4 %+/ h.f.b+c.n.c.|+",
"                                                                              X 9 i g 5+: f+f+m 2 2 5+3 5+j g+~.h+/._.b p c e i+",
"                                                                               .C W.J Y.C C Y.C C C 0 0 ;..+V.k. .5 X.9.X.a.Y.J ",
"                                                                               .Z 5.d+j+*+Z.0.0.*+0.*+R.{ .+'+W.0.a f.@+@+@+Z.Z.",
"                                                                               .Z 4.|.T ~.~.5 5 5 5 5 A E U.&+).*+e.U k.5 5 k.~.",
"                                                                               .Z 5.U  .T b.b.~.W.W.5 A { =+&+).9.}.r.k.%+k.).).",
"                                                                              Z J ].3  . .).).).~.k.%+A E 1.W T  .4.m b.~.).).).",
"                                                                              Z C O r.k+ . . .T T ~.k.;+E >+$. . .4.,+T ).).T ).",
"                                                                              Z J O 2 X  . .T T ).).k.A A 1.&+ . .4.v. .).).).T ",
"                                                                              a.J $.3 ).b.b.b.b.b.k.5 A H 1.&+Z Z 4.v.T b.k.).b.",
"                                                                              Z ;+G (+!+/./././.[.{+l+( v 2.W Z -.O ^+m+{+/.:.(+",
"                                                                              C A '.G 3.G G 3.O O O ,.$.S n+:+0 9+3.].].,.3.'.'.",
"                                                                              0 H -+o+9.*+0.@+[+[+[+[+[+0.m O r H 0.0.@+[+[+[+`.",
"                                                                              { C C Z Z a.Y.J J C Z Z a.Z Z 0 A Z Z Z Z Z  .a.J ",
"                                                                              < 3+p+v.2 i+i+s.2 2 &.3 q+r+< < < 6 < } ^ v.m v.s+"};
