/* XPM */
static char * door_1_xpm[] = {
"64 64 324 2",
"  	c None",
". 	c #D6D4D2",
"+ 	c #D5D2D1",
"@ 	c #D3D1CF",
"# 	c #D0CECB",
"$ 	c #CECBC9",
"% 	c #CFCDCB",
"& 	c #CFCCCB",
"* 	c #CFCCCA",
"= 	c #D0CDCC",
"- 	c #D0CECD",
"; 	c #D1D0CF",
"> 	c #CFCECD",
", 	c #D1CFCD",
"' 	c #D3D2CF",
") 	c #D2D0CE",
"! 	c #D0CDCB",
"~ 	c #CFCDCA",
"{ 	c #D0CECC",
"] 	c #D1CECC",
"^ 	c #D3D0CE",
"/ 	c #D5D3D1",
"( 	c #D6D4D1",
"_ 	c #D7D5D3",
": 	c #D4D2CF",
"< 	c #CFCCC9",
"[ 	c #D1CECD",
"} 	c #CECDCC",
"| 	c #D1D0CE",
"1 	c #CECCCA",
"2 	c #CECCC9",
"3 	c #D8D8D8",
"4 	c #CBCCCB",
"5 	c #C6C7C7",
"6 	c #C9C9C8",
"7 	c #C9CAC9",
"8 	c #C8C9C7",
"9 	c #C7C7C5",
"0 	c #C8C9C8",
"a 	c #C8C8C8",
"b 	c #C7C8C7",
"c 	c #C7C7C7",
"d 	c #C6C6C6",
"e 	c #C5C6C5",
"f 	c #C4C5C4",
"g 	c #D3D4D4",
"h 	c #D2D2D2",
"i 	c #C9C9C9",
"j 	c #CACBCA",
"k 	c #CBCBCA",
"l 	c #CBCCCA",
"m 	c #CACAC9",
"n 	c #D6D7D7",
"o 	c #D9D9D9",
"p 	c #C8C8C6",
"q 	c #C7C8C8",
"r 	c #C6C7C6",
"s 	c #C4C5C5",
"t 	c #D0D0D0",
"u 	c #C8C8C7",
"v 	c #CACACA",
"w 	c #D7D7D7",
"x 	c #CCCCCB",
"y 	c #C2C2C0",
"z 	c #C4C4C2",
"A 	c #C5C4C3",
"B 	c #C5C5C3",
"C 	c #C6C5C3",
"D 	c #C4C4C3",
"E 	c #C3C3C2",
"F 	c #C2C2C1",
"G 	c #B7B8B8",
"H 	c #D1D2D2",
"I 	c #D6D6D6",
"J 	c #C6C6C5",
"K 	c #BFBFBD",
"L 	c #C1C1BF",
"M 	c #C3C3C1",
"N 	c #C5C5C4",
"O 	c #C4C5C3",
"P 	c #BABBBA",
"Q 	c #D2D3D2",
"R 	c #D9D9D8",
"S 	c #CCCCCA",
"T 	c #C6C5C4",
"U 	c #B6B8B8",
"V 	c #D1D2D3",
"W 	c #D5D5D4",
"X 	c #BDBDBC",
"Y 	c #C0C0BE",
"Z 	c #D7D8D7",
"` 	c #DADBDA",
" .	c #DBDBDB",
"..	c #DBDBDA",
"+.	c #DADAD9",
"@.	c #DADAD8",
"#.	c #DCDCDB",
"$.	c #C3C4C4",
"%.	c #D0D0D1",
"&.	c #D8D8D7",
"*.	c #D8D9D8",
"=.	c #D7D7D6",
"-.	c #DADBD9",
";.	c #DDDDDC",
">.	c #DFDFDE",
",.	c #C9CACA",
"'.	c #D3D3D3",
").	c #DBDCDB",
"!.	c #DBDBD9",
"~.	c #DCDCDC",
"{.	c #C2C3C3",
"].	c #CFD0D1",
"^.	c #D6D6D5",
"/.	c #D1D1D1",
"(.	c #D0D0CF",
"_.	c #D9D9D7",
":.	c #D7D8D5",
"<.	c #D7D7D5",
"[.	c #DADADA",
"}.	c #C3C3C4",
"|.	c #D0D1D1",
"1.	c #CFCFCF",
"2.	c #D1D1CF",
"3.	c #D8D9D7",
"4.	c #DAD9D8",
"5.	c #D9DAD9",
"6.	c #D1D1D0",
"7.	c #D8D8D6",
"8.	c #D9D8D7",
"9.	c #C2C2C3",
"0.	c #CDCECD",
"a.	c #CFCFCE",
"b.	c #D4D5D4",
"c.	c #D4D4D4",
"d.	c #C4C4C4",
"e.	c #D1D1D2",
"f.	c #CECFCF",
"g.	c #D5D5D5",
"h.	c #D5D6D5",
"i.	c #D6D7D6",
"j.	c #DDDDDD",
"k.	c #D3D4D3",
"l.	c #D5D5D6",
"m.	c #D5D6D6",
"n.	c #DBDADA",
"o.	c #CCCDCD",
"p.	c #D0D1D0",
"q.	c #D4D5D5",
"r.	c #C4C4C5",
"s.	c #D1D2D1",
"t.	c #CECFCE",
"u.	c #C8C9C9",
"v.	c #CCCDCC",
"w.	c #D6D7D5",
"x.	c #CFD0D0",
"y.	c #CDCDCD",
"z.	c #D4D4D3",
"A.	c #C1C2C2",
"B.	c #CDCDCC",
"C.	c #D2D2D1",
"D.	c #C3C3C3",
"E.	c #CECECE",
"F.	c #D3D3D2",
"G.	c #CCCCCC",
"H.	c #BFC0BF",
"I.	c #BFBFBE",
"J.	c #C0C1BF",
"K.	c #C1C1C0",
"L.	c #C0C0BF",
"M.	c #BEBFBE",
"N.	c #C0C1C0",
"O.	c #C1C2C1",
"P.	c #BFBFBF",
"Q.	c #C0C2C2",
"R.	c #BDBEBD",
"S.	c #CFD0CF",
"T.	c #CECECD",
"U.	c #C0C1C1",
"V.	c #CECFD0",
"W.	c #D5D5D3",
"X.	c #D4D4D2",
"Y.	c #D6D6D4",
"Z.	c #D4D5D3",
"`.	c #D5D4D3",
" +	c #D2D3D1",
".+	c #D5D6D4",
"++	c #CBCBC9",
"@+	c #CBCBCB",
"#+	c #CCCBCA",
"$+	c #CACAC8",
"%+	c #CBCAC9",
"&+	c #CDCECC",
"*+	c #CAC9C8",
"=+	c #D3D2D1",
"-+	c #D1D0D0",
";+	c #CDCDCB",
">+	c #D0D0CE",
",+	c #D0CFCE",
"'+	c #CFCFCD",
")+	c #D2D2D0",
"!+	c #CECECC",
"~+	c #C5C5C5",
"{+	c #C5C6C6",
"]+	c #C2C3C4",
"^+	c #C3C4C3",
"/+	c #D5D4D4",
"(+	c #C2C2C2",
"_+	c #C2C3C2",
":+	c #BAB8B7",
"<+	c #BDBBBA",
"[+	c #BEBCBB",
"}+	c #BFBEBD",
"|+	c #C0BEBD",
"1+	c #BEBDBC",
"2+	c #BDBCBB",
"3+	c #BCBABA",
"4+	c #BBBABA",
"5+	c #BBB9B9",
"6+	c #AFAFB0",
"7+	c #CACBCB",
"8+	c #D2D1D1",
"9+	c #C3C1C0",
"0+	c #B9B7B6",
"a+	c #BBB9B8",
"b+	c #BCBBBA",
"c+	c #BFBDBC",
"d+	c #BFBEBC",
"e+	c #B5B4B4",
"f+	c #BDBBBB",
"g+	c #C0BEBE",
"h+	c #BFBEBE",
"i+	c #BFBDBD",
"j+	c #BDBCBC",
"k+	c #BBBAB9",
"l+	c #AFB0B0",
"m+	c #CBCCCC",
"n+	c #C2C1BF",
"o+	c #B7B5B4",
"p+	c #BEBDBB",
"q+	c #D8D7D6",
"r+	c #D8D7D7",
"s+	c #DAD9D9",
"t+	c #BFBFC0",
"u+	c #D3D2D2",
"v+	c #D6D5D4",
"w+	c #D7D6D5",
"x+	c #D9D8D8",
"y+	c #BEBFBF",
"z+	c #CBCCCD",
"A+	c #D5D4D2",
"B+	c #D4D3D2",
"C+	c #D4D3D1",
"D+	c #D5D4D1",
"E+	c #D6D5D3",
"F+	c #DAD9D7",
"G+	c #D3D2D0",
"H+	c #D4D3D3",
"I+	c #CDCECE",
"J+	c #C0C0C0",
"K+	c #BFC0C0",
"L+	c #CECECF",
"M+	c #C7C7C6",
"N+	c #D7D6D6",
"O+	c #DCDBDA",
"P+	c #BDBEBC",
"Q+	c #BEBFBD",
"R+	c #BEBEBD",
"S+	c #BBBCBB",
"T+	c #BCBDBC",
"U+	c #BFC0BE",
"V+	c #BEBEBE",
"W+	c #C0C1C2",
"X+	c #CDCFCF",
"Y+	c #D6D6D3",
"Z+	c #D3D3D1",
"`+	c #D7D7D4",
" @	c #DADAD7",
".@	c #D5D6D3",
"+@	c #CCCBCB",
"@@	c #D0CFCD",
"#@	c #D2D1D0",
"$@	c #C6C6C4",
"%@	c #C9CAC8",
"&@	c #C5C6C4",
"*@	c #D0D2D2",
"=@	c #C4C3C2",
"-@	c #CCCDCB",
";@	c #C7C6C4",
">@	c #BEBEBC",
",@	c #C1C0BF",
"'@	c #C3C2C1",
")@	c #DBDCDA",
"!@	c #DEDFDE",
"~@	c #D7D8D6",
"{@	c #D9DAD8",
"]@	c #C7C9C8",
"^@	c #DCDDDC",
"/@	c #C2C3C1",
"(@	c #D2D3D3",
"_@	c #C7C7C8",
":@	c #CDCCCB",
"<@	c #CBCACA",
"[@	c #C9C9C7",
"}@	c #C9C8C7",
"|@	c #C8C7C7",
"1@	c #C6C7C5",
"2@	c #CDCECF",
"3@	c #C5C4C2",
"4@	c #C3C4C2",
"5@	c #BABABA",
"6@	c #C4C3C1",
"7@	c #C2C1C0",
"8@	c #D8D7D5",
"9@	c #BEBEBF",
"0@	c #D6D5D5",
"a@	c #BCBCBB",
"b@	c #BCBDBB",
"c@	c #C1C1C2",
"d@	c #D9DAD7",
"e@	c #C7C8C6",
"f@	c #C4C6C5",
"g@	c #C6C8C7",
"h@	c #C6C8C6",
"i@	c #C5C7C6",
"            . . . + @ # $ % & & * % = - ; > , ' ) # ! ~ ~ * % { ] ) ) ^ / ( _ _ _ / : ] < = = = ! { [ , ; > } | { ~ 1 2 2 $ 1 % ",
"            3 4 5 6 7 8 9 0 a b c d e f 5 g h 0 b i j k k 4 l k j m 7 0 j n o 4 b 7 m 6 p 6 6 0 q r d s 5 g t c e u 7 m v j m m ",
"            w x y z A B C B B B D E F E G H I J K L M z B B N N O D z z P Q R S F D N T T C N N D E E E U V W N X Y y E z z D D ",
"            Z ` w  ...+.@.@.+.......+.#.$.%.&.*.=.+.+.-.....#.#.;.;.;.>.,.'.o ..3 #.)...!.!...#.#.#. .~.{.].^.=.W R R +.+.+.....",
"            w R /.(._.:.<.<.<.&.&.&.!.[.}.|.&.=.1.2.&.&.3._.@.4.R @.;.;.i '.*.5.h 6.@.7.7.7.7.8._._...[.9.].^.^.0.a.=.=.7.7._.8.",
"            I R 6.e I b.b.c.c.b.b.b.+.[.d.e.&.=.f.b g.g.h.h.^.I I i.;.j.i k.3 R /.5 w h.h.g.g.l.g.m.` n.{.].^.h.o.d c.c.b.W W g.",
"            =._.p.d I W W c.c.c.q.c.5.+.r.s.Z I t.u.^.g.h.I I i.n w ;.;.,.c.3 R /.c w h.^.g.g.g.m.g.[.[.{.%.^.g.o.b g.c.b.g.g.g.",
"            &.3.p.c w h.h.g.W b.g.b.5.5.s H w ^.t.i I m.^.I n i.n i.~.;.,.c.o R /.0 3 i.I I ^.h.I h.[.[.{.|.h.b.v.c g.b.W g.I h.",
"            w &.p.c i.h.W g.g.g.h.q.5.o r.H =.w.a.7 i.I I I I i.i.I #.#.i g 3 *.s.a Z I I I I I i.m.[.o {.x.W W y.a ^.g.g.g.g.g.",
"            =.&.t 5 h.g.c.c.z.W g.q.R R $.H Z ^.t.7 =.I I ^.I I i.=.~.#.i '.3 3 /.q =.I g.W W h.I m.+.o A.%.g.W B.b g.g.g.W g.g.",
"            i.&.1.e g.b.c.h C.'.c.'.o R D.H Z i.E.u.i.I I I ^.I I w ~.~.u.'.&.&.t r I g.W F.F.c.g.b.+.o A.].g.W G.b h.g.g.g.g.g.",
"            i.&.t H.I.J.K.Y L.L.L.M.G.o {.|.w i.t.M.N.O.F M E E F K.a.~.a '.3 &.p.H.L.K.F J.L K.N.P.0.+.Q.x.g.g.v.R.H.K.K.F F F ",
"            =.Z S.E.y.E.E.t.a.T.E.t.t.c.A.|.=.i.S.v.y.E.t.1.x.(.(.t /.w c Q 3 &.p.1.E.1.1.(.(.a.1.S.1.g.U.V.W h.0.4 G.y.0.T.1.t.",
"            g.R W.W z.z.z.z.X.z.c.W W Y.c |.=.R z.z.z.z.k.z.z.W h.i.=.&.k h i.@.W W W Z.Z.W.`.b.W h.h.^.5 ].W &. +F.F.Q Q F.F.z.",
"            w w.=.=.W W ^.^.Y.I i.I ^.=.I I I i.^.Y.^.=.<.w.w.w.w.=.7.R &.o 3 =.&.=.^.^.w.=.^.=.w w =.=.I m.W W W.W.W ^.h.Y..+W ",
"            a.B.B.B.k k k ++k x x x @+4 v.x S #+k m $+%+++%+++j ++m l B.T.T.(.T.T.&+x x x k x B.B.B.G.G.B.B.++m 6 6 6 *+$+*+$+$+",
"            a.F.F.=+6.(.(.a.a.(.-+(.(.S.1.B.;+>+2.(.,+'+'+,+>+6.)+)+C.F.'.(.(.z.z.F.C.6.6.(.(.6./.6.6.t S.x k !+'+a.> !+!+> '+(.",
"            '.c D.~+5 5 5 d {+e s $.]+A.s t t ~+^+~+r 5 r 5 c c r {+d e q I /+a f 5 q a q c 5 5 {+s d.(+{+t 1.f _+~+d r r 5 5 d ",
"            g.T :+<+[+}+}+|+}+1+2+3+4+5+6+7+8+9+0+a+b+[+c+d+c+c+[+2+<+[+e+t =.C a+f+c+|+g+g+h+i+j+f+4+k+l+m+(.n+o+:+k+f+[+1+p+[+",
"            /+w F.=.q+=.=.=.r+r+r+&.r+s+t+m+u+W h Y.W v+Y.w+q+q+&.8.8...d 1.I &.c.&.&.&.&.&.x+x+x+R x+[.y+z+6.X.t `.`.`.W.v+w+w+",
"            g.w+T.k W.A+A+B+X.A+X.A+q+x+y+z+=+X.@+S C+C+C+D+A+A+W.E+F+n.d t I =.E.G.Y.v+W.`.W.W W.E+8.R y+o.6.G+i m G+G+G+C+C+C+",
"            W ^.y.{.c.H+'.h h h Q h &.R t+I+z.`.@+d.F.h h F.'.'.H+z.+...c t ^.<.E.$.g./+c.'.'.'.'.'.R R P.E.C.F.i _+/.6./.C.h h ",
"            W ^.T.$.W c.z.k.'.F.h h &.x+J+I+z.Z.G.~+F.Q F.z.z.c.z.c.!...c 6.=.<.a.~+^.g.W W c.H+'.'.8.R K+L+C.F.v ^+C./.C.Q F.'.",
"            h.<.t.s g.W z.c.z.'.F.Q &.R N.t.c.W y.e z.'.z.z.z.c.c.W !...u 6.=.<.a.{+I ^.W g.W c.z.k.R R J+f.u+z.@+d.h h F.F.F.'.",
"            ^.<.1.~+g.W W W c.c.'.Q 7.R U.I+W W y.M+c.z.z.z.z.z.z.g...!.u 6.=.=.t d N+^.^.h.g.g.c.z.&.R N.f.F.z.@+~+'.F.F.'.F.F.",
"            ^.=.a.e W W b.c.c.c.c.F.&.&.N.I+W W o.r W z.z.z.b.W W g.!...b /.=.=.(.r I ^.g.W g.W W z.R R N.f.'.z.@+~+z.F.F.F.'.z.",
"            Y.<.t.d.k.'.'.'.'.F.Q C.&.8.U.I+^.Y.y.d z.'.F.k.k.z.c.b...O+b /.=.=.S.~+b.c.c.c.c.z.'.F.3.R N.f.z.z.@+s '.Q C. +h '.",
"            ^.7.(.L.P+M.I.I.I.Q+R+S+7 s+O.f.w+i.1.R.T+R+I.Y U+H.I.R+x #.b /.&.7.6.L.Q+H.H.H.H.I.V+T+@++.U.f.c.W y.T+S+X R+I.Q+M.",
"            =.&.t (.S.(.(.(.1.S.1.a.t.b.W+X+w =.1.E.E.1.S.p.t p./.C./.I q /.*.3./.6.6.6.6.p.t p.t (.S.g.U.f.g.^.0.v.y.E.t.S.1.1.",
"            =._.W.Y+W.W.X.X.Z+F.Z+Z+Z+X.J x.&._.X.X.B+Z+Z+Z+X.X.W.Y.Y.`+l h R  @.@Y.Y+W.W.X.X.X.X.X.X.W.J x.g.=.)+Z+=+)+)+)+Z+Z+",
"            w ^.^.W W W Y.Y.Y.^.g.W W ^.W I w h.W W W W W.W ^.^.Y.^.w+7.=.I 3 =.=.^.W ^.^.w+w.=.^.Y.Y.^.W I g.z.F.z.z.z.X.z.W W ",
"            !+T.} ;+l $+$+k ++++m m m 4 B.B.B.B.x k k m m m k k ++x S B.a.!+T.a.T.B.x ++%+x +@x k k @+x B.y.x k m $+m 6 6 6 m m ",
"            Z.`.`.X.Z+| !+; (.(.,+(.(.(./.E.a.C.G+2.2.2.6.2.6.C.)+Z+=+=+z.X.v+W v+`.X.2.@@#@6.2.; 6.6.6./.E.B.(.| @@>+>+>+>+; 6.",
"            3 k d u 8 M+$@c M+M+d N f ^+{+g H a r u 6 m m m m m 6 6 a b m I o k r 6 6 u 9 u u b r e e d.r g t d N M+u 6 6 %@6 6 ",
"            w ;+M B N $@$@$@$@&@N D E E G *@I r Y y =@B $@$@J J N N A B P Q R -@M N $@;@;@;@$@J N D ^+D G H W J >@,@'@z A B N N ",
"            Z -.w )@..+.@.@.+.......[.#.$.x.&.*.=.+.+.-.....#.#.;.;.;.!@,.'.o ..3 #.#...!.!.!.#.#.#...~.{.].^.w c.R R 5.+.+.....",
"            w R /.(._.~@<.<.<.&.7.&.!.[.{.x.w =.1.2.&.&.3._.{@4.R @.;.;.i '.*.{@h 6.@.7.7.7.7._._.R ..[.{.].h.^.0.a.q+<.~@7._.8.",
"            i._.p.e m.b.W c.c.q.b.q.+.[.D.x.&.=.t.b g.g.h.h.I I I i.;.j.i '.3 R /.r =.g.^.g.g.h.h.m.` n.{.|.^.h.o.d c.c.b.b.W g.",
"            =.3.6.r I W W c.b.c.b.c.5.+.]+x.Z i.t.u.I g.^.I I I i.w ;.;.,.c.3 R /.c w ^.^.g.g.g.h.g.[.[.{.|.^.W o.b g.c.q.g.g.h.",
"            &.3.6.b w h.g.g.W b.W b.5.+.$.x.Z ^.t.i I h.^.I i.i.w i.;.;.,.c.R R /.0 3 i.I I ^.g.^.h.[.+.{.|.h.b.v.b g.W W g.h.h.",
"            =.&.p.b I h.g.g.g.g.m.q.5.o }.x.=.i.1.7 i.I I I I i.i.I #.#.i '.3 R /.]@Z i.I I I I i.I +.s+{.x.W W y.a h.g.g.g.g.I ",
"            =.&.t 5 g.W c.z.z.g.g.b.R R {.x.=.w.t.7 i.I I ^.I I i.i.;.#.i '.3 *.p.q i.I g.g.W h.I h.5.o 9.%.g.W B.u h.g.g.W g.g.",
"            i.&.1.~+W b.z.C.C.'.g '.R R A.x.Z i.E.u.I ^.I I I ^.I i.^@~.u.'.&.&.x.d I g.W F.F.z.c.c.5.o A.].g.W G.c g.g.g.g.W W ",
"            i.&.t H.I.J.K.Y L.L.L.M.4 o A.x.w i.t.M.N.O.F E E E /@K.a.#.a (@3 &.p.H.J.K.F ,@K.K.K.P.y.+.Q.x.g.g.o.R.H.N.K.F F F ",
"            w ~@S.E.0.E.t.a.a.T.E.f.E.c.U.f.=.=.1.y.y.t.1.1.t t t t /.w _@(@3 &.t 1.t.1.S.(.(.1.1.S.1.g.U.f.W g.0.m+G.0.I+E.1.1.",
"            g.R Z.W z.z.z.W.z.z.b.W W ^.b %.=.R Z.Z.z.z.z.z.z.W ^.=.~@&.@+h i.@..+^.W Z.W.W W.W g.^.^.w.c ].W &.Q F.F.F.Q F.'.z.",
"            w ^.=.^.W W ^.^.Y.I i.I ^.i.I I I ^.^.Y.^.w.w.<.w.w.<.=.~@_.&.o 3 =.&.=.^.^.^.=.^.i.w w =.=.I m.W b.Z.Z.W W h..+W W ",
"            a.B.B.:@k <@k %+k 4 x 4 k 4 v.v.x +@k m $+m ++%+++++++m k B.T.T.(.T.T.B.x k +@k x v.B.G.G.G.v.B.k m 6 6 6 *+$+$+$+m ",
"            a.F.F.C.6.(.(.a.(.t 6.p.t (.S.v.;+>+(.>+'+'+'+'+>+2.6.6.C.F.F.(.(.z.z.F.C.6.6.(.(.8+C.s./.p.S.G.k !+T.> !+!+!+!+'+>+",
"            k.B.6 #+x x k m m 6 [@u M+T b g Q 6 m S :@B.;+B.} } B.B.} :@> w c.B.$+S ;+;+S ++%+m *+}@u J u '.t |@u %+#+S S x :@x ",
"            g.l F D &@9 1@1@J e e &@f &@G 2@'.3@I.K.y M z B O z 4@E E 4@5@/.I S _+O J M+M+M+M+1@1@J e J G 2@/.6@P+U+L 7@M z E M ",
"            W =.u+<.w+=.=.w+=.=.=.w w o y+m+F.W h v+W.v+Y.w+<.8@7.&.&.n.d 1.I w z.7.7.&.&.&.&.&.&.3 3 s+9@z+6.z.t `.X.`.W.v+v+w+",
"            W ^.T.+@E+`.A+X.X.`.X.`.q+3 y+o.u+X.x S C+C+C+A+A+A+W.v+_.n.d t I =.t.v.Y.E+E+`.W.W W.v+8.R y+o.6.G+i %+G+G+G+C+C+C+",
"            W ^.y.{.c.'.'.h h h h h &.R t+I+z.`.@+d.F.h h F.'.'.'.z.+...c t ^.<.E.$.g.c.c.'.'.'.'.'.R R P.I+C.F.i (+/.6./.C.h h ",
"            W ^.T.d.W c.k.k.'.u+u+h &.3 J+I+z.W.G.~+F.Q F.z.z.c.c.c.-...b 6.=.<.a.~+^.g.W W c.z.'.'.x+R K+L+ +F.v ^+C./.C.F.F.'.",
"            ^.<.E.f W W z.z.z.'.F.Q &.R N.f.c.W y.J k.'.z.z.z.c.z.W !...u /.w =.1.{+I ^.W g./+c.z.k.R R J+f.u+X.@+d.Q h F.F.F.'.",
"            ^.=.1.~+0@W W W c.c.'.F.7.R U.t.W W y.M+c.z.z.c.z.z.z.W ..!.b 6.=.=.t d I ^.h.^.g.g.c.z.&.R J+f.F.z.4 ~+'.F.F.'.F.F.",
"            ^.<.1.e g.W W c.c.z.z.F.&.&.N.I+W W y.r W z.z.z.c.W W g.....b s.w =.(.r I ^.0@g.g.W g.z._._.N.f.'.z.@+~+z.F.F.F.F.z.",
"            Y.<.t.f z.k.k.k.k.k.F.h &._.N.I+^.^.y.r c.k.F.z.k.c.c.W ..)@b 6.=.=.1.e W W W c.b.c.z.'.3._.N.f.z.z.@+~+'.Q Q F.Q '.",
"            ^.7.(.U+P+I.I.I.I.M.R+a@7 +.O.f.^.i.1.R.X R+I.Y U+P.I.R.x #.b /.r+7.p.L.R+H.L.H.U+I.R+b@k +.U.f.z.W y.T+S+X R+K Q+V+",
"            =.&.t (.S.(.(.S.1.1.1.a.t.b.c@X+w ~@S.E.E.a.S.t t t /.s./.I q /.3 _./.6.p.6.p.p.t t t (.S.g.U.f.g.^.0.B.y.T.t.1.S.1.",
"            w _.Z..@W.`.X.C+Z+Z+Z+Z+Z+X.J 1.Z _.X.X.C+Z+Z+Z+B+B+Z.Y.Y.`+k h R d@W.Y.v+W.`.X.X.X.X.X.X.`.J x.g.=.)+Z+=+)+)+)+Z+Z+",
"            3 =.=.^.^.Y.w+<.<.=.^.^.Y.^.^.w &.^.^.^.^.^.W Y.<.=.w+w+=.8.7.=.o &.7.=.^.<.<.q+7.&.=.^.w.=.^.w I z.z.Z.W W z.W.Y.^.",
"            0 u e@r e O O {+e e s f f@g@0 0 0 i 0 b 5 r J r h@r e c c 0 j 0 %@6 u b r N f r {+{+e e i@q 0 u.b b r {+i@e ~+~+1@e "};
