/* XPM */
static char * door_4_xpm[] = {
"64 64 293 2",
"  	c None",
". 	c #D6D4D2",
"+ 	c #D5D2D1",
"@ 	c #D3D1CF",
"# 	c #D0CECB",
"$ 	c #CECBC9",
"% 	c #CFCDCB",
"& 	c #CFCCCB",
"* 	c #CFCCCA",
"= 	c #D0CDCC",
"- 	c #D0CECD",
"; 	c #D1D0CF",
"> 	c #CFCECD",
", 	c #D1CFCD",
"' 	c #D3D2CF",
") 	c #D2D0CE",
"! 	c #D0CDCB",
"~ 	c #CFCDCA",
"{ 	c #D0CECC",
"] 	c #D1CECC",
"^ 	c #D3D0CE",
"/ 	c #D5D3D1",
"( 	c #D6D4D1",
"_ 	c #D7D5D3",
": 	c #D4D2CF",
"< 	c #CFCCC9",
"[ 	c #D8D8D8",
"} 	c #CBCCCB",
"| 	c #C6C7C7",
"1 	c #C9C9C8",
"2 	c #C9CAC9",
"3 	c #C8C9C7",
"4 	c #C7C7C5",
"5 	c #C8C9C8",
"6 	c #C8C8C8",
"7 	c #C7C8C7",
"8 	c #C7C7C7",
"9 	c #C6C6C6",
"0 	c #C5C6C5",
"a 	c #C4C5C4",
"b 	c #D3D4D4",
"c 	c #D2D2D2",
"d 	c #C9C9C9",
"e 	c #CACBCA",
"f 	c #CBCBCA",
"g 	c #CBCCCA",
"h 	c #CACAC9",
"i 	c #D6D7D7",
"j 	c #D9D9D9",
"k 	c #C8C8C6",
"l 	c #D7D7D7",
"m 	c #CCCCCB",
"n 	c #C2C2C0",
"o 	c #C4C4C2",
"p 	c #C5C4C3",
"q 	c #C5C5C3",
"r 	c #C6C5C3",
"s 	c #C4C4C3",
"t 	c #C3C3C2",
"u 	c #C2C2C1",
"v 	c #B7B8B8",
"w 	c #D1D2D2",
"x 	c #D6D6D6",
"y 	c #C6C6C5",
"z 	c #BFBFBD",
"A 	c #C1C1BF",
"B 	c #C3C3C1",
"C 	c #C5C5C4",
"D 	c #C4C5C3",
"E 	c #BABBBA",
"F 	c #D2D3D2",
"G 	c #D9D9D8",
"H 	c #CCCCCA",
"I 	c #C6C5C4",
"J 	c #D7D8D7",
"K 	c #DADBDA",
"L 	c #DBDBDB",
"M 	c #DBDBDA",
"N 	c #DADAD9",
"O 	c #DADAD8",
"P 	c #DCDCDB",
"Q 	c #C3C4C4",
"R 	c #D0D0D1",
"S 	c #D8D8D7",
"T 	c #D8D9D8",
"U 	c #D7D7D6",
"V 	c #DADBD9",
"W 	c #DDDDDC",
"X 	c #DFDFDE",
"Y 	c #C9CACA",
"Z 	c #D3D3D3",
"` 	c #DBDCDB",
" .	c #DBDBD9",
"..	c #D1D1D1",
"+.	c #D0D0CF",
"@.	c #D9D9D7",
"#.	c #D7D8D5",
"$.	c #D7D7D5",
"%.	c #DADADA",
"&.	c #C3C3C4",
"*.	c #D0D1D1",
"=.	c #CFCFCF",
"-.	c #D1D1CF",
";.	c #D8D9D7",
">.	c #DAD9D8",
",.	c #D9DAD9",
"'.	c #D1D1D0",
").	c #D8D8D6",
"!.	c #D9D8D7",
"~.	c #D4D5D4",
"{.	c #D4D4D4",
"].	c #C4C4C4",
"^.	c #D1D1D2",
"/.	c #CECFCF",
"(.	c #D5D5D5",
"_.	c #D5D6D5",
":.	c #D6D6D5",
"<.	c #D6D7D6",
"[.	c #DDDDDD",
"}.	c #D3D4D3",
"|.	c #D5D5D6",
"1.	c #D0D1D0",
"2.	c #D5D5D4",
"3.	c #D4D5D5",
"4.	c #C4C4C5",
"5.	c #D1D2D1",
"6.	c #CECFCE",
"7.	c #C8C9C9",
"8.	c #C4C5C5",
"9.	c #D5D6D6",
"0.	c #DCDCDC",
"a.	c #D6D7D5",
"b.	c #CFCFCE",
"c.	c #D0D0D0",
"d.	c #D4D4D3",
"e.	c #C7C8C8",
"f.	c #D2D2D1",
"g.	c #C3C3C3",
"h.	c #CECECE",
"i.	c #C6C7C6",
"j.	c #D3D3D2",
"k.	c #BFC0BF",
"l.	c #BFBFBE",
"m.	c #C0C1BF",
"n.	c #C1C1C0",
"o.	c #C0C0BE",
"p.	c #C0C0BF",
"q.	c #BEBFBE",
"r.	c #CCCCCC",
"s.	c #C2C3C3",
"t.	c #C0C1C0",
"u.	c #C1C2C1",
"v.	c #CFD0CF",
"w.	c #CDCDCD",
"x.	c #CECECD",
"y.	c #C1C2C2",
"z.	c #CCCDCC",
"A.	c #CFD0D0",
"B.	c #D5D5D3",
"C.	c #D4D4D2",
"D.	c #D6D6D4",
"E.	c #D4D5D3",
"F.	c #D5D4D3",
"G.	c #CDCDCC",
"H.	c #CBCBC9",
"I.	c #CBCBCB",
"J.	c #CCCBCA",
"K.	c #CACAC8",
"L.	c #CBCAC9",
"M.	c #CDCECC",
"N.	c #D3D2D1",
"O.	c #D1D0D0",
"P.	c #CDCDCB",
"Q.	c #D0D0CE",
"R.	c #D0CFCE",
"S.	c #CFCFCD",
"T.	c #D2D2D0",
"U.	c #C5C5C5",
"V.	c #C5C6C6",
"W.	c #C2C3C4",
"X.	c #C3C4C3",
"Y.	c #D5D4D4",
"Z.	c #BAB8B7",
"`.	c #BDBBBA",
" +	c #BEBCBB",
".+	c #BFBEBD",
"++	c #C0BEBD",
"@+	c #BEBDBC",
"#+	c #BDBCBB",
"$+	c #BCBABA",
"%+	c #BBBABA",
"&+	c #BBB9B9",
"*+	c #AFAFB0",
"=+	c #CACBCB",
"-+	c #D2D1D1",
";+	c #C3C1C0",
">+	c #B9B7B6",
",+	c #BBB9B8",
"'+	c #BCBBBA",
")+	c #BFBDBC",
"!+	c #BFBEBC",
"~+	c #B5B4B4",
"{+	c #BDBBBB",
"]+	c #C0BEBE",
"^+	c #BFBEBE",
"/+	c #BFBDBD",
"(+	c #D8D7D6",
"_+	c #D8D7D7",
":+	c #DAD9D9",
"<+	c #BFBFC0",
"[+	c #CBCCCC",
"}+	c #D3D2D2",
"|+	c #D6D5D4",
"1+	c #D7D6D5",
"2+	c #D9D8D8",
"3+	c #D5D4D2",
"4+	c #D4D3D2",
"5+	c #BEBFBF",
"6+	c #CBCCCD",
"7+	c #D4D3D1",
"8+	c #D5D4D1",
"9+	c #D6D5D3",
"0+	c #DAD9D7",
"a+	c #DBDADA",
"b+	c #D4D3D3",
"c+	c #CDCECE",
"d+	c #C0C0C0",
"e+	c #C8C8C7",
"f+	c #C0C1C1",
"g+	c #C7C7C6",
"h+	c #D7D6D6",
"i+	c #CCCDCD",
"j+	c #DCDBDA",
"k+	c #BDBEBC",
"l+	c #BEBFBD",
"m+	c #BEBEBD",
"n+	c #BBBCBB",
"o+	c #BDBEBD",
"p+	c #BCBDBC",
"q+	c #BFC0BE",
"r+	c #C0C1C2",
"s+	c #CDCFCF",
"t+	c #D6D6D3",
"u+	c #D3D3D1",
"v+	c #D7D7D4",
"w+	c #DADAD7",
"x+	c #D5D6D3",
"y+	c #CECECC",
"z+	c #CECDCC",
"A+	c #CCCBCB",
"B+	c #D1D0CE",
"C+	c #D3D2D0",
"D+	c #D0CFCD",
"E+	c #D2D1D0",
"F+	c #C6C6C4",
"G+	c #C5C6C4",
"H+	c #D0D2D2",
"I+	c #C4C3C2",
"J+	c #CCCDCB",
"K+	c #C7C6C4",
"L+	c #DBDCDA",
"M+	c #DEDFDE",
"N+	c #D7D8D6",
"O+	c #D9DAD8",
"P+	c #C7C9C8",
"Q+	c #DCDDDC",
"R+	c #C2C3C1",
"S+	c #D2D3D3",
"T+	c #C1C0BF",
"U+	c #CDCECD",
"V+	c #C7C7C8",
"W+	c #D5D6D4",
"X+	c #CDCCCB",
"Y+	c #CBCACA",
"Z+	c #C9C9C7",
"`+	c #C6C7C5",
" @	c #CDCECF",
".@	c #C5C4C2",
"+@	c #C3C4C2",
"@@	c #BABABA",
"#@	c #C2C3C2",
"$@	c #D8D7D5",
"%@	c #D6D5D5",
"&@	c #BCBCBB",
"*@	c #BDBDBC",
"=@	c #BFBFBF",
"-@	c #C1C1C2",
";@	c #D9DAD7",
">@	c #C7C8C6",
",@	c #C4C6C5",
"'@	c #C6C8C7",
")@	c #C6C8C6",
"!@	c #C9CAC8",
"                                            . . . + @ # $ % & & * % = - ; > , ' ) # ! ~ ~ * % { ] ) ) ^ / ( _ _ _ / : ] < = = = ",
"                                            [ } | 1 2 3 4 5 6 7 8 9 0 a | b c 5 7 d e f f } g f e h 2 5 e i j } 7 2 h 1 k 1 1 5 ",
"                                            l m n o p q r q q q s t u t v w x y z A B o q q C C D s o o E F G H u s C I I r C C ",
"                                            J K l L M N O O N M M M N P Q R S T U N N V M M P P W W W X Y Z j M [ P ` M  . .M P ",
"                                            l G ..+.@.#.$.$.$.S S S  .%.&.*.S U =.-.S S ;.@.O >.G O W W d Z T ,.c '.O ).).).).!.",
"                                            x G '.0 x ~.~.{.{.~.~.~.N %.].^.S U /.7 (.(._._.:.x x <.W [.d }.[ G ..| l _._.(.(.|.",
"                                            U @.1.9 x 2.2.{.{.{.3.{.,.N 4.5.J x 6.7.:.(._.x x <.i l W W Y {.[ G ..8 l _.:.(.(.(.",
"                                            S ;.1.8 l _._.(.2.~.(.~.,.,.8.w l :.6.d x 9.:.x i <.i <.0.W Y {.j G ..5 [ <.x x :._.",
"                                            l S 1.8 <._.2.(.(.(._.3.,.j 4.w U a.b.2 <.x x x x <.<.x P P d b [ T 5.6 J x x x x x ",
"                                            U S c.| _.(.{.{.d.2.(.3.G G Q w J :.6.2 U x x :.x x <.U 0.P d Z [ [ ..e.U x (.2.2._.",
"                                            <.S =.0 (.~.{.c f.Z {.Z j G g.w J <.h.7.<.x x x :.x x l 0.0.7.Z S S c.i.x (.2.j.j.{.",
"                                            <.S c.k.l.m.n.o.p.p.p.q.r.j s.*.l <.6.q.t.u.u B t t u n.b.0.6 Z [ S 1.k.p.n.u m.A n.",
"                                            U J v.h.w.h.h.6.b.x.h.6.6.{.y.*.U <.v.z.w.h.6.=.A.+.+.c...l 8 F [ S 1.=.h.=.=.+.+.b.",
"                                            (.G B.2.d.d.d.d.C.d.{.2.2.D.8 *.U G d.d.d.d.}.d.d.2._.<.U S f c <.O 2.2.2.E.E.B.F.~.",
"                                            l a.U U 2.2.:.:.D.x <.x :.U x x x <.:.D.:.U $.a.a.a.a.U ).G S j [ U S U :.:.a.U :.U ",
"                                            b.G.G.G.f f f H.f m m m I.} z.m H J.f h K.L.H.L.H.e H.h g G.x.x.+.x.x.M.m m m f m G.",
"                                            b.j.j.N.'.+.+.b.b.+.O.+.+.v.=.G.P.Q.-.+.R.S.S.R.Q.'.T.T.f.j.Z +.+.d.d.j.f.'.'.+.+.'.",
"                                            Z 8 g.U.| | | 9 V.0 8.Q W.y.8.c.c.U.X.U.i.| i.| 8 8 i.V.9 0 e.x Y.6 a | e.6 e.8 | | ",
"                                            (.I Z.`. +.+.+++.+@+#+$+%+&+*+=+-+;+>+,+'+ +)+!+)+)+ +#+`. +~+c.U r ,+{+)+++]+]+^+/+",
"                                            Y.l j.U (+U U U _+_+_+S _+:+<+[+}+2.c D.2.|+D.1+(+(+S !.!.M 9 =.x S {.S S S S S 2+2+",
"                                            (.1+x.f B.3+3+4+C.3+C.3+(+2+5+6+N.C.I.H 7+7+7+8+3+3+B.9+0+a+9 c.x U h.r.D.|+B.F.B.2.",
"                                            2.:.w.s.{.b+Z c c c F c S G <+c+d.F.I.].j.c c j.Z Z b+d.N M 8 c.:.$.h.Q (.Y.{.Z Z Z ",
"                                            2.:.x.Q 2.{.d.}.Z j.c c S 2+d+c+d.E.r.U.j.F j.d.d.{.d.{. .M 8 '.U $.b.U.:.(.2.2.{.b+",
"                                            _.$.6.8.(.2.d.{.d.Z j.F S G t.6.{.2.w.0 d.Z d.d.d.{.{.2. .M e+'.U $.b.V.x :.2.(.2.{.",
"                                            :.$.=.U.(.2.2.2.{.{.Z F ).G f+c+2.2.w.g+{.d.d.d.d.d.d.(.M  .e+'.U U c.9 h+:.:._.(.(.",
"                                            :.U b.0 2.2.~.{.{.{.{.j.S S t.c+2.2.i+i.2.d.d.d.~.2.2.(. .M 7 ..U U +.i.x :.(.2.(.2.",
"                                            D.$.6.].}.Z Z Z Z j.F f.S !.f+c+:.D.w.9 d.Z j.}.}.d.{.~.M j+7 ..U U v.U.~.{.{.{.{.d.",
"                                            :.).+.p.k+q.l.l.l.l+m+n+2 :+u./.1+<.=.o+p+m+l.o.q+k.l.m+m P 7 ..S ).'.p.l+k.k.k.k.l.",
"                                            U S c.+.v.+.+.+.=.v.=.b.6.~.r+s+l U =.h.h.=.v.1.c.1...f...x e...T ;...'.'.'.'.1.c.1.",
"                                            U @.B.t+B.B.C.C.u+j.u+u+u+C.y A.S @.C.C.4+u+u+u+C.C.B.D.D.v+g c G w+x+D.t+B.B.C.C.C.",
"                                            l :.:.2.2.2.D.D.D.:.(.2.2.:.2.x l _.2.2.2.2.B.2.:.:.D.:.1+).U x [ U U :.2.:.:.1+a.U ",
"                                            y+x.z+P.g K.K.f H.H.h h h } G.G.G.G.m f f h h h f f H.m H G.b.y+x.b.x.G.m H.L.m A+m ",
"                                            E.F.F.C.u+B+y+; +.+.R.+.+.+...h.b.f.C+-.-.-.'.-.'.f.T.u+N.N.d.C.|+2.|+F.C.-.D+E+'.-.",
"                                            [ f 9 e+3 g+F+8 g+g+9 C a X.V.b w 6 i.e+1 h h h h h 1 1 6 7 h x j f i.1 1 e+4 e+e+7 ",
"                                            l P.B q C F+F+F+F+G+C s t t v H+x i.o.n I+q F+F+y y C C p q E F G J+B C F+K+K+K+F+y ",
"                                            J V l L+M N O O N M M M %.P Q A.S T U N N V M M P P W W W M+Y Z j M [ P P M  . . .P ",
"                                            l G ..+.@.N+$.$.$.S ).S  .%.s.A.l U =.-.S S ;.@.O+>.G O W W d Z T O+c '.O ).).).).@.",
"                                            <.@.1.0 9.~.2.{.{.3.~.3.N %.g.A.S U 6.7 (.(._._.x x x <.W [.d Z [ G ..i.U (.:.(.(._.",
"                                            U ;.'.i.x 2.2.{.~.{.~.{.,.N W.A.J <.6.7.x (.:.x x x <.l W W Y {.[ G ..8 l :.:.(.(.(.",
"                                            S ;.'.7 l _.(.(.2.~.2.~.,.N Q A.J :.6.d x _.:.x <.<.l <.W W Y {.G G ..5 [ <.x x :.(.",
"                                            U S 1.7 x _.(.(.(.(.9.3.,.j &.A.U <.=.2 <.x x x x <.<.x P P d Z [ G ..P+J <.x x x x ",
"                                            U S c.| (.2.{.d.d.(.(.~.G G s.A.U a.6.2 <.x x :.x x <.<.W P d Z [ T 1.e.<.x (.(.2._.",
"                                            <.S =.U.2.~.d.f.f.Z b Z G G y.A.J <.h.7.x :.x x x :.x <.Q+0.7.Z S S A.9 x (.2.j.j.d.",
"                                            <.S c.k.l.m.n.o.p.p.p.q.} j y.A.l <.6.q.t.u.u t t t R+n.b.P 6 S+[ S 1.k.m.n.u T+n.n.",
"                                            l N+v.h.U+h.6.b.b.x.h./.h.{.f+/.U U =.w.w.6.=.=.c.c.c.c...l V+S+[ S c.=.6.=.v.+.+.=.",
"                                            (.G E.2.d.d.d.B.d.d.~.2.2.:.7 R U G E.E.d.d.d.d.d.2.:.U N+S I.c <.O W+:.2.E.B.2.B.2.",
"                                            l :.U :.2.2.:.:.D.x <.x :.<.x x x :.:.D.:.a.a.$.a.a.$.U N+@.S j [ U S U :.:.:.U :.<.",
"                                            b.G.G.X+f Y+f L.f } m } f } z.z.m A+f h K.h H.L.H.H.H.h f G.x.x.+.x.x.G.m f A+f m z.",
"                                            b.j.j.f.'.+.+.b.+.c.'.1.c.+.v.z.P.Q.+.Q.S.S.S.S.Q.-.'.'.f.j.j.+.+.d.d.j.f.'.'.+.+.-+",
"                                            }.G.1 J.m m f h h 1 Z+e+g+I 7 b F 1 h H X+G.P.G.z+z+G.G.z+X+> l {.G.K.H P.P.H H.L.h ",
"                                            (.g u s G+4 `+`+y 0 0 G+a G+v  @Z .@l.n.n B o q D o +@t t +@@@..x H #@D y g+g+g+g+`+",
"                                            2.U }+$.1+U U 1+U U U l l j 5+[+j.2.c |+B.|+D.1+$.$@).S S a+9 =.x l d.).).S S S S S ",
"                                            2.:.x.A+9+F.3+C.C.F.C.F.(+[ 5+i+}+C.m H 7+7+7+3+3+3+B.|+@.a+9 c.x U 6.z.D.9+9+F.B.2.",
"                                            2.:.w.s.{.Z Z c c c c c S G <+c+d.F.I.].j.c c j.Z Z Z d.N M 8 c.:.$.h.Q (.{.{.Z Z Z ",
"                                            2.:.x.].2.{.}.}.Z }+}+c S [ d+c+d.B.r.U.j.F j.d.d.{.{.{.V M 7 '.U $.b.U.:.(.2.2.{.d.",
"                                            :.$.h.a 2.2.d.d.d.Z j.F S G t./.{.2.w.y }.Z d.d.d.{.d.2. .M e+..l U =.V.x :.2.(.Y.{.",
"                                            :.U =.U.%@2.2.2.{.{.Z j.).G f+6.2.2.w.g+{.d.d.{.d.d.d.2.M  .7 '.U U c.9 x :._.:.(.(.",
"                                            :.$.=.0 (.2.2.{.{.d.d.j.S S t.c+2.2.w.i.2.d.d.d.{.2.2.(.M M 7 5.l U +.i.x :.%@(.(.2.",
"                                            D.$.6.a d.}.}.}.}.}.j.c S @.t.c+:.:.w.i.{.}.j.d.}.{.{.2.M L+7 '.U U =.0 2.2.2.{.~.{.",
"                                            :.).+.q+k+l.l.l.l.q.m+&@2 N u./.:.<.=.o+*@m+l.o.q+=@l.o+m P 7 .._+).1.p.m+k.p.k.q+l.",
"                                            U S c.+.v.+.+.v.=.=.=.b.6.~.-@s+l N+v.h.h.b.v.c.c.c...5...x e...[ @...'.1.'.1.1.c.c.",
"                                            l @.E.x+B.F.C.7+u+u+u+u+u+C.y =.J @.C.C.7+u+u+u+4+4+E.D.D.v+f c G ;@B.D.|+B.F.C.C.C.",
"                                            [ U U :.:.D.1+$.$.U :.:.D.:.:.l S :.:.:.:.:.2.D.$.U 1+1+U !.).U j S ).U :.$.$.(+).S ",
"                                            5 e+>@i.0 D D V.0 0 8.a ,@'@5 5 5 d 5 7 | i.y i.)@i.0 8 8 5 e 5 !@1 e+7 i.C a i.V.V."};
