/* XPM */
static char * door_2_xpm[] = {
"64 64 321 2",
"  	c None",
". 	c #D6D4D2",
"+ 	c #D5D2D1",
"@ 	c #D3D1CF",
"# 	c #D0CECB",
"$ 	c #CECBC9",
"% 	c #CFCDCB",
"& 	c #CFCCCB",
"* 	c #CFCCCA",
"= 	c #D0CDCC",
"- 	c #D0CECD",
"; 	c #D1D0CF",
"> 	c #CFCECD",
", 	c #D1CFCD",
"' 	c #D3D2CF",
") 	c #D2D0CE",
"! 	c #D0CDCB",
"~ 	c #CFCDCA",
"{ 	c #D0CECC",
"] 	c #D1CECC",
"^ 	c #D3D0CE",
"/ 	c #D5D3D1",
"( 	c #D6D4D1",
"_ 	c #D7D5D3",
": 	c #D4D2CF",
"< 	c #CFCCC9",
"[ 	c #D1CECD",
"} 	c #CECDCC",
"| 	c #D1D0CE",
"1 	c #CECCCA",
"2 	c #D8D8D8",
"3 	c #CBCCCB",
"4 	c #C6C7C7",
"5 	c #C9C9C8",
"6 	c #C9CAC9",
"7 	c #C8C9C7",
"8 	c #C7C7C5",
"9 	c #C8C9C8",
"0 	c #C8C8C8",
"a 	c #C7C8C7",
"b 	c #C7C7C7",
"c 	c #C6C6C6",
"d 	c #C5C6C5",
"e 	c #C4C5C4",
"f 	c #D3D4D4",
"g 	c #D2D2D2",
"h 	c #C9C9C9",
"i 	c #CACBCA",
"j 	c #CBCBCA",
"k 	c #CBCCCA",
"l 	c #CACAC9",
"m 	c #D6D7D7",
"n 	c #D9D9D9",
"o 	c #C8C8C6",
"p 	c #C7C8C8",
"q 	c #C6C7C6",
"r 	c #C4C5C5",
"s 	c #D0D0D0",
"t 	c #C8C8C7",
"u 	c #D7D7D7",
"v 	c #CCCCCB",
"w 	c #C2C2C0",
"x 	c #C4C4C2",
"y 	c #C5C4C3",
"z 	c #C5C5C3",
"A 	c #C6C5C3",
"B 	c #C4C4C3",
"C 	c #C3C3C2",
"D 	c #C2C2C1",
"E 	c #B7B8B8",
"F 	c #D1D2D2",
"G 	c #D6D6D6",
"H 	c #C6C6C5",
"I 	c #BFBFBD",
"J 	c #C1C1BF",
"K 	c #C3C3C1",
"L 	c #C5C5C4",
"M 	c #C4C5C3",
"N 	c #BABBBA",
"O 	c #D2D3D2",
"P 	c #D9D9D8",
"Q 	c #CCCCCA",
"R 	c #C6C5C4",
"S 	c #B6B8B8",
"T 	c #D1D2D3",
"U 	c #D5D5D4",
"V 	c #BDBDBC",
"W 	c #C0C0BE",
"X 	c #D7D8D7",
"Y 	c #DADBDA",
"Z 	c #DBDBDB",
"` 	c #DBDBDA",
" .	c #DADAD9",
"..	c #DADAD8",
"+.	c #DCDCDB",
"@.	c #C3C4C4",
"#.	c #D0D0D1",
"$.	c #D8D8D7",
"%.	c #D8D9D8",
"&.	c #D7D7D6",
"*.	c #DADBD9",
"=.	c #DDDDDC",
"-.	c #DFDFDE",
";.	c #C9CACA",
">.	c #D3D3D3",
",.	c #DBDCDB",
"'.	c #DBDBD9",
").	c #DCDCDC",
"!.	c #C2C3C3",
"~.	c #CFD0D1",
"{.	c #D6D6D5",
"].	c #D1D1D1",
"^.	c #D0D0CF",
"/.	c #D9D9D7",
"(.	c #D7D8D5",
"_.	c #D7D7D5",
":.	c #DADADA",
"<.	c #C3C3C4",
"[.	c #D0D1D1",
"}.	c #CFCFCF",
"|.	c #D1D1CF",
"1.	c #D8D9D7",
"2.	c #DAD9D8",
"3.	c #D9DAD9",
"4.	c #D1D1D0",
"5.	c #D8D8D6",
"6.	c #D9D8D7",
"7.	c #C2C2C3",
"8.	c #CDCECD",
"9.	c #CFCFCE",
"0.	c #D4D5D4",
"a.	c #D4D4D4",
"b.	c #C4C4C4",
"c.	c #D1D1D2",
"d.	c #CECFCF",
"e.	c #D5D5D5",
"f.	c #D5D6D5",
"g.	c #D6D7D6",
"h.	c #DDDDDD",
"i.	c #D3D4D3",
"j.	c #D5D5D6",
"k.	c #D5D6D6",
"l.	c #DBDADA",
"m.	c #CCCDCD",
"n.	c #D0D1D0",
"o.	c #D4D5D5",
"p.	c #C4C4C5",
"q.	c #D1D2D1",
"r.	c #CECFCE",
"s.	c #C8C9C9",
"t.	c #CCCDCC",
"u.	c #D6D7D5",
"v.	c #CFD0D0",
"w.	c #CDCDCD",
"x.	c #D4D4D3",
"y.	c #C1C2C2",
"z.	c #CDCDCC",
"A.	c #D2D2D1",
"B.	c #C3C3C3",
"C.	c #CECECE",
"D.	c #D3D3D2",
"E.	c #CCCCCC",
"F.	c #BFC0BF",
"G.	c #BFBFBE",
"H.	c #C0C1BF",
"I.	c #C1C1C0",
"J.	c #C0C0BF",
"K.	c #BEBFBE",
"L.	c #C0C1C0",
"M.	c #C1C2C1",
"N.	c #BFBFBF",
"O.	c #C0C2C2",
"P.	c #BDBEBD",
"Q.	c #CFD0CF",
"R.	c #CECECD",
"S.	c #C0C1C1",
"T.	c #CECFD0",
"U.	c #D5D5D3",
"V.	c #D4D4D2",
"W.	c #D6D6D4",
"X.	c #D4D5D3",
"Y.	c #D5D4D3",
"Z.	c #D2D3D1",
"`.	c #CBCBC9",
" +	c #CBCBCB",
".+	c #CCCBCA",
"++	c #CACAC8",
"@+	c #CBCAC9",
"#+	c #CDCECC",
"$+	c #D3D2D1",
"%+	c #D1D0D0",
"&+	c #CDCDCB",
"*+	c #D0D0CE",
"=+	c #D0CFCE",
"-+	c #CFCFCD",
";+	c #D2D2D0",
">+	c #CECECC",
",+	c #C5C5C5",
"'+	c #C5C6C6",
")+	c #C2C3C4",
"!+	c #C3C4C3",
"~+	c #D5D4D4",
"{+	c #C2C2C2",
"]+	c #C2C3C2",
"^+	c #BAB8B7",
"/+	c #BDBBBA",
"(+	c #BEBCBB",
"_+	c #BFBEBD",
":+	c #C0BEBD",
"<+	c #BEBDBC",
"[+	c #BDBCBB",
"}+	c #BCBABA",
"|+	c #BBBABA",
"1+	c #BBB9B9",
"2+	c #AFAFB0",
"3+	c #CACBCB",
"4+	c #D2D1D1",
"5+	c #C3C1C0",
"6+	c #B9B7B6",
"7+	c #BBB9B8",
"8+	c #BCBBBA",
"9+	c #BFBDBC",
"0+	c #BFBEBC",
"a+	c #B5B4B4",
"b+	c #BDBBBB",
"c+	c #C0BEBE",
"d+	c #BFBEBE",
"e+	c #BFBDBD",
"f+	c #BDBCBC",
"g+	c #BBBAB9",
"h+	c #AFB0B0",
"i+	c #CBCCCC",
"j+	c #C2C1BF",
"k+	c #B7B5B4",
"l+	c #D8D7D6",
"m+	c #D8D7D7",
"n+	c #DAD9D9",
"o+	c #BFBFC0",
"p+	c #D3D2D2",
"q+	c #D6D5D4",
"r+	c #D7D6D5",
"s+	c #D9D8D8",
"t+	c #BEBFBF",
"u+	c #CBCCCD",
"v+	c #D5D4D2",
"w+	c #D4D3D2",
"x+	c #D4D3D1",
"y+	c #D5D4D1",
"z+	c #D6D5D3",
"A+	c #DAD9D7",
"B+	c #D3D2D0",
"C+	c #D4D3D3",
"D+	c #CDCECE",
"E+	c #C0C0C0",
"F+	c #BFC0C0",
"G+	c #CECECF",
"H+	c #CACACA",
"I+	c #C7C7C6",
"J+	c #D7D6D6",
"K+	c #DCDBDA",
"L+	c #BDBEBC",
"M+	c #BEBFBD",
"N+	c #BEBEBD",
"O+	c #BBBCBB",
"P+	c #BCBDBC",
"Q+	c #BFC0BE",
"R+	c #BEBEBE",
"S+	c #C0C1C2",
"T+	c #CDCFCF",
"U+	c #D6D6D3",
"V+	c #D3D3D1",
"W+	c #D7D7D4",
"X+	c #DADAD7",
"Y+	c #D5D6D3",
"Z+	c #CCCBCB",
"`+	c #D0CFCD",
" @	c #D2D1D0",
".@	c #C6C6C4",
"+@	c #C5C6C4",
"@@	c #D0D2D2",
"#@	c #C4C3C2",
"$@	c #CCCDCB",
"%@	c #C7C6C4",
"&@	c #BEBEBC",
"*@	c #C1C0BF",
"=@	c #C3C2C1",
"-@	c #DBDCDA",
";@	c #DEDFDE",
">@	c #D7D8D6",
",@	c #D9DAD8",
"'@	c #C7C9C8",
")@	c #DCDDDC",
"!@	c #C2C3C1",
"~@	c #D2D3D3",
"{@	c #C7C7C8",
"]@	c #D5D6D4",
"^@	c #CDCCCB",
"/@	c #CBCACA",
"(@	c #C9C9C7",
"_@	c #CAC9C8",
":@	c #C9C8C7",
"<@	c #C8C7C7",
"[@	c #C6C7C5",
"}@	c #CDCECF",
"|@	c #C5C4C2",
"1@	c #C3C4C2",
"2@	c #BABABA",
"3@	c #C4C3C1",
"4@	c #D8D7D5",
"5@	c #BEBEBF",
"6@	c #D6D5D5",
"7@	c #BCBCBB",
"8@	c #BCBDBB",
"9@	c #C1C1C2",
"0@	c #D9DAD7",
"a@	c #C7C8C6",
"b@	c #C4C6C5",
"c@	c #C6C8C7",
"d@	c #C6C8C6",
"e@	c #C9CAC8",
"f@	c #C5C7C6",
"                      . . . + @ # $ % & & * % = - ; > , ' ) # ! ~ ~ * % { ] ) ) ^ / ( _ _ _ / : ] < = = = ! { [ , ; > } | { ~ 1 ",
"                      2 3 4 5 6 7 8 9 0 a b c d e 4 f g 9 a h i j j 3 k j i l 6 9 i m n 3 a 6 l 5 o 5 5 9 p q c r 4 f s b d t 6 ",
"                      u v w x y z A z z z B C D C E F G H I J K x z z L L M B x x N O P Q D B L R R A L L B C C C S T U L V W w ",
"                      X Y u Z `  ..... .` ` `  .+.@.#.$.%.&. . .*.` ` +.+.=.=.=.-.;.>.n ` 2 +.,.` '.'.` +.+.+.Z ).!.~.{.&.U P P ",
"                      u P ].^./.(._._._.$.$.$.'.:.<.[.$.&.}.|.$.$.1./...2.P ..=.=.h >.%.3.g 4...5.5.5.5.6././.` :.7.~.{.{.8.9.&.",
"                      G P 4.d G 0.0.a.a.0.0.0. .:.b.c.$.&.d.a e.e.f.f.{.G G g.=.h.h i.2 P ].4 u f.f.e.e.j.e.k.Y l.!.~.{.f.m.c a.",
"                      &./.n.c G U U a.a.a.o.a.3. .p.q.X G r.s.{.e.f.G G g.m u =.=.;.a.2 P ].b u f.{.e.e.e.k.e.:.:.!.#.{.e.m.a e.",
"                      $.1.n.b u f.f.e.U 0.e.0.3.3.r F u {.r.h G k.{.G m g.m g.).=.;.a.n P ].9 2 g.G G {.f.G f.:.:.!.[.f.0.t.b e.",
"                      u $.n.b g.f.U e.e.e.f.o.3.n p.F &.u.9.6 g.G G G G g.g.G +.+.h f 2 %.q.0 X G G G G G g.k.:.n !.v.U U w.0 {.",
"                      &.$.s 4 f.e.a.a.x.U e.o.P P @.F X {.r.6 &.G G {.G G g.&.).+.h >.2 2 ].p &.G e.U U f.G k. .n y.#.e.U z.a e.",
"                      g.$.}.d e.0.a.g A.>.a.>.n P B.F X g.C.s.g.G G G {.G G u ).).s.>.$.$.s q G e.U D.D.a.e.0. .n y.~.e.U E.a f.",
"                      g.$.s F.G.H.I.W J.J.J.K.E.n !.[.u g.r.K.L.M.D K C C D I.9.).0 >.2 $.n.F.J.I.D H.J I.L.N.8. .O.v.e.e.t.P.F.",
"                      &.X Q.C.w.C.C.r.9.R.C.r.r.a.y.[.&.g.Q.t.w.C.r.}.v.^.^.s ].u b O 2 $.n.}.C.}.}.^.^.9.}.Q.}.e.S.T.U f.8.3 E.",
"                      e.P U.U x.x.x.x.V.x.a.U U W.b [.&.P x.x.x.x.i.x.x.U f.g.&.$.j g g...U U U X.X.U.Y.0.U f.f.{.4 ~.U $.Z.D.D.",
"                      u u.&.&.U U {.{.W.G g.G {.&.G G G g.{.W.{.&._.u.u.u.u.&.5.P $.n 2 &.$.&.{.{.u.&.{.&.u u &.&.G k.U U U.U.U ",
"                      9.z.z.z.j j j `.j v v v  +3 t.v Q .+j l ++@+`.@+`.i `.l k z.R.R.^.R.R.#+v v v j v z.z.z.E.E.z.z.`.l 5 5 5 ",
"                      9.D.D.$+4.^.^.9.9.^.%+^.^.Q.}.z.&+*+|.^.=+-+-+=+*+4.;+;+A.D.>.^.^.x.x.D.A.4.4.^.^.4.].4.4.s Q.v j >+-+9.> ",
"                      >.b B.,+4 4 4 c '+d r @.)+y.r s s ,+!+,+q 4 q 4 b b q '+c d p G ~+0 e 4 p 0 p b 4 4 '+r b.{+'+s }.e ]+,+c ",
"                      e.R ^+/+(+_+_+:+_+<+[+}+|+1+2+3+4+5+6+7+8+(+9+0+9+9+(+[+/+(+a+s &.A 7+b+9+:+c+c+d+e+f+b+|+g+h+i+^.j+k+^+g+",
"                      ~+u D.&.l+&.&.&.m+m+m+$.m+n+o+i+p+U g W.U q+W.r+l+l+$.6.6.` c }.G $.a.$.$.$.$.$.s+s+s+P s+:.t+u+4.V.s Y.Y.",
"                      e.r+R.j U.v+v+w+V.v+V.v+l+s+t+u+$+V. +Q x+x+x+y+v+v+U.z+A+l.c s G &.C.E.W.q+U.Y.U.U U.z+6.P t+m.4.B+h l B+",
"                      U {.w.!.a.C+>.g g g O g $.P o+D+x.Y. +b.D.g g D.>.>.C+x. .` b s {._.C.@.e.~+a.>.>.>.>.>.P P N.C.A.D.h ]+].",
"                      U {.R.@.U a.x.i.>.D.g g $.s+E+D+x.X.E.,+D.O D.x.x.a.x.a.'.` b 4.&._.9.,+{.e.U U a.C+>.>.6.P F+G+A.D.H+!+A.",
"                      f._.r.r e.U x.a.x.>.D.O $.P L.r.a.U w.d x.>.x.x.x.a.a.U '.` t 4.&._.9.'+G {.U e.U a.x.i.P P E+d.p+x. +b.g ",
"                      {._.}.,+e.U U U a.a.>.O 5.P S.D+U U w.I+a.x.x.x.x.x.x.e.` '.t 4.&.&.s c J+{.{.f.e.e.a.x.$.P L.d.D.x. +,+>.",
"                      {.&.9.d U U 0.a.a.a.a.D.$.$.L.D+U U m.q U x.x.x.0.U U e.'.` a ].&.&.^.q G {.e.U e.U U x.P P L.d.>.x. +,+x.",
"                      W._.r.b.i.>.>.>.>.D.O A.$.6.S.D+{.W.w.c x.>.D.i.i.x.a.0.` K+a ].&.&.Q.,+0.a.a.a.a.x.>.D.1.P L.d.x.x. +r >.",
"                      {.5.^.J.L+K.G.G.G.M+N+O+6 n+M.d.r+g.}.P.P+N+G.W Q+F.G.N+v +.a ].$.5.4.J.M+F.F.F.F.G.R+P+ + .S.d.a.U w.P+O+",
"                      &.$.s ^.Q.^.^.^.}.Q.}.9.r.0.S+T+u &.}.C.C.}.Q.n.s n.].A.].G p ].%.1.].4.4.4.4.n.s n.s ^.Q.e.S.d.e.{.8.t.w.",
"                      &./.U.U+U.U.V.V.V+D.V+V+V+V.H v.$./.V.V.w+V+V+V+V.V.U.W.W.W+k g P X+Y+W.U+U.U.V.V.V.V.V.V.U.H v.e.&.;+V+$+",
"                      u {.{.U U U W.W.W.{.e.U U {.U G u f.U U U U U.U {.{.W.{.r+5.&.G 2 &.&.{.U {.{.r+u.&.{.W.W.{.U G e.x.D.x.x.",
"                      >+R.} &+k ++++j `.`.l l l 3 z.z.z.z.v j j l l l j j `.v Q z.9.>+R.9.R.z.v `.@+v Z+v j j  +v z.w.v j l ++l ",
"                      X.Y.Y.V.V+| >+; ^.^.=+^.^.^.].C.9.A.B+|.|.|.4.|.4.A.;+V+$+$+x.V.q+U q+Y.V.|.`+ @4.|.; 4.4.4.].C.z.^.| `+*+",
"                      2 j c t 7 I+.@b I+I+c L e !+'+f F 0 q t 5 l l l l l 5 5 0 a l G n j q 5 5 t 8 t t a q d d b.q f s c L I+t ",
"                      u &+K z L .@.@.@.@+@L B C C E @@G q W w #@z .@.@H H L L y z N O P $@K L .@%@%@%@.@H L B !+B E F U H &@*@=@",
"                      X *.u -@`  ..... .` ` ` :.+.@.v.$.%.&. . .*.` ` +.+.=.=.=.;@;.>.n ` 2 +.+.` '.'.'.+.+.+.` ).!.~.{.u a.P P ",
"                      u P ].^./.>@_._._.$.5.$.'.:.!.v.u &.}.|.$.$.1./.,@2.P ..=.=.h >.%.,@g 4...5.5.5.5././.P ` :.!.~.f.{.8.9.l+",
"                      g./.n.d k.0.U a.a.o.0.o. .:.B.v.$.&.r.a e.e.f.f.G G G g.=.h.h >.2 P ].q &.e.{.e.e.f.f.k.Y l.!.[.{.f.m.c a.",
"                      &.1.4.q G U U a.0.a.0.a.3. .)+v.X g.r.s.G e.{.G G G g.u =.=.;.a.2 P ].b u {.{.e.e.e.f.e.:.:.!.[.{.U m.a e.",
"                      $.1.4.a u f.e.e.U 0.U 0.3. .@.v.X {.r.h G f.{.G g.g.u g.=.=.;.a.P P ].9 2 g.G G {.e.{.f.:. .!.[.f.0.t.a e.",
"                      &.$.n.a G f.e.e.e.e.k.o.3.n <.v.&.g.}.6 g.G G G G g.g.G +.+.h >.2 P ].'@X g.G G G G g.G  .n+!.v.U U w.0 f.",
"                      &.$.s 4 e.U a.x.x.e.e.0.P P !.v.&.u.r.6 g.G G {.G G g.g.=.+.h >.2 %.n.p g.G e.e.U f.G f.3.n 7.#.e.U z.t f.",
"                      g.$.}.,+U 0.x.A.A.>.f >.P P y.v.X g.C.s.G {.G G G {.G g.)@).s.>.$.$.v.c G e.U D.D.x.a.a.3.n y.~.e.U E.b e.",
"                      g.$.s F.G.H.I.W J.J.J.K.3 n y.v.u g.r.K.L.M.D C C C !@I.9.+.0 ~@2 $.n.F.H.I.D *@I.I.I.N.w. .O.v.e.e.m.P.F.",
"                      u >@Q.C.8.C.r.9.9.R.C.d.C.a.S.d.&.&.}.w.w.r.}.}.s s s s ].u {@~@2 $.s }.r.}.Q.^.^.}.}.Q.}.e.S.d.U e.8.i+E.",
"                      e.P X.U x.x.x.U.x.x.0.U U {.a #.&.P X.X.x.x.x.x.x.U {.&.>@$. +g g...]@{.U X.U.U U.U e.{.{.u.b ~.U $.O D.D.",
"                      u {.&.{.U U {.{.W.G g.G {.g.G G G {.{.W.{.u.u._.u.u._.&.>@/.$.n 2 &.$.&.{.{.{.&.{.g.u u &.&.G k.U 0.X.X.U ",
"                      9.z.z.^@j /@j @+j 3 v 3 j 3 t.t.v Z+j l ++l `.@+`.`.`.l j z.R.R.^.R.R.z.v j Z+j v t.z.E.E.E.t.z.j l 5 5 5 ",
"                      9.D.D.A.4.^.^.9.^.s 4.n.s ^.Q.t.&+*+^.*+-+-+-+-+*+|.4.4.A.D.D.^.^.x.x.D.A.4.4.^.^.4+A.q.].n.Q.E.j >+R.> >+",
"                      i.z.5 .+v v j l l 5 (@t I+R a f O 5 l Q ^@z.&+z.} } z.z.} ^@> u a.z.++Q &+&+Q `.@+l _@:@t H t >.s <@t @+.+",
"                      e.k D B +@8 [@[@H d d +@e +@E }@>.|@G.I.w K x z M x 1@C C 1@2@].G Q ]+M H I+I+I+I+[@[@H d H E }@].3@L+Q+J ",
"                      U &.p+_.r+&.&.r+&.&.&.u u n t+i+D.U g q+U.q+W.r+_.4@5.$.$.l.c }.G u x.5.5.$.$.$.$.$.$.2 2 n+5@u+4.x.s Y.V.",
"                      U {.R.Z+z+Y.v+V.V.Y.V.Y.l+2 t+m.p+V.v Q x+x+x+v+v+v+U.q+/.l.c s G &.r.t.W.z+z+Y.U.U U.q+6.P t+m.4.B+h @+B+",
"                      U {.w.!.a.>.>.g g g g g $.P o+D+x.Y. +b.D.g g D.>.>.>.x. .` b s {._.C.@.e.a.a.>.>.>.>.>.P P N.D+A.D.h {+].",
"                      U {.R.b.U a.i.i.>.p+p+g $.2 E+D+x.U.E.,+D.O D.x.x.a.a.a.*.` a 4.&._.9.,+{.e.U U a.x.>.>.s+P F+G+Z.D.H+!+A.",
"                      {._.C.e U U x.x.x.>.D.O $.P L.d.a.U w.H i.>.x.x.x.a.x.U '.` t ].u &.}.'+G {.U e.~+a.x.i.P P E+d.p+V. +b.O ",
"                      {.&.}.,+6@U U U a.a.>.D.5.P S.r.U U w.I+a.x.x.a.x.x.x.U ` '.a 4.&.&.s c G {.f.{.e.e.a.x.$.P E+d.D.x.3 ,+>.",
"                      {._.}.d e.U U a.a.x.x.D.$.$.L.D+U U w.q U x.x.x.a.U U e.` ` a q.u &.^.q G {.6@e.e.U e.x././.L.d.>.x. +,+x.",
"                      W._.r.e x.i.i.i.i.i.D.g $./.L.D+{.{.w.q a.i.D.x.i.a.a.U ` -@a 4.&.&.}.d U U U a.0.a.x.>.1./.L.d.x.x. +,+>.",
"                      {.5.^.Q+L+G.G.G.G.K.N+7@6  .M.d.{.g.}.P.V N+G.W Q+N.G.P.v +.a ].m+5.n.J.N+F.J.F.Q+G.N+8@j  .S.d.x.U w.P+O+",
"                      &.$.s ^.Q.^.^.Q.}.}.}.9.r.0.9@T+u >@Q.C.C.9.Q.s s s ].q.].G p ].2 /.].4.n.4.n.n.s s s ^.Q.e.S.d.e.{.8.z.w.",
"                      u /.X.Y+U.Y.V.x+V+V+V+V+V+V.H }.X /.V.V.x+V+V+V+w+w+X.W.W.W+j g P 0@U.W.q+U.Y.V.V.V.V.V.V.Y.H v.e.&.;+V+$+",
"                      2 &.&.{.{.W.r+_._.&.{.{.W.{.{.u $.{.{.{.{.{.U W._.&.r+r+&.6.5.&.n $.5.&.{._._.l+5.$.&.{.u.&.{.u G x.x.X.U ",
"                      9 t a@q d M M '+d d r e b@c@9 9 9 h 9 a 4 q H q d@q d b b 9 i 9 e@5 t a q L e q '+'+d d f@p 9 s.a a q '+f@"};
