/* XPM */
static char * door_test_xpm[] = {
"64 64 337 2",
"  	c #D6D4D2",
". 	c #D5D2D1",
"+ 	c #D3D1CF",
"@ 	c #D0CECB",
"# 	c #CECBC9",
"$ 	c #CFCDCB",
"% 	c #CFCCCB",
"& 	c #CFCCCA",
"* 	c #D0CDCC",
"= 	c #D0CECD",
"- 	c #D1D0CF",
"; 	c #CFCECD",
"> 	c #D1CFCD",
", 	c #D3D2CF",
"' 	c #D2D0CE",
") 	c #D0CDCB",
"! 	c #CFCDCA",
"~ 	c #D0CECC",
"{ 	c #D1CECC",
"] 	c #D3D0CE",
"^ 	c #D5D3D1",
"/ 	c #D6D4D1",
"( 	c #D7D5D3",
"_ 	c #D4D2CF",
": 	c #CFCCC9",
"< 	c #D1CECD",
"[ 	c #CECDCC",
"} 	c #D1D0CE",
"| 	c #CECCCA",
"1 	c #CECCC9",
"2 	c #D4D2D0",
"3 	c #D8D8D8",
"4 	c #CBCCCB",
"5 	c #C6C7C7",
"6 	c #C9C9C8",
"7 	c #C9CAC9",
"8 	c #C8C9C7",
"9 	c #C7C7C5",
"0 	c #C8C9C8",
"a 	c #C8C8C8",
"b 	c #C7C8C7",
"c 	c #C7C7C7",
"d 	c #C6C6C6",
"e 	c #C5C6C5",
"f 	c #C4C5C4",
"g 	c #D3D4D4",
"h 	c #D2D2D2",
"i 	c #C9C9C9",
"j 	c #CACBCA",
"k 	c #CBCBCA",
"l 	c #CBCCCA",
"m 	c #CACAC9",
"n 	c #D6D7D7",
"o 	c #D9D9D9",
"p 	c #C8C8C6",
"q 	c #C7C8C8",
"r 	c #C6C7C6",
"s 	c #C4C5C5",
"t 	c #D0D0D0",
"u 	c #C8C8C7",
"v 	c #CACACA",
"w 	c #C9CAC8",
"x 	c #D5D5D5",
"y 	c #D7D7D7",
"z 	c #CCCCCB",
"A 	c #C2C2C0",
"B 	c #C4C4C2",
"C 	c #C5C4C3",
"D 	c #C5C5C3",
"E 	c #C6C5C3",
"F 	c #C4C4C3",
"G 	c #C3C3C2",
"H 	c #C2C2C1",
"I 	c #B7B8B8",
"J 	c #D1D2D2",
"K 	c #D6D6D6",
"L 	c #C6C6C5",
"M 	c #BFBFBD",
"N 	c #C1C1BF",
"O 	c #C3C3C1",
"P 	c #C5C5C4",
"Q 	c #C4C5C3",
"R 	c #BABBBA",
"S 	c #D2D3D2",
"T 	c #D9D9D8",
"U 	c #CCCCCA",
"V 	c #C6C5C4",
"W 	c #B6B8B8",
"X 	c #D1D2D3",
"Y 	c #D5D5D4",
"Z 	c #BDBDBC",
"` 	c #C0C0BE",
" .	c #C3C2C1",
"..	c #B9BAB9",
"+.	c #D1D1D1",
"@.	c #D7D8D7",
"#.	c #DADBDA",
"$.	c #DBDBDB",
"%.	c #DBDBDA",
"&.	c #DADAD9",
"*.	c #DADAD8",
"=.	c #DCDCDB",
"-.	c #C3C4C4",
";.	c #D0D0D1",
">.	c #D8D8D7",
",.	c #D8D9D8",
"'.	c #D7D7D6",
").	c #DADBD9",
"!.	c #DDDDDC",
"~.	c #DFDFDE",
"{.	c #C9CACA",
"].	c #D3D3D3",
"^.	c #DBDCDB",
"/.	c #DBDBD9",
"(.	c #DCDCDC",
"_.	c #C2C3C3",
":.	c #CFD0D1",
"<.	c #D6D6D5",
"[.	c #DDDDDD",
"}.	c #D0D0CF",
"|.	c #D9D9D7",
"1.	c #D7D8D5",
"2.	c #D7D7D5",
"3.	c #DADADA",
"4.	c #C3C3C4",
"5.	c #D0D1D1",
"6.	c #CFCFCF",
"7.	c #D1D1CF",
"8.	c #D8D9D7",
"9.	c #DAD9D8",
"0.	c #D9DAD9",
"a.	c #D1D1D0",
"b.	c #D8D8D6",
"c.	c #D9D8D7",
"d.	c #C2C2C3",
"e.	c #CDCECD",
"f.	c #CFCFCE",
"g.	c #D2D2D1",
"h.	c #D4D5D4",
"i.	c #D4D4D4",
"j.	c #C4C4C4",
"k.	c #D1D1D2",
"l.	c #CECFCF",
"m.	c #D5D6D5",
"n.	c #D6D7D6",
"o.	c #D3D4D3",
"p.	c #D5D5D6",
"q.	c #D5D6D6",
"r.	c #DBDADA",
"s.	c #CCCDCD",
"t.	c #C8C9C9",
"u.	c #D0D1D0",
"v.	c #D4D5D5",
"w.	c #C4C4C5",
"x.	c #D1D2D1",
"y.	c #CECFCE",
"z.	c #CCCDCC",
"A.	c #D2D3D3",
"B.	c #D6D7D5",
"C.	c #CFD0D0",
"D.	c #CDCDCD",
"E.	c #D4D4D3",
"F.	c #C1C2C2",
"G.	c #CDCDCC",
"H.	c #C3C3C3",
"I.	c #CECECE",
"J.	c #D3D3D2",
"K.	c #CCCCCC",
"L.	c #BFC0BF",
"M.	c #BFBFBE",
"N.	c #C0C1BF",
"O.	c #C1C1C0",
"P.	c #C0C0BF",
"Q.	c #BEBFBE",
"R.	c #C0C1C0",
"S.	c #C1C2C1",
"T.	c #BFBFBF",
"U.	c #C0C2C2",
"V.	c #BDBEBD",
"W.	c #C1C2C0",
"X.	c #CECDCD",
"Y.	c #CFD0CF",
"Z.	c #CECECD",
"`.	c #C0C1C1",
" +	c #CECFD0",
".+	c #D5D5D3",
"++	c #D4D4D2",
"@+	c #D6D6D4",
"#+	c #D4D5D3",
"$+	c #D5D4D3",
"%+	c #D2D3D1",
"&+	c #D5D6D4",
"*+	c #CBCBC9",
"=+	c #CBCBCB",
"-+	c #CCCBCA",
";+	c #CACAC8",
">+	c #CBCAC9",
",+	c #CDCECC",
"'+	c #CAC9C8",
")+	c #CACBC9",
"!+	c #D3D2D1",
"~+	c #D1D0D0",
"{+	c #CDCDCB",
"]+	c #D0D0CE",
"^+	c #D0CFCE",
"/+	c #CFCFCD",
"(+	c #D2D2D0",
"_+	c #CECECC",
":+	c #D3D2D2",
"<+	c #C5C5C5",
"[+	c #C5C6C6",
"}+	c #C2C3C4",
"|+	c #C3C4C3",
"1+	c #D5D4D4",
"2+	c #C2C2C2",
"3+	c #C2C3C2",
"4+	c #BAB8B7",
"5+	c #BDBBBA",
"6+	c #BEBCBB",
"7+	c #BFBEBD",
"8+	c #C0BEBD",
"9+	c #BEBDBC",
"0+	c #BDBCBB",
"a+	c #BCBABA",
"b+	c #BBBABA",
"c+	c #BBB9B9",
"d+	c #AFAFB0",
"e+	c #CACBCB",
"f+	c #D2D1D1",
"g+	c #C3C1C0",
"h+	c #B9B7B6",
"i+	c #BBB9B8",
"j+	c #BCBBBA",
"k+	c #BFBDBC",
"l+	c #BFBEBC",
"m+	c #B5B4B4",
"n+	c #BDBBBB",
"o+	c #C0BEBE",
"p+	c #BFBEBE",
"q+	c #BFBDBD",
"r+	c #BDBCBC",
"s+	c #BBBAB9",
"t+	c #AFB0B0",
"u+	c #CBCCCC",
"v+	c #C2C1BF",
"w+	c #B7B5B4",
"x+	c #BEBDBB",
"y+	c #BCBAB9",
"z+	c #B4B3B3",
"A+	c #D8D7D6",
"B+	c #D8D7D7",
"C+	c #DAD9D9",
"D+	c #BFBFC0",
"E+	c #D6D5D4",
"F+	c #D7D6D5",
"G+	c #D9D8D8",
"H+	c #BEBFBF",
"I+	c #CBCCCD",
"J+	c #D8D7D5",
"K+	c #DBDAD9",
"L+	c #D5D4D2",
"M+	c #D4D3D2",
"N+	c #D4D3D1",
"O+	c #D5D4D1",
"P+	c #D6D5D3",
"Q+	c #DAD9D7",
"R+	c #D3D2D0",
"S+	c #D9D8D6",
"T+	c #D4D3D3",
"U+	c #CDCECE",
"V+	c #C0C0C0",
"W+	c #BFC0C0",
"X+	c #CECECF",
"Y+	c #C7C7C6",
"Z+	c #D7D6D6",
"`+	c #DCDBDA",
" @	c #BDBEBC",
".@	c #BEBFBD",
"+@	c #BEBEBD",
"@@	c #BBBCBB",
"#@	c #BCBDBC",
"$@	c #BFC0BE",
"%@	c #BEBEBE",
"&@	c #C0C1C2",
"*@	c #CDCFCF",
"=@	c #D6D6D3",
"-@	c #D3D3D1",
";@	c #D7D7D4",
">@	c #DADAD7",
",@	c #D5D6D3",
"'@	c #CCCBCB",
")@	c #D0CFCD",
"!@	c #D2D1D0",
"~@	c #C6C6C4",
"{@	c #C7C8C6",
"]@	c #C5C6C4",
"^@	c #D0D2D2",
"/@	c #C4C3C2",
"(@	c #CCCDCB",
"_@	c #C7C6C4",
":@	c #BEBEBC",
"<@	c #C1C0BF",
"[@	c #DBDCDA",
"}@	c #DEDFDE",
"|@	c #DEDDDD",
"1@	c #D7D8D6",
"2@	c #D9DAD8",
"3@	c #DCDCDA",
"4@	c #C7C9C8",
"5@	c #DCDDDC",
"6@	c #C8C8C9",
"7@	c #C2C3C1",
"8@	c #C7C7C8",
"9@	c #CDCCCB",
"0@	c #CBCACA",
"a@	c #C9C9C7",
"b@	c #C9C8C7",
"c@	c #C8C7C7",
"d@	c #C6C7C5",
"e@	c #CDCECF",
"f@	c #C5C4C2",
"g@	c #C3C4C2",
"h@	c #BABABA",
"i@	c #C4C3C1",
"j@	c #C2C1C0",
"k@	c #B9B9B8",
"l@	c #BEBEBF",
"m@	c #D6D5D5",
"n@	c #BCBCBB",
"o@	c #BCBDBB",
"p@	c #C1C1C2",
"q@	c #D9DAD7",
"r@	c #D3D4D2",
"s@	c #C4C6C5",
"t@	c #C6C8C7",
"u@	c #C6C8C6",
"v@	c #C5C7C6",
"      . + @ # $ % % & $ * = - ; > , ' @ ) ! ! & $ ~ { ' ' ] ^ / ( ( ( ^ _ { : * * * ) ~ < > - ; [ } ~ ! | 1 1 # | $ $ > > > 2 2 ",
"3 4 5 6 7 8 9 0 a b c d e f 5 g h 0 b i j k k 4 l k j m 7 0 j n o 4 b 7 m 6 p 6 6 0 q r d s 5 g t c e u 7 m v j m m w 6 0 b 7 x ",
"y z A B C D E D D D F G H G I J K L M N O B D D P P Q F B B R S T U H F P V V E P P F G G G W X Y P Z ` A G B B F F B G  .O ..+.",
"@.#.y $.%.&.*.*.&.%.%.%.&.=.-.;.>.,.'.&.&.).%.%.=.=.!.!.!.~.{.].o %.3 =.^.%././.%.=.=.=.$.(._.:.<.'.Y T T &.&.&.%.%.=.=.=.[.i +.",
"y T +.}.|.1.2.2.2.>.>.>./.3.4.5.>.'.6.7.>.>.8.|.*.9.T *.!.!.i ].,.0.h a.*.b.b.b.b.c.|.|.%.3.d.:.<.<.e.f.'.'.b.b.|.c.>.|.=.=.0 g.",
"K T a.e K h.h.i.i.h.h.h.&.3.j.k.>.'.l.b x x m.m.<.K K n.!.[.i o.3 T +.5 y m.m.x x p.x q.#.r._.:.<.m.s.d i.i.h.Y Y x x m.=.(.t.h ",
"'.|.u.d K Y Y i.i.i.v.i.0.&.w.x.@.K y.t.<.x m.K K n.n y !.!.{.i.3 T +.c y m.<.x x x q.x 3.3._.;.<.x s.b x i.h.x x x m.K ^.=.i S ",
">.8.u.c y m.m.x Y h.x h.0.0.s J y <.y.i K q.<.K n n.n n.(.!.{.i.o T +.0 3 n.K K <.m.K m.3.3._.5.m.h.z.c x h.Y x K m.K x $.=.i A.",
"y >.u.c n.m.Y x x x m.v.0.o w.J '.B.f.7 n.K K K K n.n.K =.=.i g 3 ,.x.a @.K K K K K n.q.3.o _.C.Y Y D.a <.x x x x x x x %.%.a h ",
"'.>.t 5 m.x i.i.E.Y x v.T T -.J @.<.y.7 '.K K <.K K n.'.(.=.i ].3 3 +.q '.K x Y Y m.K q.&.o F.;.x Y G.b x x x Y x x m.m.$.%.0 h ",
"n.>.6.e x h.i.h g.].i.].o T H.J @.n.I.t.n.K K K <.K K y (.(.t.].>.>.t r K x Y J.J.i.x h.&.o F.:.x Y K.b m.x x x x x x K $.$.a x.",
"n.>.t L.M.N.O.` P.P.P.Q.K.o _.5.y n.y.Q.R.S.H O G G H O.f.(.a ].3 >.u.L.P.O.H N.N O.R.T.e.&.U.C.x x z.V.L.O.O.H H H W.P.X.$.q k.",
"'.@.Y.I.D.I.I.y.f.Z.I.y.y.i.F.5.'.n.Y.z.D.I.y.6.C.}.}.t +.y c S 3 >.u.6.I.6.6.}.}.f.6.Y.6.x `. +Y m.e.4 K.D.e.Z.6.y.f.6.t K 5 +.",
"x T .+Y E.E.E.E.++E.i.Y Y @+c 5.'.T E.E.E.E.o.E.E.Y m.n.'.>.k h n.*.Y Y Y #+#+.+$+h.Y m.m.<.5 :.Y >.%+J.J.S S J.J.E.h.&+<.'.v 5.",
"y B.'.'.Y Y <.<.@+K n.K <.'.K K K n.<.@+<.'.2.B.B.B.B.'.b.T >.o 3 '.>.'.<.<.B.'.<.'.y y '.'.K q.Y Y .+.+Y <.m.@+&+Y @+<.2.>.'.>.",
"f.G.G.G.k k k *+k z z z =+4 z.z U -+k m ;+>+*+>+*+j *+m l G.Z.Z.}.Z.Z.,+z z z k z G.G.G.K.K.G.G.*+m 6 6 6 '+;+'+;+;+;+6 )+z G.G.",
"f.J.J.!+a.}.}.f.f.}.~+}.}.Y.6.G.{+]+7.}.^+/+/+^+]+a.(+(+g.J.].}.}.E.E.J.g.a.a.}.}.a.+.a.a.t Y.z k _+/+f.; _+_+; /+}.- 7.a.g.:+f.",
"].c H.<+5 5 5 d [+e s -.}+F.s t t <+|+<+r 5 r 5 c c r [+d e q K 1+a f 5 q a q c 5 5 [+s j.2+[+t 6.f 3+<+d r r 5 5 d d e [+s 5 x ",
"x V 4+5+6+7+7+8+7+9+0+a+b+c+d+e+f+g+h+i+j+6+k+l+k+k+6+0+5+6+m+t '.E i+n+k+8+o+o+p+q+r+n+b+s+t+u+}.v+w+4+s+n+6+9+x+6+5+5+y+5+z+I.",
"1+y J.'.A+'.'.'.B+B+B+>.B+C+D+u+:+Y h @+Y E+@+F+A+A+>.c.c.%.d 6.K >.i.>.>.>.>.>.G+G+G+T G+3.H+I+a.++t $+$+$+.+E+F+F+J+A+A+K+d D.",
"x F+Z.k .+L+L+M+++L+++L+A+G+H+I+!+++=+U N+N+N+O+L+L+.+P+Q+r.d t K '.I.K.@+E+.+$+.+Y .+P+c.T H+s.a.R+i m R+R+R+N+N+N+++L+S+&.d I.",
"Y <.D._.i.T+].h h h S h >.T D+U+E.$+=+j.J.h h J.].].T+E.&.%.c t <.2.I.-.x 1+i.].].].].].T T T.I.g.J.i 3++.a.+.g.h h h J.T &.d f.",
"Y <.Z.-.Y i.E.o.].J.h h >.G+V+U+E.#+K.<+J.S J.E.E.i.E.i./.%.c a.'.2.f.<+<.x Y Y i.T+].].c.T W+X+g.J.v |+g.+.g.S J.].J.].T K+Y+6.",
"m.2.y.s x Y E.i.E.].J.S >.T R.y.i.Y D.e E.].E.E.E.i.i.Y /.%.u a.'.2.f.[+K <.Y x Y i.E.o.T T V+l.:+E.=+j.h h J.J.J.].].E.*.&.b 6.",
"<.2.6.<+x Y Y Y i.i.].S b.T `.U+Y Y D.Y+i.E.E.E.E.E.E.x %./.u a.'.'.t d Z+<.<.m.x x i.E.>.T R.l.J.E.=+<+].J.J.].J.J.J.E.&.*.b 6.",
"<.'.f.e Y Y h.i.i.i.i.J.>.>.R.U+Y Y s.r Y E.E.E.h.Y Y x /.%.b +.'.'.}.r K <.x Y x Y Y E.T T R.l.].E.=+<+E.J.J.J.].E.E.i.*.&.c t ",
"@+2.y.j.o.].].].].J.S g.>.c.`.U+<.@+D.d E.].J.o.o.E.i.h.%.`+b +.'.'.Y.<+h.i.i.i.i.E.].J.8.T R.l.E.E.=+s ].S g.%+h ].].o.&./.c }.",
"<.b.}.P. @Q.M.M.M..@+@@@7 C+S.l.F+n.6.V.#@+@M.` $@L.M.+@z =.b +.>.b.a.P..@L.L.L.L.M.%@#@=+&.`.l.i.Y D.#@@@Z +@M..@Q.+@Z m %.Y+Y.",
"'.>.t }.Y.}.}.}.6.Y.6.f.y.h.&@*@y '.6.I.I.6.Y.u.t u.+.g.+.K q +.,.8.+.a.a.a.a.u.t u.t }.Y.x `.l.x <.e.z.D.I.y.Y.6.6.t a.}.Y c Y.",
"'.|..+=@.+.+++++-@J.-@-@-@++L C.>.|.++++M+-@-@-@++++.+@+@+;@l h T >@,@@+=@.+.+++++++++++++.+L C.x '.(+-@!+(+(+(+-@-@++.+.+@+*+u.",
"y <.<.Y Y Y @+@+@+<.x Y Y <.Y K y m.Y Y Y Y .+Y <.<.@+<.F+b.'.K 3 '.'.<.Y <.<.F+B.'.<.@+@+<.Y K x E.J.E.E.E.++E.Y Y .+Y Y 2.<.x ",
"_+Z.[ {+l ;+;+k *+*+m m m 4 G.G.G.G.z k k m m m k k *+z U G.f._+Z.f.Z.G.z *+>+z '@z k k =+z G.D.z k m ;+m 6 6 6 m m ;+k *+z /+{+",
"#+$+$+++-@} _+- }.}.^+}.}.}.+.I.f.g.R+7.7.7.a.7.a.g.(+-@!+!+E.++E+Y E+$+++7.)@!@a.7.- a.a.a.+.I.G.}.} )@]+]+]+]+- a.7.(+!@!@J.-@",
"3 k d u 8 Y+~@c Y+Y+d P f |+[+g J a r u 6 m m m m m 6 6 a b m K o k r 6 6 u 9 u u b r e e j.r g t d P Y+u 6 6 w 6 6 u u {@r 0 x ",
"y {+O D P ~@~@~@~@]@P F G G I ^@K r ` A /@D ~@~@L L P P C D R S T (@O P ~@_@_@_@~@L P F |+F I J Y L :@<@ .B C D P P F B B B ..+.",
"@.).y [@%.&.*.*.&.%.%.%.3.=.-.C.>.,.'.&.&.).%.%.=.=.!.!.!.}@{.].o %.3 =.=.%./././.=.=.=.%.(._.:.<.y i.T T 0.&.&.%.%.=.=.=.|@i +.",
"y T +.}.|.1@2.2.2.>.b.>./.3._.C.y '.6.7.>.>.8.|.2@9.T *.!.!.i ].,.2@h a.*.b.b.b.b.|.|.T %.3._.:.m.<.e.f.A+2.1@b.|.c.>.|.3@=.0 h ",
"n.|.u.e q.h.Y i.i.v.h.v.&.3.H.C.>.'.y.b x x m.m.K K K n.!.[.i ].3 T +.r '.x <.x x m.m.q.#.r._.5.<.m.s.d i.i.h.h.Y x x x =.(.t.h ",
"'.8.a.r K Y Y i.h.i.h.i.0.&.}+C.@.n.y.t.K x <.K K K n.y !.!.{.i.3 T +.c y <.<.x x x m.x 3.3._.5.<.Y s.b x i.v.x x m.m.K ^.=.i A.",
">.8.a.b y m.x x Y h.Y h.0.&.-.C.@.<.y.i K m.<.K n.n.y n.!.!.{.i.T T +.0 3 n.K K <.x <.m.3.&._.5.m.h.z.b x Y Y x m.m.q.m.$.=.i A.",
"'.>.u.b K m.x x x x q.v.0.o 4.C.'.n.6.7 n.K K K K n.n.K =.=.i ].3 T +.4@@.n.K K K K n.K &.C+_.C.Y Y D.a m.x x x x K m.x %.%.a h ",
"'.>.t 5 x Y i.E.E.x x h.T T _.C.'.B.y.7 n.K K <.K K n.n.!.=.i ].3 ,.u.q n.K x x Y m.K m.0.o d.;.x Y G.u m.x x Y x x m.m.%.%.a h ",
"n.>.6.<+Y h.E.g.g.].g ].T T F.C.@.n.I.t.K <.K K K <.K n.5@(.t.].>.>.C.d K x Y J.J.E.i.i.0.o F.:.x Y K.c x x x x Y Y x <.$.$.6@J ",
"n.>.t L.M.N.O.` P.P.P.Q.4 o F.C.y n.y.Q.R.S.H G G G 7@O.f.=.a A.3 >.u.L.N.O.H <@O.O.O.T.D.&.U.C.x x s.V.L.R.O.H H H A P.G.$.q +.",
"y 1@Y.I.e.I.y.f.f.Z.I.l.I.i.`.l.'.'.6.D.D.y.6.6.t t t t +.y 8@A.3 >.t 6.y.6.Y.}.}.6.6.Y.6.x `.l.Y x e.u+K.e.U+I.6.6.6.6.t K 5 +.",
"x T #+Y E.E.E..+E.E.h.Y Y <.b ;.'.T #+#+E.E.E.E.E.Y <.'.1@>.=+h n.*.&+<.Y #+.+Y .+Y x <.<.B.c :.Y >.S J.J.J.S J.].E.Y <.2.'.j +.",
"y <.'.<.Y Y <.<.@+K n.K <.n.K K K <.<.@+<.B.B.2.B.B.2.'.1@|.>.o 3 '.>.'.<.<.<.'.<.n.y y '.'.K q.Y h.#+#+Y Y m.&+Y Y &+<.<.b.'.3 ",
"f.G.G.9@k 0@k >+k 4 z 4 k 4 z.z.z '@k m ;+m *+>+*+*+*+m k G.Z.Z.}.Z.Z.G.z k '@k z z.G.K.K.K.z.G.k m 6 6 6 '+;+;+;+m w 6 )+z G.G.",
"f.J.J.g.a.}.}.f.}.t a.u.t }.Y.z.{+]+}.]+/+/+/+/+]+7.a.a.g.J.J.}.}.E.E.J.g.a.a.}.}.f+g.x.+.u.Y.K.k _+Z.; _+_+_+_+/+]+}.- a.f+g.f.",
"o.G.6 -+z z k m m 6 a@u Y+V b g S 6 m U 9@G.{+G.[ [ G.G.[ 9@; y i.G.;+U {+{+U *+>+m '+b@u L u ].t c@u >+-+U U z 9@z z z 9@-+G.K ",
"x l H F ]@9 d@d@L e e ]@f ]@I e@].f@M.O.A O B D Q B g@G G g@h@+.K U 3+Q L Y+Y+Y+Y+d@d@L e L I e@+.i@ @$@N j@O B G O 7@H H 7@k@6.",
"Y '.:+2.F+'.'.F+'.'.'.y y o H+u+J.Y h E+.+E+@+F+2.J+b.>.>.r.d 6.K y E.b.b.>.>.>.>.>.>.3 3 C+l@I+a.E.t $+++$+.+E+E+F+F+'.'.C+<+D.",
"Y <.Z.'@P+$+L+++++$+++$+A+3 H+s.:+++z U N+N+N+L+L+L+.+E+|.r.d t K '.y.z.@+P+P+$+.+Y .+E+c.T H+s.a.R+i >+R+R+R+N+N+N+L+$+b.&.L I.",
"Y <.D._.i.].].h h h h h >.T D+U+E.$+=+j.J.h h J.].].].E.&.%.c t <.2.I.-.x i.i.].].].].].T T T.U+g.J.i 2++.a.+.g.h h S J.T &.d f.",
"Y <.Z.j.Y i.o.o.].:+:+h >.3 V+U+E..+K.<+J.S J.E.E.i.i.i.).%.b a.'.2.f.<+<.x Y Y i.E.].].G+T W+X+%+J.v |+g.+.g.J.J.].J.].T &.c 6.",
"<.2.I.f Y Y E.E.E.].J.S >.T R.l.i.Y D.L o.].E.E.E.i.E.Y /.%.u +.y '.6.[+K <.Y x 1+i.E.o.T T V+l.:+++=+j.S h J.J.J.].J.E.*.&.c 6.",
"<.'.6.<+m@Y Y Y i.i.].J.b.T `.y.Y Y D.Y+i.E.E.i.E.E.E.Y %./.b a.'.'.t d K <.m.<.x x i.E.>.T V+l.J.E.4 <+].J.J.].J.J.J.E.&.*.c 6.",
"<.2.6.e x Y Y i.i.E.E.J.>.>.R.U+Y Y D.r Y E.E.E.i.Y Y x %.%.b x.y '.}.r K <.m@x x Y x E.|.|.R.l.].E.=+<+E.J.J.J.J.E.E.i.*.&.c t ",
"@+2.y.f E.o.o.o.o.o.J.h >.|.R.U+<.<.D.r i.o.J.E.o.i.i.Y %.[@b a.'.'.6.e Y Y Y i.h.i.E.].8.|.R.l.E.E.=+<+].S S J.S ].].o.&.%.c }.",
"<.b.}.$@ @M.M.M.M.Q.+@n@7 &.S.l.<.n.6.V.Z +@M.` $@T.M.V.z =.b +.B+b.u.P.+@L.P.L.$@M.+@o@k &.`.l.E.Y D.#@@@Z +@M .@%@+@Z m %.c Y.",
"'.>.t }.Y.}.}.Y.6.6.6.f.y.h.p@*@y 1@Y.I.I.f.Y.t t t +.x.+.K q +.3 |.+.a.u.a.u.u.t t t }.Y.x `.l.x <.e.G.D.Z.y.6.Y.6.t t }.x b Y.",
"y |.#+,@.+$+++N+-@-@-@-@-@++L 6.@.|.++++N+-@-@-@M+M+#+@+@+;@k h T q@.+@+E+.+$+++++++++++++$+L C.x '.(+-@!+(+(+(+-@-@r@.+.+=@)+u.",
"3 '.'.<.<.@+F+2.2.'.<.<.@+<.<.y >.<.<.<.<.<.Y @+2.'.F+F+'.c.b.'.o >.b.'.<.2.2.A+b.>.'.<.B.'.<.y K E.E.#+Y Y E..+@+<.&+@+<.A+2.<.",
"0 u {@r e Q Q [+e e s f s@t@0 0 0 i 0 b 5 r L r u@r e c c 0 j 0 w 6 u b r P f r [+[+e e v@q 0 t.b b r [+v@e <+<+d@e s [+d b 7 u "};
