/* XPM */
static char * door_5_xpm[] = {
"64 64 280 2",
"  	c None",
". 	c #D6D4D2",
"+ 	c #D5D2D1",
"@ 	c #D3D1CF",
"# 	c #D0CECB",
"$ 	c #CECBC9",
"% 	c #CFCDCB",
"& 	c #CFCCCB",
"* 	c #CFCCCA",
"= 	c #D0CDCC",
"- 	c #D0CECD",
"; 	c #D1D0CF",
"> 	c #CFCECD",
", 	c #D1CFCD",
"' 	c #D3D2CF",
") 	c #D2D0CE",
"! 	c #D0CDCB",
"~ 	c #CFCDCA",
"{ 	c #D0CECC",
"] 	c #D1CECC",
"^ 	c #D3D0CE",
"/ 	c #D5D3D1",
"( 	c #D6D4D1",
"_ 	c #D7D5D3",
": 	c #D8D8D8",
"< 	c #CBCCCB",
"[ 	c #C6C7C7",
"} 	c #C9C9C8",
"| 	c #C9CAC9",
"1 	c #C8C9C7",
"2 	c #C7C7C5",
"3 	c #C8C9C8",
"4 	c #C8C8C8",
"5 	c #C7C8C7",
"6 	c #C7C7C7",
"7 	c #C6C6C6",
"8 	c #C5C6C5",
"9 	c #C4C5C4",
"0 	c #D3D4D4",
"a 	c #D2D2D2",
"b 	c #C9C9C9",
"c 	c #CACBCA",
"d 	c #CBCBCA",
"e 	c #CBCCCA",
"f 	c #CACAC9",
"g 	c #D6D7D7",
"h 	c #D9D9D9",
"i 	c #D7D7D7",
"j 	c #CCCCCB",
"k 	c #C2C2C0",
"l 	c #C4C4C2",
"m 	c #C5C4C3",
"n 	c #C5C5C3",
"o 	c #C6C5C3",
"p 	c #C4C4C3",
"q 	c #C3C3C2",
"r 	c #C2C2C1",
"s 	c #B7B8B8",
"t 	c #D1D2D2",
"u 	c #D6D6D6",
"v 	c #C6C6C5",
"w 	c #BFBFBD",
"x 	c #C1C1BF",
"y 	c #C3C3C1",
"z 	c #C5C5C4",
"A 	c #C4C5C3",
"B 	c #BABBBA",
"C 	c #D2D3D2",
"D 	c #D9D9D8",
"E 	c #CCCCCA",
"F 	c #D7D8D7",
"G 	c #DADBDA",
"H 	c #DBDBDB",
"I 	c #DBDBDA",
"J 	c #DADAD9",
"K 	c #DADAD8",
"L 	c #DCDCDB",
"M 	c #C3C4C4",
"N 	c #D0D0D1",
"O 	c #D8D8D7",
"P 	c #D8D9D8",
"Q 	c #D7D7D6",
"R 	c #DADBD9",
"S 	c #DDDDDC",
"T 	c #DFDFDE",
"U 	c #C9CACA",
"V 	c #D3D3D3",
"W 	c #D1D1D1",
"X 	c #D0D0CF",
"Y 	c #D9D9D7",
"Z 	c #D7D8D5",
"` 	c #D7D7D5",
" .	c #DBDBD9",
"..	c #DADADA",
"+.	c #C3C3C4",
"@.	c #D0D1D1",
"#.	c #CFCFCF",
"$.	c #D1D1CF",
"%.	c #D8D9D7",
"&.	c #DAD9D8",
"*.	c #D9DAD9",
"=.	c #D1D1D0",
"-.	c #D4D5D4",
";.	c #D4D4D4",
">.	c #C4C4C4",
",.	c #D1D1D2",
"'.	c #CECFCF",
").	c #D5D5D5",
"!.	c #D5D6D5",
"~.	c #D6D6D5",
"{.	c #D6D7D6",
"].	c #DDDDDD",
"^.	c #D3D4D3",
"/.	c #D0D1D0",
"(.	c #D5D5D4",
"_.	c #D4D5D5",
":.	c #C4C4C5",
"<.	c #D1D2D1",
"[.	c #CECFCE",
"}.	c #C8C9C9",
"|.	c #C4C5C5",
"1.	c #D5D6D6",
"2.	c #DCDCDC",
"3.	c #D6D7D5",
"4.	c #CFCFCE",
"5.	c #D0D0D0",
"6.	c #D4D4D3",
"7.	c #C7C8C8",
"8.	c #D2D2D1",
"9.	c #C3C3C3",
"0.	c #CECECE",
"a.	c #C6C7C6",
"b.	c #BFC0BF",
"c.	c #BFBFBE",
"d.	c #C0C1BF",
"e.	c #C1C1C0",
"f.	c #C0C0BE",
"g.	c #C0C0BF",
"h.	c #BEBFBE",
"i.	c #CCCCCC",
"j.	c #C2C3C3",
"k.	c #C0C1C0",
"l.	c #C1C2C1",
"m.	c #CFD0CF",
"n.	c #CDCDCD",
"o.	c #CECECD",
"p.	c #C1C2C2",
"q.	c #CCCDCC",
"r.	c #CFD0D0",
"s.	c #D5D5D3",
"t.	c #D4D4D2",
"u.	c #D6D6D4",
"v.	c #D8D8D6",
"w.	c #CDCDCC",
"x.	c #CBCBC9",
"y.	c #CBCBCB",
"z.	c #CCCBCA",
"A.	c #CACAC8",
"B.	c #CBCAC9",
"C.	c #CDCECC",
"D.	c #D3D3D2",
"E.	c #D3D2D1",
"F.	c #D1D0D0",
"G.	c #CDCDCB",
"H.	c #D0D0CE",
"I.	c #D0CFCE",
"J.	c #CFCFCD",
"K.	c #D2D2D0",
"L.	c #C5C5C5",
"M.	c #C5C6C6",
"N.	c #C2C3C4",
"O.	c #C3C4C3",
"P.	c #D5D4D4",
"Q.	c #C6C5C4",
"R.	c #BAB8B7",
"S.	c #BDBBBA",
"T.	c #BEBCBB",
"U.	c #BFBEBD",
"V.	c #C0BEBD",
"W.	c #BEBDBC",
"X.	c #BDBCBB",
"Y.	c #BCBABA",
"Z.	c #BBBABA",
"`.	c #BBB9B9",
" +	c #AFAFB0",
".+	c #CACBCB",
"++	c #D2D1D1",
"@+	c #C3C1C0",
"#+	c #B9B7B6",
"$+	c #BBB9B8",
"%+	c #BCBBBA",
"&+	c #BFBDBC",
"*+	c #BFBEBC",
"=+	c #B5B4B4",
"-+	c #BDBBBB",
";+	c #D8D7D6",
">+	c #D8D7D7",
",+	c #DAD9D9",
"'+	c #BFBFC0",
")+	c #CBCCCC",
"!+	c #D3D2D2",
"~+	c #D6D5D4",
"{+	c #D7D6D5",
"]+	c #D9D8D7",
"^+	c #D5D4D2",
"/+	c #D4D3D2",
"(+	c #D9D8D8",
"_+	c #BEBFBF",
":+	c #CBCCCD",
"<+	c #D4D3D1",
"[+	c #D5D4D1",
"}+	c #D6D5D3",
"|+	c #DAD9D7",
"1+	c #DBDADA",
"2+	c #D4D3D3",
"3+	c #CDCECE",
"4+	c #D5D4D3",
"5+	c #C0C0C0",
"6+	c #D4D5D3",
"7+	c #C8C8C7",
"8+	c #C0C1C1",
"9+	c #C7C7C6",
"0+	c #CCCDCD",
"a+	c #DCDBDA",
"b+	c #BDBEBC",
"c+	c #BEBFBD",
"d+	c #BEBEBD",
"e+	c #BBBCBB",
"f+	c #BDBEBD",
"g+	c #BCBDBC",
"h+	c #BFC0BE",
"i+	c #C0C1C2",
"j+	c #CDCFCF",
"k+	c #D6D6D3",
"l+	c #D3D3D1",
"m+	c #D7D7D4",
"n+	c #DADAD7",
"o+	c #D5D6D3",
"p+	c #CECECC",
"q+	c #CECDCC",
"r+	c #D1D0CE",
"s+	c #D3D2D0",
"t+	c #C6C6C4",
"u+	c #C5C6C4",
"v+	c #D0D2D2",
"w+	c #C4C3C2",
"x+	c #CCCDCB",
"y+	c #DBDCDA",
"z+	c #DEDFDE",
"A+	c #D7D8D6",
"B+	c #D9DAD8",
"C+	c #C7C9C8",
"D+	c #DCDDDC",
"E+	c #C2C3C1",
"F+	c #D2D3D3",
"G+	c #CDCECD",
"H+	c #C7C7C8",
"I+	c #D5D6D4",
"J+	c #CDCCCB",
"K+	c #CBCACA",
"L+	c #CCCBCB",
"M+	c #C9C9C7",
"N+	c #C6C7C5",
"O+	c #CDCECF",
"P+	c #C5C4C2",
"Q+	c #C3C4C2",
"R+	c #BABABA",
"S+	c #C2C3C2",
"T+	c #D8D7D5",
"U+	c #D6D5D5",
"V+	c #BCBCBB",
"W+	c #BDBDBC",
"X+	c #BFBFBF",
"Y+	c #C1C1C2",
"Z+	c #D9DAD7",
"`+	c #C7C8C6",
" @	c #C4C6C5",
".@	c #C6C8C7",
"+@	c #C6C8C6",
"@@	c #C9CAC8",
"                                                        . . . + @ # $ % & & * % = - ; > , ' ) # ! ~ ~ * % { ] ) ) ^ / ( _ _ _ / ",
"                                                        : < [ } | 1 2 3 4 5 6 7 8 9 [ 0 a 3 5 b c d d < e d c f | 3 c g h < 5 | ",
"                                                        i j k l m n o n n n p q r q s t u v w x y l n n z z A p l l B C D E r p ",
"                                                        F G i H I J K K J I I I J L M N O P Q J J R I I L L S S S T U V h I : L ",
"                                                        i D W X Y Z ` ` ` O O O  ...+.@.O Q #.$.O O %.Y K &.D K S S b V P *.a =.",
"                                                        u D =.8 u -.-.;.;.-.-.-.J ..>.,.O Q '.5 ).).!.!.~.u u {.S ].b ^.: D W [ ",
"                                                        Q Y /.7 u (.(.;.;.;._.;.*.J :.<.F u [.}.~.).!.u u {.g i S S U ;.: D W 6 ",
"                                                        O %./.6 i !.!.).(.-.).-.*.*.|.t i ~.[.b u 1.~.u g {.g {.2.S U ;.h D W 3 ",
"                                                        i O /.6 {.!.(.).).).!._.*.h :.t Q 3.4.| {.u u u u {.{.u L L b 0 : P <.4 ",
"                                                        Q O 5.[ !.).;.;.6.(.)._.D D M t F ~.[.| Q u u ~.u u {.Q 2.L b V : : W 7.",
"                                                        {.O #.8 ).-.;.a 8.V ;.V h D 9.t F {.0.}.{.u u u ~.u u i 2.2.}.V O O 5.a.",
"                                                        {.O 5.b.c.d.e.f.g.g.g.h.i.h j.@.i {.[.h.k.l.r y q q r e.4.2.4 V : O /.b.",
"                                                        Q F m.0.n.0.0.[.4.o.0.[.[.;.p.@.Q {.m.q.n.0.[.#.r.X X 5.W i 6 C : O /.#.",
"                                                        ).D s.(.6.6.6.6.t.6.;.(.(.u.6 @.Q D 6.6.6.6.^.6.6.(.!.{.Q O d a {.K (.(.",
"                                                        i 3.Q Q (.(.~.~.u.u {.u ~.Q u u u {.~.u.~.Q ` 3.3.3.3.Q v.D O h : Q O Q ",
"                                                        4.w.w.w.d d d x.d j j j y.< q.j E z.d f A.B.x.B.x.c x.f e w.o.o.X o.o.C.",
"                                                        4.D.D.E.=.X X 4.4.X F.X X m.#.w.G.H.$.X I.J.J.I.H.=.K.K.8.D.V X X 6.6.D.",
"                                                        V 6 9.L.[ [ [ 7 M.8 |.M N.p.|.5.5.L.O.L.a.[ a.[ 6 6 a.M.7 8 7.u P.4 9 [ ",
"                                                        ).Q.R.S.T.U.U.V.U.W.X.Y.Z.`. +.+++@+#+$+%+T.&+*+&+&+T.X.S.T.=+5.Q o $+-+",
"                                                        P.i D.Q ;+Q Q Q >+>+>+O >+,+'+)+!+(.a u.(.~+u.{+;+;+O ]+]+I 7 #.u O ;.O ",
"                                                        ).{+o.d s.^+^+/+t.^+t.^+;+(+_+:+E.t.y.E <+<+<+[+^+^+s.}+|+1+7 5.u Q 0.i.",
"                                                        (.~.n.j.;.2+V a a a C a O D '+3+6.4+y.>.D.a a D.V V 2+6.J I 6 5.~.` 0.M ",
"                                                        (.~.o.M (.;.6.^.V D.a a O (+5+3+6.6+i.L.D.C D.6.6.;.6.;. .I 6 =.Q ` 4.L.",
"                                                        !.` [.|.).(.6.;.6.V D.C O D k.[.;.(.n.8 6.V 6.6.6.;.;.(. .I 7+=.Q ` 4.M.",
"                                                        ~.` #.L.).(.(.(.;.;.V C v.D 8+3+(.(.n.9+;.6.6.6.6.6.6.).I  .7+=.Q Q 5.7 ",
"                                                        ~.Q 4.8 (.(.-.;.;.;.;.D.O O k.3+(.(.0+a.(.6.6.6.-.(.(.). .I 5 W Q Q X a.",
"                                                        u.` [.>.^.V V V V D.C 8.O ]+8+3+~.u.n.7 6.V D.^.^.6.;.-.I a+5 W Q Q m.L.",
"                                                        ~.v.X g.b+h.c.c.c.c+d+e+| ,+l.'.{+{.#.f+g+d+c.f.h+b.c.d+j L 5 W O v.=.g.",
"                                                        Q O 5.X m.X X X #.m.#.4.[.-.i+j+i Q #.0.0.#.m./.5./.W 8.W u 7.W P %.W =.",
"                                                        Q Y s.k+s.s.t.t.l+D.l+l+l+t.v r.O Y t.t./+l+l+l+t.t.s.u.u.m+e a D n+o+u.",
"                                                        i ~.~.(.(.(.u.u.u.~.).(.(.~.(.u i !.(.(.(.(.s.(.~.~.u.~.{+v.Q u : Q Q ~.",
"                                                        p+o.q+G.e A.A.d x.x.f f f < w.w.w.w.j d d f f f d d x.j E w.4.p+o.4.o.w.",
"                                                        6+4+4+t.l+r+p+; X X I.X X X W 0.4.8.s+$.$.$.=.$.=.8.K.l+E.E.6.t.~+(.~+4+",
"                                                        : d 7 7+1 9+t+6 9+9+7 z 9 O.M.0 t 4 a.7+} f f f f f } } 4 5 f u h d a.} ",
"                                                        i G.y n z t+t+t+t+u+z p q q s v+u a.f.k w+n t+t+v v z z m n B C D x+y z ",
"                                                        F R i y+I J K K J I I I ..L M r.O P Q J J R I I L L S S S z+U V h I : L ",
"                                                        i D W X Y A+` ` ` O v.O  ...j.r.i Q #.$.O O %.Y B+&.D K S S b V P B+a =.",
"                                                        {.Y /.8 1.-.(.;.;._.-._.J ..9.r.O Q [.5 ).).!.!.u u u {.S ].b V : D W a.",
"                                                        Q %.=.a.u (.(.;.-.;.-.;.*.J N.r.F {.[.}.u ).~.u u u {.i S S U ;.: D W 6 ",
"                                                        O %.=.5 i !.).).(.-.(.-.*.J M r.F ~.[.b u !.~.u {.{.i {.S S U ;.D D W 3 ",
"                                                        Q O /.5 u !.).).).).1._.*.h +.r.Q {.#.| {.u u u u {.{.u L L b V : D W C+",
"                                                        Q O 5.[ ).(.;.6.6.).).-.D D j.r.Q 3.[.| {.u u ~.u u {.{.S L b V : P /.7.",
"                                                        {.O #.L.(.-.6.8.8.V 0 V D D p.r.F {.0.}.u ~.u u u ~.u {.D+2.}.V O O r.7 ",
"                                                        {.O 5.b.c.d.e.f.g.g.g.h.< h p.r.i {.[.h.k.l.r q q q E+e.4.L 4 F+: O /.b.",
"                                                        i A+m.0.G+0.[.4.4.o.0.'.0.;.8+'.Q Q #.n.n.[.#.#.5.5.5.5.W i H+F+: O 5.#.",
"                                                        ).D 6+(.6.6.6.s.6.6.-.(.(.~.5 N Q D 6+6+6.6.6.6.6.(.~.Q A+O y.a {.K I+~.",
"                                                        i ~.Q ~.(.(.~.~.u.u {.u ~.{.u u u ~.~.u.~.3.3.` 3.3.` Q A+Y O h : Q O Q ",
"                                                        4.w.w.J+d K+d B.d < j < d < q.q.j L+d f A.f x.B.x.x.x.f d w.o.o.X o.o.w.",
"                                                        4.D.D.8.=.X X 4.X 5.=./.5.X m.q.G.H.X H.J.J.J.J.H.$.=.=.8.D.D.X X 6.6.D.",
"                                                        ^.w.} z.j j d f f } M+7+9+Q.5 0 C } f E J+w.G.w.q+q+w.w.q+J+> i ;.w.A.E ",
"                                                        ).e r p u+2 N+N+v 8 8 u+9 u+s O+V P+c.e.k y l n A l Q+q q Q+R+W u E S+A ",
"                                                        (.Q !+` {+Q Q {+Q Q Q i i h _+)+D.(.a ~+s.~+u.{+` T+v.O O 1+7 #.u i 6.v.",
"                                                        (.~.o.L+}+4+^+t.t.4+t.4+;+: _+0+!+t.j E <+<+<+^+^+^+s.~+Y 1+7 5.u Q [.q.",
"                                                        (.~.n.j.;.V V a a a a a O D '+3+6.4+y.>.D.a a D.V V V 6.J I 6 5.~.` 0.M ",
"                                                        (.~.o.>.(.;.^.^.V !+!+a O : 5+3+6.s.i.L.D.C D.6.6.;.;.;.R I 5 =.Q ` 4.L.",
"                                                        ~.` 0.9 (.(.6.6.6.V D.C O D k.'.;.(.n.v ^.V 6.6.6.;.6.(. .I 7+W i Q #.M.",
"                                                        ~.Q #.L.U+(.(.(.;.;.V D.v.D 8+[.(.(.n.9+;.6.6.;.6.6.6.(.I  .5 =.Q Q 5.7 ",
"                                                        ~.` #.8 ).(.(.;.;.6.6.D.O O k.3+(.(.n.a.(.6.6.6.;.(.(.).I I 5 <.i Q X a.",
"                                                        u.` [.9 6.^.^.^.^.^.D.a O Y k.3+~.~.n.a.;.^.D.6.^.;.;.(.I y+5 =.Q Q #.8 ",
"                                                        ~.v.X h+b+c.c.c.c.h.d+V+| J l.'.~.{.#.f+W+d+c.f.h+X+c.f+j L 5 W >+v./.g.",
"                                                        Q O 5.X m.X X m.#.#.#.4.[.-.Y+j+i A+m.0.0.4.m.5.5.5.W <.W u 7.W : Y W =.",
"                                                        i Y 6+o+s.4+t.<+l+l+l+l+l+t.v #.F Y t.t.<+l+l+l+/+/+6+u.u.m+d a D Z+s.u.",
"                                                        : Q Q ~.~.u.{+` ` Q ~.~.u.~.~.i O ~.~.~.~.~.(.u.` Q {+{+Q ]+v.Q h O v.Q ",
"                                                        3 7+`+a.8 A A M.8 8 |.9  @.@3 3 3 b 3 5 [ a.v a.+@a.8 6 6 3 c 3 @@} 7+5 "};
