/* XPM */
static char * door_2_xpm[] = {
"64 64 308 2",
"  	c None",
". 	c #D6D4D2",
"+ 	c #D5D2D1",
"@ 	c #D3D1CF",
"# 	c #D0CECB",
"$ 	c #CECBC9",
"% 	c #CFCDCB",
"& 	c #CFCCCB",
"* 	c #CFCCCA",
"= 	c #D0CDCC",
"- 	c #D0CECD",
"; 	c #D1D0CF",
"> 	c #CFCECD",
", 	c #D1CFCD",
"' 	c #D3D2CF",
") 	c #D2D0CE",
"! 	c #D0CDCB",
"~ 	c #CFCDCA",
"{ 	c #D0CECC",
"] 	c #D1CECC",
"^ 	c #D3D0CE",
"/ 	c #D5D3D1",
"( 	c #D6D4D1",
"_ 	c #D7D5D3",
": 	c #D4D2CF",
"< 	c #CFCCC9",
"[ 	c #D1CECD",
"} 	c #D8D8D8",
"| 	c #CBCCCB",
"1 	c #C6C7C7",
"2 	c #C9C9C8",
"3 	c #C9CAC9",
"4 	c #C8C9C7",
"5 	c #C7C7C5",
"6 	c #C8C9C8",
"7 	c #C8C8C8",
"8 	c #C7C8C7",
"9 	c #C7C7C7",
"0 	c #C6C6C6",
"a 	c #C5C6C5",
"b 	c #C4C5C4",
"c 	c #D3D4D4",
"d 	c #D2D2D2",
"e 	c #C9C9C9",
"f 	c #CACBCA",
"g 	c #CBCBCA",
"h 	c #CBCCCA",
"i 	c #CACAC9",
"j 	c #D6D7D7",
"k 	c #D9D9D9",
"l 	c #C8C8C6",
"m 	c #C7C8C8",
"n 	c #C6C7C6",
"o 	c #C4C5C5",
"p 	c #D7D7D7",
"q 	c #CCCCCB",
"r 	c #C2C2C0",
"s 	c #C4C4C2",
"t 	c #C5C4C3",
"u 	c #C5C5C3",
"v 	c #C6C5C3",
"w 	c #C4C4C3",
"x 	c #C3C3C2",
"y 	c #C2C2C1",
"z 	c #B7B8B8",
"A 	c #D1D2D2",
"B 	c #D6D6D6",
"C 	c #C6C6C5",
"D 	c #BFBFBD",
"E 	c #C1C1BF",
"F 	c #C3C3C1",
"G 	c #C5C5C4",
"H 	c #C4C5C3",
"I 	c #BABBBA",
"J 	c #D2D3D2",
"K 	c #D9D9D8",
"L 	c #CCCCCA",
"M 	c #C6C5C4",
"N 	c #B6B8B8",
"O 	c #D7D8D7",
"P 	c #DADBDA",
"Q 	c #DBDBDB",
"R 	c #DBDBDA",
"S 	c #DADAD9",
"T 	c #DADAD8",
"U 	c #DCDCDB",
"V 	c #C3C4C4",
"W 	c #D0D0D1",
"X 	c #D8D8D7",
"Y 	c #D8D9D8",
"Z 	c #D7D7D6",
"` 	c #DADBD9",
" .	c #DDDDDC",
"..	c #DFDFDE",
"+.	c #C9CACA",
"@.	c #D3D3D3",
"#.	c #DBDCDB",
"$.	c #DBDBD9",
"%.	c #DCDCDC",
"&.	c #C2C3C3",
"*.	c #D1D1D1",
"=.	c #D0D0CF",
"-.	c #D9D9D7",
";.	c #D7D8D5",
">.	c #D7D7D5",
",.	c #DADADA",
"'.	c #C3C3C4",
").	c #D0D1D1",
"!.	c #CFCFCF",
"~.	c #D1D1CF",
"{.	c #D8D9D7",
"].	c #DAD9D8",
"^.	c #D9DAD9",
"/.	c #D1D1D0",
"(.	c #D8D8D6",
"_.	c #D9D8D7",
":.	c #C2C2C3",
"<.	c #D4D5D4",
"[.	c #D4D4D4",
"}.	c #C4C4C4",
"|.	c #D1D1D2",
"1.	c #CECFCF",
"2.	c #D5D5D5",
"3.	c #D5D6D5",
"4.	c #D6D6D5",
"5.	c #D6D7D6",
"6.	c #DDDDDD",
"7.	c #D3D4D3",
"8.	c #D5D5D6",
"9.	c #D5D6D6",
"0.	c #DBDADA",
"a.	c #D0D1D0",
"b.	c #D5D5D4",
"c.	c #D4D5D5",
"d.	c #C4C4C5",
"e.	c #D1D2D1",
"f.	c #CECFCE",
"g.	c #C8C9C9",
"h.	c #D6D7D5",
"i.	c #CFCFCE",
"j.	c #D0D0D0",
"k.	c #D4D4D3",
"l.	c #C1C2C2",
"m.	c #D2D2D1",
"n.	c #C3C3C3",
"o.	c #CECECE",
"p.	c #D3D3D2",
"q.	c #BFC0BF",
"r.	c #BFBFBE",
"s.	c #C0C1BF",
"t.	c #C1C1C0",
"u.	c #C0C0BE",
"v.	c #C0C0BF",
"w.	c #BEBFBE",
"x.	c #CCCCCC",
"y.	c #C0C1C0",
"z.	c #C1C2C1",
"A.	c #BFBFBF",
"B.	c #CDCECD",
"C.	c #C0C2C2",
"D.	c #CFD0CF",
"E.	c #CDCDCD",
"F.	c #CECECD",
"G.	c #CCCDCC",
"H.	c #CFD0D0",
"I.	c #C0C1C1",
"J.	c #D5D5D3",
"K.	c #D4D4D2",
"L.	c #D6D6D4",
"M.	c #D4D5D3",
"N.	c #D5D4D3",
"O.	c #CDCDCC",
"P.	c #CBCBC9",
"Q.	c #CBCBCB",
"R.	c #CCCBCA",
"S.	c #CACAC8",
"T.	c #CBCAC9",
"U.	c #CDCECC",
"V.	c #D3D2D1",
"W.	c #D1D0D0",
"X.	c #CDCDCB",
"Y.	c #D0D0CE",
"Z.	c #D0CFCE",
"`.	c #CFCFCD",
" +	c #D2D2D0",
".+	c #C5C5C5",
"++	c #C5C6C6",
"@+	c #C2C3C4",
"#+	c #C3C4C3",
"$+	c #D5D4D4",
"%+	c #C2C2C2",
"&+	c #BAB8B7",
"*+	c #BDBBBA",
"=+	c #BEBCBB",
"-+	c #BFBEBD",
";+	c #C0BEBD",
">+	c #BEBDBC",
",+	c #BDBCBB",
"'+	c #BCBABA",
")+	c #BBBABA",
"!+	c #BBB9B9",
"~+	c #AFAFB0",
"{+	c #CACBCB",
"]+	c #D2D1D1",
"^+	c #C3C1C0",
"/+	c #B9B7B6",
"(+	c #BBB9B8",
"_+	c #BCBBBA",
":+	c #BFBDBC",
"<+	c #BFBEBC",
"[+	c #B5B4B4",
"}+	c #BDBBBB",
"|+	c #C0BEBE",
"1+	c #BFBEBE",
"2+	c #BFBDBD",
"3+	c #BDBCBC",
"4+	c #BBBAB9",
"5+	c #AFB0B0",
"6+	c #D8D7D6",
"7+	c #D8D7D7",
"8+	c #DAD9D9",
"9+	c #BFBFC0",
"0+	c #CBCCCC",
"a+	c #D3D2D2",
"b+	c #D6D5D4",
"c+	c #D7D6D5",
"d+	c #D9D8D8",
"e+	c #BEBFBF",
"f+	c #D5D4D2",
"g+	c #D4D3D2",
"h+	c #CBCCCD",
"i+	c #D4D3D1",
"j+	c #D5D4D1",
"k+	c #D6D5D3",
"l+	c #DAD9D7",
"m+	c #D4D3D3",
"n+	c #CDCECE",
"o+	c #C0C0C0",
"p+	c #BFC0C0",
"q+	c #C8C8C7",
"r+	c #C7C7C6",
"s+	c #D7D6D6",
"t+	c #CCCDCD",
"u+	c #DCDBDA",
"v+	c #BDBEBC",
"w+	c #BEBFBD",
"x+	c #BEBEBD",
"y+	c #BBBCBB",
"z+	c #BDBEBD",
"A+	c #BCBDBC",
"B+	c #BFC0BE",
"C+	c #BEBEBE",
"D+	c #C0C1C2",
"E+	c #CDCFCF",
"F+	c #D6D6D3",
"G+	c #D3D3D1",
"H+	c #D7D7D4",
"I+	c #DADAD7",
"J+	c #D5D6D3",
"K+	c #CECECC",
"L+	c #CECDCC",
"M+	c #CCCBCB",
"N+	c #D1D0CE",
"O+	c #D3D2D0",
"P+	c #D0CFCD",
"Q+	c #D2D1D0",
"R+	c #C6C6C4",
"S+	c #C5C6C4",
"T+	c #D0D2D2",
"U+	c #C4C3C2",
"V+	c #CCCDCB",
"W+	c #C7C6C4",
"X+	c #DBDCDA",
"Y+	c #DEDFDE",
"Z+	c #D7D8D6",
"`+	c #D9DAD8",
" @	c #C7C9C8",
".@	c #DCDDDC",
"+@	c #C2C3C1",
"@@	c #D2D3D3",
"#@	c #C1C0BF",
"$@	c #C7C7C8",
"%@	c #D5D6D4",
"&@	c #CDCCCB",
"*@	c #CBCACA",
"=@	c #C9C9C7",
"-@	c #CAC9C8",
";@	c #C9C8C7",
">@	c #C6C7C5",
",@	c #CDCECF",
"'@	c #C5C4C2",
")@	c #C3C4C2",
"!@	c #BABABA",
"~@	c #C2C3C2",
"{@	c #D8D7D5",
"]@	c #BEBEBF",
"^@	c #D6D5D5",
"/@	c #BCBCBB",
"(@	c #BDBDBC",
"_@	c #BCBDBB",
":@	c #C1C1C2",
"<@	c #D9DAD7",
"[@	c #C7C8C6",
"}@	c #C4C6C5",
"|@	c #C6C8C7",
"1@	c #C6C8C6",
"2@	c #C9CAC8",
"3@	c #C5C7C6",
"                                  . . . + @ # $ % & & * % = - ; > , ' ) # ! ~ ~ * % { ] ) ) ^ / ( _ _ _ / : ] < = = = ! { [ , ; ",
"                                  } | 1 2 3 4 5 6 7 8 9 0 a b 1 c d 6 8 e f g g | h g f i 3 6 f j k | 8 3 i 2 l 2 2 6 m n 0 o 1 ",
"                                  p q r s t u v u u u w x y x z A B C D E F s u u G G H w s s I J K L y w G M M v G G w x x x N ",
"                                  O P p Q R S T T S R R R S U V W X Y Z S S ` R R U U  . . ...+.@.k R } U #.R $.$.R U U U Q %.&.",
"                                  p K *.=.-.;.>.>.>.X X X $.,.'.).X Z !.~.X X {.-.T ].K T  . .e @.Y ^.d /.T (.(.(.(._.-.-.R ,.:.",
"                                  B K /.a B <.<.[.[.<.<.<.S ,.}.|.X Z 1.8 2.2.3.3.4.B B 5. .6.e 7.} K *.1 p 3.3.2.2.8.2.9.P 0.&.",
"                                  Z -.a.0 B b.b.[.[.[.c.[.^.S d.e.O B f.g.4.2.3.B B 5.j p  . .+.[.} K *.9 p 3.4.2.2.2.9.2.,.,.&.",
"                                  X {.a.9 p 3.3.2.b.<.2.<.^.^.o A p 4.f.e B 9.4.B j 5.j 5.%. .+.[.k K *.6 } 5.B B 4.3.B 3.,.,.&.",
"                                  p X a.9 5.3.b.2.2.2.3.c.^.k d.A Z h.i.3 5.B B B B 5.5.B U U e c } Y e.7 O B B B B B 5.9.,.k &.",
"                                  Z X j.1 3.2.[.[.k.b.2.c.K K V A O 4.f.3 Z B B 4.B B 5.Z %.U e @.} } *.m Z B 2.b.b.3.B 9.S k l.",
"                                  5.X !.a 2.<.[.d m.@.[.@.k K n.A O 5.o.g.5.B B B 4.B B p %.%.g.@.X X j.n B 2.b.p.p.[.2.<.S k l.",
"                                  5.X j.q.r.s.t.u.v.v.v.w.x.k &.).p 5.f.w.y.z.y F x x y t.i.%.7 @.} X a.q.v.t.y s.E t.y.A.B.S C.",
"                                  Z O D.o.E.o.o.f.i.F.o.f.f.[.l.).Z 5.D.G.E.o.f.!.H.=.=.j.*.p 9 J } X a.!.o.!.!.=.=.i.!.D.!.2.I.",
"                                  2.K J.b.k.k.k.k.K.k.[.b.b.L.9 ).Z K k.k.k.k.7.k.k.b.3.5.Z X g d 5.T b.b.b.M.M.J.N.<.b.3.3.4.1 ",
"                                  p h.Z Z b.b.4.4.L.B 5.B 4.Z B B B 5.4.L.4.Z >.h.h.h.h.Z (.K X k } Z X Z 4.4.h.Z 4.Z p p Z Z B ",
"                                  i.O.O.O.g g g P.g q q q Q.| G.q L R.g i S.T.P.T.P.f P.i h O.F.F.=.F.F.U.q q q g q O.O.O.x.x.O.",
"                                  i.p.p.V./.=.=.i.i.=.W.=.=.D.!.O.X.Y.~.=.Z.`.`.Z.Y./. + +m.p.@.=.=.k.k.p.m././.=.=./.*././.j.D.",
"                                  @.9 n..+1 1 1 0 ++a o V @+l.o j.j..+#+.+n 1 n 1 9 9 n ++0 a m B $+7 b 1 m 7 m 9 1 1 ++o }.%+++",
"                                  2.M &+*+=+-+-+;+-+>+,+'+)+!+~+{+]+^+/+(+_+=+:+<+:+:+=+,+*+=+[+j.Z v (+}+:+;+|+|+1+2+3+}+)+4+5+",
"                                  $+p p.Z 6+Z Z Z 7+7+7+X 7+8+9+0+a+b.d L.b.b+L.c+6+6+X _._.R 0 !.B X [.X X X X X d+d+d+K d+,.e+",
"                                  2.c+F.g J.f+f+g+K.f+K.f+6+d+e+h+V.K.Q.L i+i+i+j+f+f+J.k+l+0.0 j.B Z o.x.L.b+J.N.J.b.J.k+_.K e+",
"                                  b.4.E.&.[.m+@.d d d J d X K 9+n+k.N.Q.}.p.d d p.@.@.m+k.S R 9 j.4.>.o.V 2.$+[.@.@.@.@.@.K K A.",
"                                  b.4.F.V b.[.k.7.@.p.d d X d+o+n+k.M.x..+p.J p.k.k.[.k.[.$.R 9 /.Z >.i..+4.2.b.b.[.m+@.@._.K p+",
"                                  3.>.f.o 2.b.k.[.k.@.p.J X K y.f.[.b.E.a k.@.k.k.k.[.[.b.$.R q+/.Z >.i.++B 4.b.2.b.[.k.7.K K o+",
"                                  4.>.!..+2.b.b.b.[.[.@.J (.K I.n+b.b.E.r+[.k.k.k.k.k.k.2.R $.q+/.Z Z j.0 s+4.4.3.2.2.[.k.X K y.",
"                                  4.Z i.a b.b.<.[.[.[.[.p.X X y.n+b.b.t+n b.k.k.k.<.b.b.2.$.R 8 *.Z Z =.n B 4.2.b.2.b.b.k.K K y.",
"                                  L.>.f.}.7.@.@.@.@.p.J m.X _.I.n+4.L.E.0 k.@.p.7.7.k.[.<.R u+8 *.Z Z D..+<.[.[.[.[.k.@.p.{.K y.",
"                                  4.(.=.v.v+w.r.r.r.w+x+y+3 8+z.1.c+5.!.z+A+x+r.u.B+q.r.x+q U 8 *.X (./.v.w+q.q.q.q.r.C+A+Q.S I.",
"                                  Z X j.=.D.=.=.=.!.D.!.i.f.<.D+E+p Z !.o.o.!.D.a.j.a.*.m.*.B m *.Y {.*././././.a.j.a.j.=.D.2.I.",
"                                  Z -.J.F+J.J.K.K.G+p.G+G+G+K.C H.X -.K.K.g+G+G+G+K.K.J.L.L.H+h d K I+J+L.F+J.J.K.K.K.K.K.K.J.C ",
"                                  p 4.4.b.b.b.L.L.L.4.2.b.b.4.b.B p 3.b.b.b.b.J.b.4.4.L.4.c+(.Z B } Z Z 4.b.4.4.c+h.Z 4.L.L.4.b.",
"                                  K+F.L+X.h S.S.g P.P.i i i | O.O.O.O.q g g i i i g g P.q L O.i.K+F.i.F.O.q P.T.q M+q g g Q.q O.",
"                                  M.N.N.K.G+N+K+; =.=.Z.=.=.=.*.o.i.m.O+~.~.~./.~./.m. +G+V.V.k.K.b+b.b+N.K.~.P+Q+/.~.; /././.*.",
"                                  } g 0 q+4 r+R+9 r+r+0 G b #+++c A 7 n q+2 i i i i i 2 2 7 8 i B k g n 2 2 q+5 q+q+8 n a a }.n ",
"                                  p X.F u G R+R+R+R+S+G w x x z T+B n u.r U+u R+R+C C G G t u I J K V+F G R+W+W+W+R+C G w #+w z ",
"                                  O ` p X+R S T T S R R R ,.U V H.X Y Z S S ` R R U U  . . .Y++.@.k R } U U R $.$.$.U U U R %.&.",
"                                  p K *.=.-.Z+>.>.>.X (.X $.,.&.H.p Z !.~.X X {.-.`+].K T  . .e @.Y `+d /.T (.(.(.(.-.-.K R ,.&.",
"                                  5.-.a.a 9.<.b.[.[.c.<.c.S ,.n.H.X Z f.8 2.2.3.3.B B B 5. .6.e @.} K *.n Z 2.4.2.2.3.3.9.P 0.&.",
"                                  Z {./.n B b.b.[.<.[.<.[.^.S @+H.O 5.f.g.B 2.4.B B B 5.p  . .+.[.} K *.9 p 4.4.2.2.2.3.2.,.,.&.",
"                                  X {./.8 p 3.2.2.b.<.b.<.^.S V H.O 4.f.e B 3.4.B 5.5.p 5. . .+.[.K K *.6 } 5.B B 4.2.4.3.,.S &.",
"                                  Z X a.8 B 3.2.2.2.2.9.c.^.k '.H.Z 5.!.3 5.B B B B 5.5.B U U e @.} K *. @O 5.B B B B 5.B S 8+&.",
"                                  Z X j.1 2.b.[.k.k.2.2.<.K K &.H.Z h.f.3 5.B B 4.B B 5.5. .U e @.} Y a.m 5.B 2.2.b.3.B 3.^.k :.",
"                                  5.X !..+b.<.k.m.m.@.c @.K K l.H.O 5.o.g.B 4.B B B 4.B 5..@%.g.@.X X H.0 B 2.b.p.p.k.[.[.^.k l.",
"                                  5.X j.q.r.s.t.u.v.v.v.w.| k l.H.p 5.f.w.y.z.y x x x +@t.i.U 7 @@} X a.q.s.t.y #@t.t.t.A.E.S C.",
"                                  p Z+D.o.B.o.f.i.i.F.o.1.o.[.I.1.Z Z !.E.E.f.!.!.j.j.j.j.*.p $@@@} X j.!.f.!.D.=.=.!.!.D.!.2.I.",
"                                  2.K M.b.k.k.k.J.k.k.<.b.b.4.8 W Z K M.M.k.k.k.k.k.b.4.Z Z+X Q.d 5.T %@4.b.M.J.b.J.b.2.4.4.h.9 ",
"                                  p 4.Z 4.b.b.4.4.L.B 5.B 4.5.B B B 4.4.L.4.h.h.>.h.h.>.Z Z+-.X k } Z X Z 4.4.4.Z 4.5.p p Z Z B ",
"                                  i.O.O.&@g *@g T.g | q | g | G.G.q M+g i S.i P.T.P.P.P.i g O.F.F.=.F.F.O.q g M+g q G.O.x.x.x.G.",
"                                  i.p.p.m./.=.=.i.=.j./.a.j.=.D.G.X.Y.=.Y.`.`.`.`.Y.~././.m.p.p.=.=.k.k.p.m././.=.=.]+m.e.*.a.D.",
"                                  7.O.2 R.q q g i i 2 =@q+r+M 8 c J 2 i L &@O.X.O.L+L+O.O.L+&@> p [.O.S.L X.X.L P.T.i -@;@q+C q+",
"                                  2.h y w S+5 >@>@C a a S+b S+z ,@@.'@r.t.r F s u H s )@x x )@!@*.B L ~@H C r+r+r+r+>@>@C a C z ",
"                                  b.Z a+>.c+Z Z c+Z Z Z p p k e+0+p.b.d b+J.b+L.c+>.{@(.X X 0.0 !.B p k.(.(.X X X X X X } } 8+]@",
"                                  b.4.F.M+k+N.f+K.K.N.K.N.6+} e+t+a+K.q L i+i+i+f+f+f+J.b+-.0.0 j.B Z f.G.L.k+k+N.J.b.J.b+_.K e+",
"                                  b.4.E.&.[.@.@.d d d d d X K 9+n+k.N.Q.}.p.d d p.@.@.@.k.S R 9 j.4.>.o.V 2.[.[.@.@.@.@.@.K K A.",
"                                  b.4.F.}.b.[.7.7.@.a+a+d X } o+n+k.J.x..+p.J p.k.k.[.[.[.` R 8 /.Z >.i..+4.2.b.b.[.k.@.@.d+K p+",
"                                  4.>.o.b b.b.k.k.k.@.p.J X K y.1.[.b.E.C 7.@.k.k.k.[.k.b.$.R q+*.p Z !.++B 4.b.2.$+[.k.7.K K o+",
"                                  4.Z !..+^@b.b.b.[.[.@.p.(.K I.f.b.b.E.r+[.k.k.[.k.k.k.b.R $.8 /.Z Z j.0 B 4.3.4.2.2.[.k.X K o+",
"                                  4.>.!.a 2.b.b.[.[.k.k.p.X X y.n+b.b.E.n b.k.k.k.[.b.b.2.R R 8 e.p Z =.n B 4.^@2.2.b.2.k.-.-.y.",
"                                  L.>.f.b k.7.7.7.7.7.p.d X -.y.n+4.4.E.n [.7.p.k.7.[.[.b.R X+8 /.Z Z !.a b.b.b.[.<.[.k.@.{.-.y.",
"                                  4.(.=.B+v+r.r.r.r.w.x+/@3 S z.1.4.5.!.z+(@x+r.u.B+A.r.z+q U 8 *.7+(.a.v.x+q.v.q.B+r.x+_@g S I.",
"                                  Z X j.=.D.=.=.D.!.!.!.i.f.<.:@E+p Z+D.o.o.i.D.j.j.j.*.e.*.B m *.} -.*./.a./.a.a.j.j.j.=.D.2.I.",
"                                  p -.M.J+J.N.K.i+G+G+G+G+G+K.C !.O -.K.K.i+G+G+G+g+g+M.L.L.H+g d K <@J.L.b+J.N.K.K.K.K.K.K.N.C ",
"                                  } Z Z 4.4.L.c+>.>.Z 4.4.L.4.4.p X 4.4.4.4.4.b.L.>.Z c+c+Z _.(.Z k X (.Z 4.>.>.6+(.X Z 4.h.Z 4.",
"                                  6 q+[@n a H H ++a a o b }@|@6 6 6 e 6 8 1 n C n 1@n a 9 9 6 f 6 2@2 q+8 n G b n ++++a a 3@m 6 "};
