/* XPM */
static char * door_9_xpm[] = {
"64 64 181 2",
"  	c None",
". 	c #D6D4D2",
"+ 	c #D5D2D1",
"@ 	c #D3D1CF",
"# 	c #D0CECB",
"$ 	c #CECBC9",
"% 	c #CFCDCB",
"& 	c #CFCCCB",
"* 	c #CFCCCA",
"= 	c #D0CDCC",
"- 	c #D0CECD",
"; 	c #D8D8D8",
"> 	c #CBCCCB",
", 	c #C6C7C7",
"' 	c #C9C9C8",
") 	c #C9CAC9",
"! 	c #C8C9C7",
"~ 	c #C7C7C5",
"{ 	c #C8C9C8",
"] 	c #C8C8C8",
"^ 	c #C7C8C7",
"/ 	c #C7C7C7",
"( 	c #C6C6C6",
"_ 	c #C5C6C5",
": 	c #C4C5C4",
"< 	c #D7D7D7",
"[ 	c #CCCCCB",
"} 	c #C2C2C0",
"| 	c #C4C4C2",
"1 	c #C5C4C3",
"2 	c #C5C5C3",
"3 	c #C6C5C3",
"4 	c #C4C4C3",
"5 	c #C3C3C2",
"6 	c #C2C2C1",
"7 	c #D7D8D7",
"8 	c #DADBDA",
"9 	c #DBDBDB",
"0 	c #DBDBDA",
"a 	c #DADAD9",
"b 	c #DADAD8",
"c 	c #DCDCDB",
"d 	c #D9D9D8",
"e 	c #D1D1D1",
"f 	c #D0D0CF",
"g 	c #D9D9D7",
"h 	c #D7D8D5",
"i 	c #D7D7D5",
"j 	c #D8D8D7",
"k 	c #DBDBD9",
"l 	c #DADADA",
"m 	c #D6D6D6",
"n 	c #D1D1D0",
"o 	c #D4D5D4",
"p 	c #D4D4D4",
"q 	c #D7D7D6",
"r 	c #D0D1D0",
"s 	c #D5D5D4",
"t 	c #D4D5D5",
"u 	c #D9DAD9",
"v 	c #D8D9D7",
"w 	c #D5D6D5",
"x 	c #D5D5D5",
"y 	c #D6D7D6",
"z 	c #D9D9D9",
"A 	c #D0D0D0",
"B 	c #D4D4D3",
"C 	c #CFCFCF",
"D 	c #D2D2D2",
"E 	c #D2D2D1",
"F 	c #D3D3D3",
"G 	c #BFC0BF",
"H 	c #BFBFBE",
"I 	c #C0C1BF",
"J 	c #C1C1C0",
"K 	c #C0C0BE",
"L 	c #C0C0BF",
"M 	c #BEBFBE",
"N 	c #CCCCCC",
"O 	c #CFD0CF",
"P 	c #CECECE",
"Q 	c #CDCDCD",
"R 	c #CECFCE",
"S 	c #CFCFCE",
"T 	c #CECECD",
"U 	c #D5D5D3",
"V 	c #D4D4D2",
"W 	c #D6D6D4",
"X 	c #D6D7D5",
"Y 	c #D6D6D5",
"Z 	c #CDCDCC",
"` 	c #CBCBCA",
" .	c #CBCBC9",
"..	c #CBCBCB",
"+.	c #D3D3D2",
"@.	c #D3D2D1",
"#.	c #D1D0D0",
"$.	c #C3C3C3",
"%.	c #C5C5C5",
"&.	c #C5C6C6",
"*.	c #C4C5C5",
"=.	c #C3C4C4",
"-.	c #C2C3C4",
";.	c #C1C2C2",
">.	c #C6C5C4",
",.	c #BAB8B7",
"'.	c #BDBBBA",
").	c #BEBCBB",
"!.	c #BFBEBD",
"~.	c #C0BEBD",
"{.	c #BEBDBC",
"].	c #BDBCBB",
"^.	c #BCBABA",
"/.	c #BBBABA",
"(.	c #BBB9B9",
"_.	c #D5D4D4",
":.	c #D8D7D6",
"<.	c #D8D7D7",
"[.	c #DAD9D9",
"}.	c #D7D6D5",
"|.	c #D5D4D2",
"1.	c #D4D3D2",
"2.	c #D9D8D8",
"3.	c #C2C3C3",
"4.	c #D4D3D3",
"5.	c #D2D3D2",
"6.	c #D3D4D3",
"7.	c #D8D8D6",
"8.	c #C4C4C4",
"9.	c #D9D8D7",
"0.	c #BDBEBC",
"a.	c #BEBFBD",
"b.	c #BEBEBD",
"c.	c #BBBCBB",
"d.	c #D6D6D3",
"e.	c #D3D3D1",
"f.	c #CECECC",
"g.	c #CECDCC",
"h.	c #CDCDCB",
"i.	c #CBCCCA",
"j.	c #CACAC8",
"k.	c #CACAC9",
"l.	c #D4D5D3",
"m.	c #D5D4D3",
"n.	c #D1D0CE",
"o.	c #D1D0CF",
"p.	c #D0CFCE",
"q.	c #C8C8C7",
"r.	c #C7C7C6",
"s.	c #C6C6C4",
"t.	c #C5C5C4",
"u.	c #C3C4C3",
"v.	c #C3C3C1",
"w.	c #C5C6C4",
"x.	c #DADBD9",
"y.	c #DBDCDA",
"z.	c #D7D8D6",
"A.	c #D5D6D6",
"B.	c #C6C7C6",
"C.	c #D3D4D4",
"D.	c #CDCECD",
"E.	c #CECFCF",
"F.	c #CDCCCB",
"G.	c #CBCACA",
"H.	c #CBCAC9",
"I.	c #CCCBCA",
"J.	c #C9C9C7",
"K.	c #C6C7C5",
"L.	c #C6C6C5",
"M.	c #D3D2D2",
"N.	c #CCCBCB",
"O.	c #D6D5D3",
"P.	c #D6D5D5",
"Q.	c #BFC0BE",
"R.	c #BCBCBB",
"S.	c #D5D6D3",
"T.	c #D4D3D1",
"U.	c #C7C8C6",
"V.	c #C4C5C3",
"W.	c #C4C6C5",
"X.	c #C6C8C7",
"                                                                                                    . . . + @ # $ % & & * % = - ",
"                                                                                                    ; > , ' ) ! ~ { ] ^ / ( _ : ",
"                                                                                                    < [ } | 1 2 3 2 2 2 4 5 6 5 ",
"                                                                                                    7 8 < 9 0 a b b a 0 0 0 a c ",
"                                                                                                    < d e f g h i i i j j j k l ",
"                                                                                                    m d n _ m o o p p o o o a l ",
"                                                                                                    q g r ( m s s p p p t p u a ",
"                                                                                                    j v r / < w w x s o x o u u ",
"                                                                                                    < j r / y w s x x x w t u z ",
"                                                                                                    q j A , w x p p B s x t d d ",
"                                                                                                    y j C _ x o p D E F p F z d ",
"                                                                                                    y j A G H I J K L L L M N z ",
"                                                                                                    q 7 O P Q P P R S T P R R p ",
"                                                                                                    x d U s B B B B V B p s s W ",
"                                                                                                    < X q q s s Y Y W m y m Y q ",
"                                                                                                    S Z Z Z ` ` `  .` [ [ [ ..> ",
"                                                                                                    S +.+.@.n f f S S f #.f f O ",
"                                                                                                    F / $.%., , , ( &._ *.=.-.;.",
"                                                                                                    x >.,.'.).!.!.~.!.{.].^./.(.",
"                                                                                                    _.< +.q :.q q q <.<.<.j <.[.",
"                                                                                                    x }.T ` U |.|.1.V |.V |.:.2.",
"                                                                                                    s Y Q 3.p 4.F D D D 5.D j d ",
"                                                                                                    s Y T =.s p B 6.F +.D D j 2.",
"                                                                                                    w i R *.x s B p B F +.5.j d ",
"                                                                                                    Y i C %.x s s s p p F 5.7.d ",
"                                                                                                    Y q S _ s s o p p p p +.j j ",
"                                                                                                    W i R 8.6.F F F F +.5.E j 9.",
"                                                                                                    Y 7.f L 0.M H H H a.b.c.) [.",
"                                                                                                    q j A f O f f f C O C S R o ",
"                                                                                                    q g U d.U U V V e.+.e.e.e.V ",
"                                                                                                    < Y Y s s s W W W Y x s s Y ",
"                                                                                                    f.T g.h.i.j.j.`  . .k.k.k.> ",
"                                                                                                    l.m.m.V e.n.f.o.f f p.f f f ",
"                                                                                                    ; ` ( q.! r.s./ r.r.( t.: u.",
"                                                                                                    < h.v.2 t.s.s.s.s.w.t.4 5 5 ",
"                                                                                                    7 x.< y.0 a b b a 0 0 0 l c ",
"                                                                                                    < d e f g z.i i i j 7.j k l ",
"                                                                                                    y g r _ A.o s p p t o t a l ",
"                                                                                                    q v n B.m s s p o p o p u a ",
"                                                                                                    j v n ^ < w x x s o s o u a ",
"                                                                                                    q j r ^ m w x x x x A.t u z ",
"                                                                                                    q j A , x s p B B x x o d d ",
"                                                                                                    y j C %.s o B E E F C.F d d ",
"                                                                                                    y j A G H I J K L L L M > z ",
"                                                                                                    < z.O P D.P R S S T P E.P p ",
"                                                                                                    x d l.s B B B U B B o s s Y ",
"                                                                                                    < Y q Y s s Y Y W m y m Y y ",
"                                                                                                    S Z Z F.` G.` H.` > [ > ` > ",
"                                                                                                    S +.+.E n f f S f A n r A f ",
"                                                                                                    6.Z ' I.[ [ ` k.k.' J.q.r.>.",
"                                                                                                    x i.6 4 w.~ K.K.L._ _ w.: w.",
"                                                                                                    s q M.i }.q q }.q q q < < z ",
"                                                                                                    s Y T N.O.m.|.V V m.V m.:.; ",
"                                                                                                    s Y Q 3.p F F D D D D D j d ",
"                                                                                                    s Y T 8.s p 6.6.F M.M.D j ; ",
"                                                                                                    Y i P : s s B B B F +.5.j d ",
"                                                                                                    Y q C %.P.s s s p p F +.7.d ",
"                                                                                                    Y i C _ x s s p p B B +.j j ",
"                                                                                                    W i R : B 6.6.6.6.6.+.D j g ",
"                                                                                                    Y 7.f Q.0.H H H H M b.R.) a ",
"                                                                                                    q j A f O f f O C C C S R o ",
"                                                                                                    < g l.S.U m.V T.e.e.e.e.e.V ",
"                                                                                                    ; q q Y Y W }.i i q Y Y W Y ",
"                                                                                                    { q.U.B._ V.V.&._ _ *.: W.X."};
