/* XPM */
static char * door_8_xpm[] = {
"64 64 223 2",
"  	c None",
". 	c #D6D4D2",
"+ 	c #D5D2D1",
"@ 	c #D3D1CF",
"# 	c #D0CECB",
"$ 	c #CECBC9",
"% 	c #CFCDCB",
"& 	c #CFCCCB",
"* 	c #CFCCCA",
"= 	c #D0CDCC",
"- 	c #D0CECD",
"; 	c #D1D0CF",
"> 	c #CFCECD",
", 	c #D1CFCD",
"' 	c #D3D2CF",
") 	c #D2D0CE",
"! 	c #D8D8D8",
"~ 	c #CBCCCB",
"{ 	c #C6C7C7",
"] 	c #C9C9C8",
"^ 	c #C9CAC9",
"/ 	c #C8C9C7",
"( 	c #C7C7C5",
"_ 	c #C8C9C8",
": 	c #C8C8C8",
"< 	c #C7C8C7",
"[ 	c #C7C7C7",
"} 	c #C6C6C6",
"| 	c #C5C6C5",
"1 	c #C4C5C4",
"2 	c #D3D4D4",
"3 	c #D2D2D2",
"4 	c #D7D7D7",
"5 	c #CCCCCB",
"6 	c #C2C2C0",
"7 	c #C4C4C2",
"8 	c #C5C4C3",
"9 	c #C5C5C3",
"0 	c #C6C5C3",
"a 	c #C4C4C3",
"b 	c #C3C3C2",
"c 	c #C2C2C1",
"d 	c #B7B8B8",
"e 	c #D1D2D2",
"f 	c #D6D6D6",
"g 	c #C6C6C5",
"h 	c #BFBFBD",
"i 	c #D7D8D7",
"j 	c #DADBDA",
"k 	c #DBDBDB",
"l 	c #DBDBDA",
"m 	c #DADAD9",
"n 	c #DADAD8",
"o 	c #DCDCDB",
"p 	c #C3C4C4",
"q 	c #D0D0D1",
"r 	c #D8D8D7",
"s 	c #D8D9D8",
"t 	c #D7D7D6",
"u 	c #D9D9D8",
"v 	c #D1D1D1",
"w 	c #D0D0CF",
"x 	c #D9D9D7",
"y 	c #D7D8D5",
"z 	c #D7D7D5",
"A 	c #DBDBD9",
"B 	c #DADADA",
"C 	c #C3C3C4",
"D 	c #D0D1D1",
"E 	c #CFCFCF",
"F 	c #D1D1D0",
"G 	c #D4D5D4",
"H 	c #D4D4D4",
"I 	c #C4C4C4",
"J 	c #D1D1D2",
"K 	c #CECFCF",
"L 	c #D0D1D0",
"M 	c #D5D5D4",
"N 	c #D4D5D5",
"O 	c #D9DAD9",
"P 	c #C4C4C5",
"Q 	c #D1D2D1",
"R 	c #CECFCE",
"S 	c #D8D9D7",
"T 	c #D5D6D5",
"U 	c #D5D5D5",
"V 	c #C4C5C5",
"W 	c #D6D6D5",
"X 	c #D6D7D6",
"Y 	c #D9D9D9",
"Z 	c #D6D7D5",
"` 	c #CFCFCE",
" .	c #D0D0D0",
"..	c #D4D4D3",
"+.	c #D2D2D1",
"@.	c #D3D3D3",
"#.	c #C3C3C3",
"$.	c #CECECE",
"%.	c #BFC0BF",
"&.	c #BFBFBE",
"*.	c #C0C1BF",
"=.	c #C1C1C0",
"-.	c #C0C0BE",
";.	c #C0C0BF",
">.	c #BEBFBE",
",.	c #CCCCCC",
"'.	c #C2C3C3",
").	c #CFD0CF",
"!.	c #CDCDCD",
"~.	c #CECECD",
"{.	c #C1C2C2",
"].	c #D5D5D3",
"^.	c #D4D4D2",
"/.	c #D6D6D4",
"(.	c #CDCDCC",
"_.	c #CBCBCA",
":.	c #CBCBC9",
"<.	c #CBCBCB",
"[.	c #CCCDCC",
"}.	c #CCCCCA",
"|.	c #CCCBCA",
"1.	c #D3D3D2",
"2.	c #D3D2D1",
"3.	c #D1D0D0",
"4.	c #CDCDCB",
"5.	c #D0D0CE",
"6.	c #D1D1CF",
"7.	c #C5C5C5",
"8.	c #C5C6C6",
"9.	c #C2C3C4",
"0.	c #C3C4C3",
"a.	c #C6C5C4",
"b.	c #BAB8B7",
"c.	c #BDBBBA",
"d.	c #BEBCBB",
"e.	c #BFBEBD",
"f.	c #C0BEBD",
"g.	c #BEBDBC",
"h.	c #BDBCBB",
"i.	c #BCBABA",
"j.	c #BBBABA",
"k.	c #BBB9B9",
"l.	c #AFAFB0",
"m.	c #CACBCB",
"n.	c #D2D1D1",
"o.	c #C3C1C0",
"p.	c #B9B7B6",
"q.	c #D5D4D4",
"r.	c #D8D7D6",
"s.	c #D8D7D7",
"t.	c #DAD9D9",
"u.	c #BFBFC0",
"v.	c #CBCCCC",
"w.	c #D3D2D2",
"x.	c #D7D6D5",
"y.	c #D5D4D2",
"z.	c #D4D3D2",
"A.	c #D9D8D8",
"B.	c #BEBFBF",
"C.	c #CBCCCD",
"D.	c #D4D3D3",
"E.	c #D2D3D2",
"F.	c #CDCECE",
"G.	c #D5D4D3",
"H.	c #D3D4D3",
"I.	c #C0C0C0",
"J.	c #D4D5D3",
"K.	c #C0C1C0",
"L.	c #D8D8D6",
"M.	c #C0C1C1",
"N.	c #CCCDCD",
"O.	c #D9D8D7",
"P.	c #BDBEBC",
"Q.	c #BEBFBD",
"R.	c #BEBEBD",
"S.	c #BBBCBB",
"T.	c #C1C2C1",
"U.	c #C0C1C2",
"V.	c #CDCFCF",
"W.	c #D6D6D3",
"X.	c #D3D3D1",
"Y.	c #CFD0D0",
"Z.	c #CECECC",
"`.	c #CECDCC",
" +	c #CBCCCA",
".+	c #CACAC8",
"++	c #CACAC9",
"@+	c #D1D0CE",
"#+	c #D0CFCE",
"$+	c #D3D2D0",
"%+	c #C8C8C7",
"&+	c #C7C7C6",
"*+	c #C6C6C4",
"=+	c #C5C5C4",
"-+	c #C6C7C6",
";+	c #C3C3C1",
">+	c #C5C6C4",
",+	c #D0D2D2",
"'+	c #DADBD9",
")+	c #DBDCDA",
"!+	c #D7D8D6",
"~+	c #D5D6D6",
"{+	c #CDCECD",
"]+	c #CDCCCB",
"^+	c #CBCACA",
"/+	c #CBCAC9",
"(+	c #CCCBCB",
"_+	c #C9C9C7",
":+	c #C6C7C5",
"<+	c #CDCECF",
"[+	c #C5C4C2",
"}+	c #D6D5D3",
"|+	c #D6D5D5",
"1+	c #BFC0BE",
"2+	c #BCBCBB",
"3+	c #C1C1C2",
"4+	c #D5D6D3",
"5+	c #D4D3D1",
"6+	c #C7C8C6",
"7+	c #C4C5C3",
"8+	c #C4C6C5",
"9+	c #C6C8C7",
"0+	c #C9C9C9",
"                                                                                          . . . + @ # $ % & & * % = - ; > , ' ) ",
"                                                                                          ! ~ { ] ^ / ( _ : < [ } | 1 { 2 3 _ < ",
"                                                                                          4 5 6 7 8 9 0 9 9 9 a b c b d e f g h ",
"                                                                                          i j 4 k l m n n m l l l m o p q r s t ",
"                                                                                          4 u v w x y z z z r r r A B C D r t E ",
"                                                                                          f u F | f G G H H G G G m B I J r t K ",
"                                                                                          t x L } f M M H H H N H O m P Q i f R ",
"                                                                                          r S L [ 4 T T U M G U G O O V e 4 W R ",
"                                                                                          4 r L [ X T M U U U T N O Y P e t Z ` ",
"                                                                                          t r  .{ T U H H ..M U N u u p e i W R ",
"                                                                                          X r E | U G H 3 +.@.H @.Y u #.e i X $.",
"                                                                                          X r  .%.&.*.=.-.;.;.;.>.,.Y '.D 4 X R ",
"                                                                                          t i ).$.!.$.$.R ` ~.$.R R H {.D t X ).",
"                                                                                          U u ].M ........^...H M M /.[ D t u ..",
"                                                                                          4 Z t t M M W W /.f X f W t f f f X W ",
"                                                                                          ` (.(.(._._._.:._.5 5 5 <.~ [.5 }.|._.",
"                                                                                          ` 1.1.2.F w w ` ` w 3.w w ).E (.4.5.6.",
"                                                                                          @.[ #.7.{ { { } 8.| V p 9.{.V  . .7.0.",
"                                                                                          U a.b.c.d.e.e.f.e.g.h.i.j.k.l.m.n.o.p.",
"                                                                                          q.4 1.t r.t t t s.s.s.r s.t.u.v.w.M 3 ",
"                                                                                          U x.~._.].y.y.z.^.y.^.y.r.A.B.C.2.^.<.",
"                                                                                          M W !.'.H D.@.3 3 3 E.3 r u u.F...G.<.",
"                                                                                          M W ~.p M H ..H.@.1.3 3 r A.I.F...J.,.",
"                                                                                          T z R V U M ..H ..@.1.E.r u K.R H M !.",
"                                                                                          W z E 7.U M M M H H @.E.L.u M.F.M M !.",
"                                                                                          W t ` | M M G H H H H 1.r r K.F.M M N.",
"                                                                                          /.z R I H.@.@.@.@.1.E.+.r O.M.F.W /.!.",
"                                                                                          W L.w ;.P.>.&.&.&.Q.R.S.^ t.T.K x.X E ",
"                                                                                          t r  .w ).w w w E ).E ` R G U.V.4 t E ",
"                                                                                          t x ].W.].].^.^.X.1.X.X.X.^.g Y.r x ^.",
"                                                                                          4 W W M M M /././.W U M M W M f 4 T M ",
"                                                                                          Z.~.`.4. +.+.+_.:.:.++++++~ (.(.(.(.5 ",
"                                                                                          J.G.G.^.X.@+Z.; w w #+w w w v $.` +.$+",
"                                                                                          ! _.} %+/ &+*+[ &+&+} =+1 0.8.2 e : -+",
"                                                                                          4 4.;+9 =+*+*+*+*+>+=+a b b d ,+f -+-.",
"                                                                                          i '+4 )+l m n n m l l l B o p Y.r s t ",
"                                                                                          4 u v w x !+z z z r L.r A B '.Y.4 t E ",
"                                                                                          X x L | ~+G M H H N G N m B #.Y.r t R ",
"                                                                                          t S F -+f M M H G H G H O m 9.Y.i X R ",
"                                                                                          r S F < 4 T U U M G M G O m p Y.i W R ",
"                                                                                          t r L < f T U U U U ~+N O Y C Y.t X E ",
"                                                                                          t r  .{ U M H ....U U G u u '.Y.t Z R ",
"                                                                                          X r E 7.M G ..+.+.@.2 @.u u {.Y.i X $.",
"                                                                                          X r  .%.&.*.=.-.;.;.;.>.~ Y {.Y.4 X R ",
"                                                                                          4 !+).$.{+$.R ` ` ~.$.K $.H M.K t t E ",
"                                                                                          U u J.M ......].....G M M W < q t u J.",
"                                                                                          4 W t W M M W W /.f X f W X f f f W W ",
"                                                                                          ` (.(.]+_.^+_./+_.~ 5 ~ _.~ [.[.5 (+_.",
"                                                                                          ` 1.1.+.F w w ` w  .F L  .w ).[.4.5.w ",
"                                                                                          H.(.] |.5 5 _.++++] _+%+&+a.< 2 E.] ++",
"                                                                                          U  +c a >+( :+:+g | | >+1 >+d <+@.[+&.",
"                                                                                          M t w.z x.t t x.t t t 4 4 Y B.v.1.M 3 ",
"                                                                                          M W ~.(+}+G.y.^.^.G.^.G.r.! B.N.w.^.5 ",
"                                                                                          M W !.'.H @.@.3 3 3 3 3 r u u.F...G.<.",
"                                                                                          M W ~.I M H H.H.@.w.w.3 r ! I.F...].,.",
"                                                                                          W z $.1 M M ......@.1.E.r u K.K H M !.",
"                                                                                          W t E 7.|+M M M H H @.1.L.u M.R M M !.",
"                                                                                          W z E | U M M H H ....1.r r K.F.M M !.",
"                                                                                          /.z R 1 ..H.H.H.H.H.1.3 r x K.F.W W !.",
"                                                                                          W L.w 1+P.&.&.&.&.>.R.2+^ m T.K W X E ",
"                                                                                          t r  .w ).w w ).E E E ` R G 3+V.4 !+).",
"                                                                                          4 x J.4+].G.^.5+X.X.X.X.X.^.g E i x ^.",
"                                                                                          ! t t W W /.x.z z t W W /.W W 4 r W W ",
"                                                                                          _ %+6+-+| 7+7+8.| | V 1 8+9+_ _ _ 0+_ "};
