/* XPM */
static char * door_4_xpm[] = {
"64 64 194 2",
"  	c None",
". 	c #D6D4D2",
"+ 	c #D5D2D1",
"@ 	c #D3D1CF",
"# 	c #D0CECB",
"$ 	c #CECBC9",
"% 	c #CFCDCB",
"& 	c #CFCCCB",
"* 	c #CFCCCA",
"= 	c #D0CDCC",
"- 	c #D0CECD",
"; 	c #D1D0CF",
"> 	c #D8D8D8",
", 	c #CBCCCB",
"' 	c #C6C7C7",
") 	c #C9C9C8",
"! 	c #C9CAC9",
"~ 	c #C8C9C7",
"{ 	c #C7C7C5",
"] 	c #C8C9C8",
"^ 	c #C8C8C8",
"/ 	c #C7C8C7",
"( 	c #C7C7C7",
"_ 	c #C6C6C6",
": 	c #C5C6C5",
"< 	c #C4C5C4",
"[ 	c #D7D7D7",
"} 	c #CCCCCB",
"| 	c #C2C2C0",
"1 	c #C4C4C2",
"2 	c #C5C4C3",
"3 	c #C5C5C3",
"4 	c #C6C5C3",
"5 	c #C4C4C3",
"6 	c #C3C3C2",
"7 	c #C2C2C1",
"8 	c #B7B8B8",
"9 	c #D7D8D7",
"0 	c #DADBDA",
"a 	c #DBDBDB",
"b 	c #DBDBDA",
"c 	c #DADAD9",
"d 	c #DADAD8",
"e 	c #DCDCDB",
"f 	c #C3C4C4",
"g 	c #D9D9D8",
"h 	c #D1D1D1",
"i 	c #D0D0CF",
"j 	c #D9D9D7",
"k 	c #D7D8D5",
"l 	c #D7D7D5",
"m 	c #D8D8D7",
"n 	c #DBDBD9",
"o 	c #DADADA",
"p 	c #C3C3C4",
"q 	c #D6D6D6",
"r 	c #D1D1D0",
"s 	c #D4D5D4",
"t 	c #D4D4D4",
"u 	c #C4C4C4",
"v 	c #D7D7D6",
"w 	c #D0D1D0",
"x 	c #D5D5D4",
"y 	c #D4D5D5",
"z 	c #D9DAD9",
"A 	c #C4C4C5",
"B 	c #D8D9D7",
"C 	c #D5D6D5",
"D 	c #D5D5D5",
"E 	c #C4C5C5",
"F 	c #D6D7D6",
"G 	c #D9D9D9",
"H 	c #D0D0D0",
"I 	c #D4D4D3",
"J 	c #CFCFCF",
"K 	c #D2D2D2",
"L 	c #D2D2D1",
"M 	c #D3D3D3",
"N 	c #C3C3C3",
"O 	c #BFC0BF",
"P 	c #BFBFBE",
"Q 	c #C0C1BF",
"R 	c #C1C1C0",
"S 	c #C0C0BE",
"T 	c #C0C0BF",
"U 	c #BEBFBE",
"V 	c #CCCCCC",
"W 	c #C2C3C3",
"X 	c #CFD0CF",
"Y 	c #CECECE",
"Z 	c #CDCDCD",
"` 	c #CECFCE",
" .	c #CFCFCE",
"..	c #CECECD",
"+.	c #C1C2C2",
"@.	c #D5D5D3",
"#.	c #D4D4D2",
"$.	c #D6D6D4",
"%.	c #D6D7D5",
"&.	c #D6D6D5",
"*.	c #CDCDCC",
"=.	c #CBCBCA",
"-.	c #CBCBC9",
";.	c #CBCBCB",
">.	c #CCCDCC",
",.	c #D3D3D2",
"'.	c #D3D2D1",
").	c #D1D0D0",
"!.	c #C5C5C5",
"~.	c #C5C6C6",
"{.	c #C2C3C4",
"].	c #C6C5C4",
"^.	c #BAB8B7",
"/.	c #BDBBBA",
"(.	c #BEBCBB",
"_.	c #BFBEBD",
":.	c #C0BEBD",
"<.	c #BEBDBC",
"[.	c #BDBCBB",
"}.	c #BCBABA",
"|.	c #BBBABA",
"1.	c #BBB9B9",
"2.	c #AFAFB0",
"3.	c #D5D4D4",
"4.	c #D8D7D6",
"5.	c #D8D7D7",
"6.	c #DAD9D9",
"7.	c #BFBFC0",
"8.	c #D7D6D5",
"9.	c #D5D4D2",
"0.	c #D4D3D2",
"a.	c #D9D8D8",
"b.	c #BEBFBF",
"c.	c #D4D3D3",
"d.	c #D2D3D2",
"e.	c #D3D4D3",
"f.	c #C0C0C0",
"g.	c #C0C1C0",
"h.	c #D8D8D6",
"i.	c #C0C1C1",
"j.	c #D9D8D7",
"k.	c #BDBEBC",
"l.	c #BEBFBD",
"m.	c #BEBEBD",
"n.	c #BBBCBB",
"o.	c #C1C2C1",
"p.	c #C0C1C2",
"q.	c #D6D6D3",
"r.	c #D3D3D1",
"s.	c #C6C6C5",
"t.	c #CECECC",
"u.	c #CECDCC",
"v.	c #CDCDCB",
"w.	c #CBCCCA",
"x.	c #CACAC8",
"y.	c #CACAC9",
"z.	c #D4D5D3",
"A.	c #D5D4D3",
"B.	c #D1D0CE",
"C.	c #D0CFCE",
"D.	c #C8C8C7",
"E.	c #C7C7C6",
"F.	c #C6C6C4",
"G.	c #C5C5C4",
"H.	c #C3C4C3",
"I.	c #C3C3C1",
"J.	c #C5C6C4",
"K.	c #DADBD9",
"L.	c #DBDCDA",
"M.	c #D7D8D6",
"N.	c #D5D6D6",
"O.	c #C6C7C6",
"P.	c #D3D4D4",
"Q.	c #CDCECD",
"R.	c #CECFCF",
"S.	c #CDCCCB",
"T.	c #CBCACA",
"U.	c #CBCAC9",
"V.	c #CCCBCA",
"W.	c #C9C9C7",
"X.	c #C6C7C5",
"Y.	c #D3D2D2",
"Z.	c #CCCBCB",
"`.	c #D6D5D3",
" +	c #D6D5D5",
".+	c #BFC0BE",
"++	c #BCBCBB",
"@+	c #C1C1C2",
"#+	c #D5D6D3",
"$+	c #D4D3D1",
"%+	c #C7C8C6",
"&+	c #C4C5C3",
"*+	c #C4C6C5",
"=+	c #C6C8C7",
"                                                                                                  . . . + @ # $ % & & * % = - ; ",
"                                                                                                  > , ' ) ! ~ { ] ^ / ( _ : < ' ",
"                                                                                                  [ } | 1 2 3 4 3 3 3 5 6 7 6 8 ",
"                                                                                                  9 0 [ a b c d d c b b b c e f ",
"                                                                                                  [ g h i j k l l l m m m n o p ",
"                                                                                                  q g r : q s s t t s s s c o u ",
"                                                                                                  v j w _ q x x t t t y t z c A ",
"                                                                                                  m B w ( [ C C D x s D s z z E ",
"                                                                                                  [ m w ( F C x D D D C y z G A ",
"                                                                                                  v m H ' C D t t I x D y g g f ",
"                                                                                                  F m J : D s t K L M t M G g N ",
"                                                                                                  F m H O P Q R S T T T U V G W ",
"                                                                                                  v 9 X Y Z Y Y `  ...Y ` ` t +.",
"                                                                                                  D g @.x I I I I #.I t x x $.( ",
"                                                                                                  [ %.v v x x &.&.$.q F q &.v q ",
"                                                                                                   .*.*.*.=.=.=.-.=.} } } ;., >.",
"                                                                                                   .,.,.'.r i i  . .i ).i i X J ",
"                                                                                                  M ( N !.' ' ' _ ~.: E f {.+.E ",
"                                                                                                  D ].^./.(._._.:._.<.[.}.|.1.2.",
"                                                                                                  3.[ ,.v 4.v v v 5.5.5.m 5.6.7.",
"                                                                                                  D 8...=.@.9.9.0.#.9.#.9.4.a.b.",
"                                                                                                  x &.Z W t c.M K K K d.K m g 7.",
"                                                                                                  x &...f x t I e.M ,.K K m a.f.",
"                                                                                                  C l ` E D x I t I M ,.d.m g g.",
"                                                                                                  &.l J !.D x x x t t M d.h.g i.",
"                                                                                                  &.v  .: x x s t t t t ,.m m g.",
"                                                                                                  $.l ` u e.M M M M ,.d.L m j.i.",
"                                                                                                  &.h.i T k.U P P P l.m.n.! 6.o.",
"                                                                                                  v m H i X i i i J X J  .` s p.",
"                                                                                                  v j @.q.@.@.#.#.r.,.r.r.r.#.s.",
"                                                                                                  [ &.&.x x x $.$.$.&.D x x &.x ",
"                                                                                                  t...u.v.w.x.x.=.-.-.y.y.y., *.",
"                                                                                                  z.A.A.#.r.B.t.; i i C.i i i h ",
"                                                                                                  > =._ D.~ E.F.( E.E._ G.< H.~.",
"                                                                                                  [ v.I.3 G.F.F.F.F.J.G.5 6 6 8 ",
"                                                                                                  9 K.[ L.b c d d c b b b o e f ",
"                                                                                                  [ g h i j M.l l l m h.m n o W ",
"                                                                                                  F j w : N.s x t t y s y c o N ",
"                                                                                                  v B r O.q x x t s t s t z c {.",
"                                                                                                  m B r / [ C D D x s x s z c f ",
"                                                                                                  v m w / q C D D D D N.y z G p ",
"                                                                                                  v m H ' D x t I I D D s g g W ",
"                                                                                                  F m J !.x s I L L M P.M g g +.",
"                                                                                                  F m H O P Q R S T T T U , G +.",
"                                                                                                  [ M.X Y Q.Y `  . ...Y R.Y t i.",
"                                                                                                  D g z.x I I I @.I I s x x &./ ",
"                                                                                                  [ &.v &.x x &.&.$.q F q &.F q ",
"                                                                                                   .*.*.S.=.T.=.U.=., } , =., >.",
"                                                                                                   .,.,.L r i i  .i H r w H i X ",
"                                                                                                  e.*.) V.} } =.y.y.) W.D.E.]./ ",
"                                                                                                  D w.7 5 J.{ X.X.s.: : J.< J.8 ",
"                                                                                                  x v Y.l 8.v v 8.v v v [ [ G b.",
"                                                                                                  x &...Z.`.A.9.#.#.A.#.A.4.> b.",
"                                                                                                  x &.Z W t M M K K K K K m g 7.",
"                                                                                                  x &...u x t e.e.M Y.Y.K m > f.",
"                                                                                                  &.l Y < x x I I I M ,.d.m g g.",
"                                                                                                  &.v J !. +x x x t t M ,.h.g i.",
"                                                                                                  &.l J : D x x t t I I ,.m m g.",
"                                                                                                  $.l ` < I e.e.e.e.e.,.K m j g.",
"                                                                                                  &.h.i .+k.P P P P U m.++! c o.",
"                                                                                                  v m H i X i i X J J J  .` s @+",
"                                                                                                  [ j z.#+@.A.#.$+r.r.r.r.r.#.s.",
"                                                                                                  > v v &.&.$.8.l l v &.&.$.&.&.",
"                                                                                                  ] D.%+O.: &+&+~.: : E < *+=+] "};
