/* XPM */
static char * door_3_xpm[] = {
"64 64 261 2",
"  	c None",
". 	c #D6D4D2",
"+ 	c #D5D2D1",
"@ 	c #D3D1CF",
"# 	c #D0CECB",
"$ 	c #CECBC9",
"% 	c #CFCDCB",
"& 	c #CFCCCB",
"* 	c #CFCCCA",
"= 	c #D0CDCC",
"- 	c #D0CECD",
"; 	c #D1D0CF",
"> 	c #CFCECD",
", 	c #D1CFCD",
"' 	c #D3D2CF",
") 	c #D2D0CE",
"! 	c #D0CDCB",
"~ 	c #CFCDCA",
"{ 	c #D0CECC",
"] 	c #D1CECC",
"^ 	c #D3D0CE",
"/ 	c #D8D8D8"door_test,
"( 	c #CBCCCB",
"_ 	c #C6C7C7",
": 	c #C9C9C8",
"< 	c #C9CAC9",
"[ 	c #C8C9C7",
"} 	c #C7C7C5",
"| 	c #C8C9C8",
"1 	c #C8C8C8",
"2 	c #C7C8C7",
"3 	c #C7C7C7",
"4 	c #C6C6C6",
"5 	c #C5C6C5",
"6 	c #C4C5C4",
"7 	c #D3D4D4",
"8 	c #D2D2D2",
"9 	c #C9C9C9",
"0 	c #CACBCA",
"a 	c #CBCBCA",
"b 	c #CBCCCA",
"c 	c #CACAC9",
"d 	c #D7D7D7",
"e 	c #CCCCCB",
"f 	c #C2C2C0",
"g 	c #C4C4C2",
"h 	c #C5C4C3",
"i 	c #C5C5C3",
"j 	c #C6C5C3",
"k 	c #C4C4C3",
"l 	c #C3C3C2",
"m 	c #C2C2C1",
"n 	c #B7B8B8",
"o 	c #D1D2D2",
"p 	c #D6D6D6",
"q 	c #C6C6C5",
"r 	c #BFBFBD",
"s 	c #C1C1BF",
"t 	c #C3C3C1",
"u 	c #C5C5C4",
"v 	c #C4C5C3",
"w 	c #D7D8D7",
"x 	c #DADBDA",
"y 	c #DBDBDB",
"z 	c #DBDBDA",
"A 	c #DADAD9",
"B 	c #DADAD8",
"C 	c #DCDCDB",
"D 	c #C3C4C4",
"E 	c #D0D0D1",
"F 	c #D8D8D7",
"G 	c #D8D9D8",
"H 	c #D7D7D6",
"I 	c #DADBD9",
"J 	c #DDDDDC",
"K 	c #DFDFDE",
"L 	c #D9D9D8",
"M 	c #D1D1D1",
"N 	c #D0D0CF",
"O 	c #D9D9D7",
"P 	c #D7D8D5",
"Q 	c #D7D7D5",
"R 	c #DBDBD9",
"S 	c #DADADA",
"T 	c #C3C3C4",
"U 	c #D0D1D1",
"V 	c #CFCFCF",
"W 	c #D1D1CF",
"X 	c #D8D9D7",
"Y 	c #DAD9D8",
"Z 	c #D1D1D0",
"` 	c #D4D5D4",
" .	c #D4D4D4",
"..	c #C4C4C4",
"+.	c #D1D1D2",
"@.	c #CECFCF",
"#.	c #D5D5D5",
"$.	c #D5D6D5",
"%.	c #D6D6D5",
"&.	c #D6D7D6",
"*.	c #DDDDDD",
"=.	c #D0D1D0",
"-.	c #D5D5D4",
";.	c #D4D5D5",
">.	c #D9DAD9",
",.	c #C4C4C5",
"'.	c #D1D2D1",
").	c #CECFCE",
"!.	c #C8C9C9",
"~.	c #D6D7D7",
"{.	c #C4C5C5",
"].	c #D5D6D6",
"^.	c #DCDCDC",
"/.	c #D9D9D9",
"(.	c #D6D7D5",
"_.	c #CFCFCE",
":.	c #D0D0D0",
"<.	c #D4D4D3",
"[.	c #D2D2D1",
"}.	c #D3D3D3",
"|.	c #C3C3C3",
"1.	c #CECECE",
"2.	c #BFC0BF",
"3.	c #BFBFBE",
"4.	c #C0C1BF",
"5.	c #C1C1C0",
"6.	c #C0C0BE",
"7.	c #C0C0BF",
"8.	c #BEBFBE",
"9.	c #CCCCCC",
"0.	c #C2C3C3",
"a.	c #C0C1C0",
"b.	c #C1C2C1",
"c.	c #CFD0CF",
"d.	c #CDCDCD",
"e.	c #CECECD",
"f.	c #C1C2C2",
"g.	c #CCCDCC",
"h.	c #CFD0D0",
"i.	c #D5D5D3",
"j.	c #D4D4D2",
"k.	c #D6D6D4",
"l.	c #D3D4D3",
"m.	c #D8D8D6",
"n.	c #CDCDCC",
"o.	c #CBCBC9",
"p.	c #CBCBCB",
"q.	c #CCCCCA",
"r.	c #CCCBCA",
"s.	c #CACAC8",
"t.	c #CBCAC9",
"u.	c #D3D3D2",
"v.	c #D3D2D1",
"w.	c #D1D0D0",
"x.	c #CDCDCB",
"y.	c #D0D0CE",
"z.	c #D0CFCE",
"A.	c #CFCFCD",
"B.	c #D2D2D0",
"C.	c #C5C5C5",
"D.	c #C5C6C6",
"E.	c #C2C3C4",
"F.	c #C3C4C3",
"G.	c #C6C7C6",
"H.	c #C6C5C4",
"I.	c #BAB8B7",
"J.	c #BDBBBA",
"K.	c #BEBCBB",
"L.	c #BFBEBD",
"M.	c #C0BEBD",
"N.	c #BEBDBC",
"O.	c #BDBCBB",
"P.	c #BCBABA",
"Q.	c #BBBABA",
"R.	c #BBB9B9",
"S.	c #AFAFB0",
"T.	c #CACBCB",
"U.	c #D2D1D1",
"V.	c #C3C1C0",
"W.	c #B9B7B6",
"X.	c #BBB9B8",
"Y.	c #BCBBBA",
"Z.	c #BFBDBC",
"`.	c #BFBEBC",
" +	c #D5D4D4",
".+	c #D8D7D6",
"++	c #D8D7D7",
"@+	c #DAD9D9",
"#+	c #BFBFC0",
"$+	c #CBCCCC",
"%+	c #D3D2D2",
"&+	c #D6D5D4",
"*+	c #D7D6D5",
"=+	c #D9D8D7",
"-+	c #D5D4D2",
";+	c #D4D3D2",
">+	c #D9D8D8",
",+	c #BEBFBF",
"'+	c #CBCCCD",
")+	c #D4D3D1",
"!+	c #D5D4D1",
"~+	c #D6D5D3",
"{+	c #DAD9D7",
"]+	c #DBDADA",
"^+	c #D4D3D3",
"/+	c #D2D3D2",
"(+	c #CDCECE",
"_+	c #D5D4D3",
":+	c #C0C0C0",
"<+	c #D4D5D3",
"[+	c #C0C1C1",
"}+	c #C7C7C6",
"|+	c #CCCDCD",
"1+	c #DCDBDA",
"2+	c #BDBEBC",
"3+	c #BEBFBD",
"4+	c #BEBEBD",
"5+	c #BBBCBB",
"6+	c #BDBEBD",
"7+	c #BCBDBC",
"8+	c #BFC0BE",
"9+	c #C0C1C2",
"0+	c #CDCFCF",
"a+	c #D6D6D3",
"b+	c #D3D3D1",
"c+	c #D7D7D4",
"d+	c #CECECC",
"e+	c #CECDCC",
"f+	c #D1D0CE",
"g+	c #D3D2D0",
"h+	c #C8C8C7",
"i+	c #C6C6C4",
"j+	c #C5C6C4",
"k+	c #D0D2D2",
"l+	c #C4C3C2",
"m+	c #DBDCDA",
"n+	c #DEDFDE",
"o+	c #D7D8D6",
"p+	c #D9DAD8",
"q+	c #DCDDDC",
"r+	c #C2C3C1",
"s+	c #CDCECD",
"t+	c #CDCCCB",
"u+	c #CBCACA",
"v+	c #CCCBCB",
"w+	c #C9C9C7",
"x+	c #C6C7C5",
"y+	c #CDCECF",
"z+	c #C5C4C2",
"A+	c #C3C4C2",
"B+	c #D8D7D5",
"C+	c #D6D5D5",
"D+	c #BCBCBB",
"E+	c #BDBDBC",
"F+	c #BFBFBF",
"G+	c #C1C1C2",
"H+	c #D5D6D3",
"I+	c #C7C8C6",
"J+	c #C4C6C5",
"K+	c #C6C8C7",
"L+	c #C6C8C6",
"                                                                    . . . + @ # $ % & & * % = - ; > , ' ) # ! ~ ~ * % { ] ) ) ^ ",
"                                                                    / ( _ : < [ } | 1 2 3 4 5 6 _ 7 8 | 2 9 0 a a ( b a 0 c < | ",
"                                                                    d e f g h i j i i i k l m l n o p q r s t g i i u u v k g g ",
"                                                                    w x d y z A B B A z z z A C D E F G H A A I z z C C J J J K ",
"                                                                    d L M N O P Q Q Q F F F R S T U F H V W F F X O B Y L B J J ",
"                                                                    p L Z 5 p ` `  . .` ` ` A S ..+.F H @.2 #.#.$.$.%.p p &.J *.",
"                                                                    H O =.4 p -.-. . . .;. .>.A ,.'.w p ).!.%.#.$.p p &.~.d J J ",
"                                                                    F X =.3 d $.$.#.-.` #.` >.>.{.o d %.).9 p ].%.p ~.&.~.&.^.J ",
"                                                                    d F =.3 &.$.-.#.#.#.$.;.>./.,.o H (._.< &.p p p p &.&.p C C ",
"                                                                    H F :._ $.#. . .<.-.#.;.L L D o w %.).< H p p %.p p &.H ^.C ",
"                                                                    &.F V 5 #.`  .8 [.}. .}./.L |.o w &.1.!.&.p p p %.p p d ^.^.",
"                                                                    &.F :.2.3.4.5.6.7.7.7.8.9./.0.U d &.).8.a.b.m t l l m 5._.^.",
"                                                                    H w c.1.d.1.1.)._.e.1.).). .f.U H &.c.g.d.1.).V h.N N :.M d ",
"                                                                    #.L i.-.<.<.<.<.j.<. .-.-.k.3 U H L <.<.<.<.l.<.<.-.$.&.H F ",
"                                                                    d (.H H -.-.%.%.k.p &.p %.H p p p &.%.k.%.H Q (.(.(.(.H m.L ",
"                                                                    _.n.n.n.a a a o.a e e e p.( g.e q.r.a c s.t.o.t.o.0 o.c b n.",
"                                                                    _.u.u.v.Z N N _._.N w.N N c.V n.x.y.W N z.A.A.z.y.Z B.B.[.u.",
"                                                                    }.3 |.C._ _ _ 4 D.5 {.D E.f.{.:.:.C.F.C.G._ G._ 3 3 G.D.4 5 ",
"                                                                    #.H.I.J.K.L.L.M.L.N.O.P.Q.R.S.T.U.V.W.X.Y.K.Z.`.Z.Z.K.O.J.K.",
"                                                                     +d u.H .+H H H ++++++F ++@+#+$+%+-.8 k.-.&+k.*+.+.+F =+=+z ",
"                                                                    #.*+e.a i.-+-+;+j.-+j.-+.+>+,+'+v.j.p.q.)+)+)+!+-+-+i.~+{+]+",
"                                                                    -.%.d.0. .^+}.8 8 8 /+8 F L #+(+<._+p...u.8 8 u.}.}.^+<.A z ",
"                                                                    -.%.e.D -. .<.l.}.u.8 8 F >+:+(+<.<+9.C.u./+u.<.<. .<. .R z ",
"                                                                    $.Q ).{.#.-.<. .<.}.u./+F L a.). .-.d.5 <.}.<.<.<. . .-.R z ",
"                                                                    %.Q V C.#.-.-.-. . .}./+m.L [+(+-.-.d.}+ .<.<.<.<.<.<.#.z R ",
"                                                                    %.H _.5 -.-.`  . . . .u.F F a.(+-.-.|+G.-.<.<.<.` -.-.#.R z ",
"                                                                    k.Q )...l.}.}.}.}.u./+[.F =+[+(+%.k.d.4 <.}.u.l.l.<. .` z 1+",
"                                                                    %.m.N 7.2+8.3.3.3.3+4+5+< @+b.@.*+&.V 6+7+4+3.6.8+2.3.4+e C ",
"                                                                    H F :.N c.N N N V c.V _.).` 9+0+d H V 1.1.V c.=.:.=.M [.M p ",
"                                                                    H O i.a+i.i.j.j.b+u.b+b+b+j.q h.F O j.j.;+b+b+b+j.j.i.k.k.c+",
"                                                                    d %.%.-.-.-.k.k.k.%.#.-.-.%.-.p d $.-.-.-.-.i.-.%.%.k.%.*+m.",
"                                                                    d+e.e+x.b s.s.a o.o.c c c ( n.n.n.n.e a a c c c a a o.e q.n.",
"                                                                    <+_+_+j.b+f+d+; N N z.N N N M 1._.[.g+W W W Z W Z [.B.b+v.v.",
"                                                                    / a 4 h+[ }+i+3 }+}+4 u 6 F.D.7 o 1 G.h+: c c c c c : : 1 2 ",
"                                                                    d x.t i u i+i+i+i+j+u k l l n k+p G.6.f l+i i+i+q q u u h i ",
"                                                                    w I d m+z A B B A z z z S C D h.F G H A A I z z C C J J J n+",
"                                                                    d L M N O o+Q Q Q F m.F R S 0.h.d H V W F F X O p+Y L B J J ",
"                                                                    &.O =.5 ].` -. . .;.` ;.A S |.h.F H ).2 #.#.$.$.p p p &.J *.",
"                                                                    H X Z G.p -.-. .`  .`  .>.A E.h.w &.).!.p #.%.p p p &.d J J ",
"                                                                    F X Z 2 d $.#.#.-.` -.` >.A D h.w %.).9 p $.%.p &.&.d &.J J ",
"                                                                    H F =.2 p $.#.#.#.#.].;.>./.T h.H &.V < &.p p p p &.&.p C C ",
"                                                                    H F :._ #.-. .<.<.#.#.` L L 0.h.H (.).< &.p p %.p p &.&.J C ",
"                                                                    &.F V C.-.` <.[.[.}.7 }.L L f.h.w &.1.!.p %.p p p %.p &.q+^.",
"                                                                    &.F :.2.3.4.5.6.7.7.7.8.( /.f.h.d &.).8.a.b.m l l l r+5._.C ",
"                                                                    d o+c.1.s+1.)._._.e.1.@.1. .[+@.H H V d.d.).V V :.:.:.:.M d ",
"                                                                    #.L <+-.<.<.<.i.<.<.` -.-.%.2 E H L <+<+<.<.<.<.<.-.%.H o+F ",
"                                                                    d %.H %.-.-.%.%.k.p &.p %.&.p p p %.%.k.%.(.(.Q (.(.Q H o+O ",
"                                                                    _.n.n.t+a u+a t.a ( e ( a ( g.g.e v+a c s.c o.t.o.o.o.c a n.",
"                                                                    _.u.u.[.Z N N _.N :.Z =.:.N c.g.x.y.N y.A.A.A.A.y.W Z Z [.u.",
"                                                                    l.n.: r.e e a c c : w+h+}+H.2 7 /+: c q.t+n.x.n.e+e+n.n.e+t+",
"                                                                    #.b m k j+} x+x+q 5 5 j+6 j+n y+}.z+3.5.f t g i v g A+l l A+",
"                                                                    -.H %+Q *+H H *+H H H d d /.,+$+u.-.8 &+i.&+k.*+Q B+m.F F ]+",
"                                                                    -.%.e.v+~+_+-+j.j._+j._+.+/ ,+|+%+j.e q.)+)+)+-+-+-+i.&+O ]+",
"                                                                    -.%.d.0. .}.}.8 8 8 8 8 F L #+(+<._+p...u.8 8 u.}.}.}.<.A z ",
"                                                                    -.%.e...-. .l.l.}.%+%+8 F / :+(+<.i.9.C.u./+u.<.<. . . .I z ",
"                                                                    %.Q 1.6 -.-.<.<.<.}.u./+F L a.@. .-.d.q l.}.<.<.<. .<.-.R z ",
"                                                                    %.H V C.C+-.-.-. . .}.u.m.L [+).-.-.d.}+ .<.<. .<.<.<.-.z R ",
"                                                                    %.Q V 5 #.-.-. . .<.<.u.F F a.(+-.-.d.G.-.<.<.<. .-.-.#.z z ",
"                                                                    k.Q ).6 <.l.l.l.l.l.u.8 F O a.(+%.%.d.G. .l.u.<.l. . .-.z m+",
"                                                                    %.m.N 8+2+3.3.3.3.8.4+D+< A b.@.%.&.V 6+E+4+3.6.8+F+3.6+e C ",
"                                                                    H F :.N c.N N c.V V V _.).` G+0+d o+c.1.1._.c.:.:.:.M '.M p ",
"                                                                    d O <+H+i._+j.)+b+b+b+b+b+j.q V w O j.j.)+b+b+b+;+;+<+k.k.c+",
"                                                                    / H H %.%.k.*+Q Q H %.%.k.%.%.d F %.%.%.%.%.-.k.Q H *+*+H =+",
"                                                                    | h+I+G.5 v v D.5 5 {.6 J+K+| | | 9 | 2 _ G.q G.L+G.5 3 3 | "};
