/* XPM */
static char * door_6_xpm[] = {
"64 64 268 2",
"  	c None",
". 	c #D6D4D2",
"+ 	c #D5D2D1",
"@ 	c #D3D1CF",
"# 	c #D0CECB",
"$ 	c #CECBC9",
"% 	c #CFCDCB",
"& 	c #CFCCCB",
"* 	c #CFCCCA",
"= 	c #D0CDCC",
"- 	c #D0CECD",
"; 	c #D1D0CF",
"> 	c #CFCECD",
", 	c #D1CFCD",
"' 	c #D3D2CF",
") 	c #D2D0CE",
"! 	c #D0CDCB",
"~ 	c #CFCDCA",
"{ 	c #D0CECC",
"] 	c #D1CECC",
"^ 	c #D3D0CE",
"/ 	c #D5D3D1",
"( 	c #D8D8D8",
"_ 	c #CBCCCB",
": 	c #C6C7C7",
"< 	c #C9C9C8",
"[ 	c #C9CAC9",
"} 	c #C8C9C7",
"| 	c #C7C7C5",
"1 	c #C8C9C8",
"2 	c #C8C8C8",
"3 	c #C7C8C7",
"4 	c #C7C7C7",
"5 	c #C6C6C6",
"6 	c #C5C6C5",
"7 	c #C4C5C4",
"8 	c #D3D4D4",
"9 	c #D2D2D2",
"0 	c #C9C9C9",
"a 	c #CACBCA",
"b 	c #CBCBCA",
"c 	c #CBCCCA",
"d 	c #CACAC9",
"e 	c #D7D7D7",
"f 	c #CCCCCB",
"g 	c #C2C2C0",
"h 	c #C4C4C2",
"i 	c #C5C4C3",
"j 	c #C5C5C3",
"k 	c #C6C5C3",
"l 	c #C4C4C3",
"m 	c #C3C3C2",
"n 	c #C2C2C1",
"o 	c #B7B8B8",
"p 	c #D1D2D2",
"q 	c #D6D6D6",
"r 	c #C6C6C5",
"s 	c #BFBFBD",
"t 	c #C1C1BF",
"u 	c #C3C3C1",
"v 	c #C5C5C4",
"w 	c #C4C5C3",
"x 	c #BABBBA",
"y 	c #D7D8D7",
"z 	c #DADBDA",
"A 	c #DBDBDB",
"B 	c #DBDBDA",
"C 	c #DADAD9",
"D 	c #DADAD8",
"E 	c #DCDCDB",
"F 	c #C3C4C4",
"G 	c #D0D0D1",
"H 	c #D8D8D7",
"I 	c #D8D9D8",
"J 	c #D7D7D6",
"K 	c #DADBD9",
"L 	c #DDDDDC",
"M 	c #DFDFDE",
"N 	c #C9CACA",
"O 	c #D9D9D8",
"P 	c #D1D1D1",
"Q 	c #D0D0CF",
"R 	c #D9D9D7",
"S 	c #D7D8D5",
"T 	c #D7D7D5",
"U 	c #DBDBD9",
"V 	c #DADADA",
"W 	c #C3C3C4",
"X 	c #D0D1D1",
"Y 	c #CFCFCF",
"Z 	c #D1D1CF",
"` 	c #D8D9D7",
" .	c #DAD9D8",
"..	c #D1D1D0",
"+.	c #D4D5D4",
"@.	c #D4D4D4",
"#.	c #C4C4C4",
"$.	c #D1D1D2",
"%.	c #CECFCF",
"&.	c #D5D5D5",
"*.	c #D5D6D5",
"=.	c #D6D6D5",
"-.	c #D6D7D6",
";.	c #DDDDDD",
">.	c #D0D1D0",
",.	c #D5D5D4",
"'.	c #D4D5D5",
").	c #D9DAD9",
"!.	c #C4C4C5",
"~.	c #D1D2D1",
"{.	c #CECFCE",
"].	c #C8C9C9",
"^.	c #D6D7D7",
"/.	c #C4C5C5",
"(.	c #D5D6D6",
"_.	c #DCDCDC",
":.	c #D9D9D9",
"<.	c #D6D7D5",
"[.	c #CFCFCE",
"}.	c #D0D0D0",
"|.	c #D4D4D3",
"1.	c #D2D2D1",
"2.	c #D3D3D3",
"3.	c #C3C3C3",
"4.	c #CECECE",
"5.	c #BFC0BF",
"6.	c #BFBFBE",
"7.	c #C0C1BF",
"8.	c #C1C1C0",
"9.	c #C0C0BE",
"0.	c #C0C0BF",
"a.	c #BEBFBE",
"b.	c #CCCCCC",
"c.	c #C2C3C3",
"d.	c #C0C1C0",
"e.	c #C1C2C1",
"f.	c #CFD0CF",
"g.	c #CDCDCD",
"h.	c #CECECD",
"i.	c #C1C2C2",
"j.	c #CCCDCC",
"k.	c #CFD0D0",
"l.	c #D5D5D3",
"m.	c #D4D4D2",
"n.	c #D6D6D4",
"o.	c #D3D4D3",
"p.	c #D8D8D6",
"q.	c #CDCDCC",
"r.	c #CBCBC9",
"s.	c #CBCBCB",
"t.	c #CCCCCA",
"u.	c #CCCBCA",
"v.	c #CACAC8",
"w.	c #CBCAC9",
"x.	c #D3D3D2",
"y.	c #D3D2D1",
"z.	c #D1D0D0",
"A.	c #CDCDCB",
"B.	c #D0D0CE",
"C.	c #D0CFCE",
"D.	c #CFCFCD",
"E.	c #D2D2D0",
"F.	c #C5C5C5",
"G.	c #C5C6C6",
"H.	c #C2C3C4",
"I.	c #C3C4C3",
"J.	c #C6C7C6",
"K.	c #C7C8C8",
"L.	c #C6C5C4",
"M.	c #BAB8B7",
"N.	c #BDBBBA",
"O.	c #BEBCBB",
"P.	c #BFBEBD",
"Q.	c #C0BEBD",
"R.	c #BEBDBC",
"S.	c #BDBCBB",
"T.	c #BCBABA",
"U.	c #BBBABA",
"V.	c #BBB9B9",
"W.	c #AFAFB0",
"X.	c #CACBCB",
"Y.	c #D2D1D1",
"Z.	c #C3C1C0",
"`.	c #B9B7B6",
" +	c #BBB9B8",
".+	c #BCBBBA",
"++	c #BFBDBC",
"@+	c #BFBEBC",
"#+	c #B5B4B4",
"$+	c #D5D4D4",
"%+	c #D8D7D6",
"&+	c #D8D7D7",
"*+	c #DAD9D9",
"=+	c #BFBFC0",
"-+	c #CBCCCC",
";+	c #D3D2D2",
">+	c #D6D5D4",
",+	c #D7D6D5",
"'+	c #D9D8D7",
")+	c #D5D4D2",
"!+	c #D4D3D2",
"~+	c #D9D8D8",
"{+	c #BEBFBF",
"]+	c #CBCCCD",
"^+	c #D4D3D1",
"/+	c #D5D4D1",
"(+	c #D6D5D3",
"_+	c #DAD9D7",
":+	c #DBDADA",
"<+	c #D4D3D3",
"[+	c #D2D3D2",
"}+	c #CDCECE",
"|+	c #D5D4D3",
"1+	c #C0C0C0",
"2+	c #D4D5D3",
"3+	c #C8C8C7",
"4+	c #C0C1C1",
"5+	c #C7C7C6",
"6+	c #CCCDCD",
"7+	c #DCDBDA",
"8+	c #BDBEBC",
"9+	c #BEBFBD",
"0+	c #BEBEBD",
"a+	c #BBBCBB",
"b+	c #BDBEBD",
"c+	c #BCBDBC",
"d+	c #BFC0BE",
"e+	c #C0C1C2",
"f+	c #CDCFCF",
"g+	c #D6D6D3",
"h+	c #D3D3D1",
"i+	c #D7D7D4",
"j+	c #CECECC",
"k+	c #CECDCC",
"l+	c #D1D0CE",
"m+	c #D3D2D0",
"n+	c #C6C6C4",
"o+	c #C5C6C4",
"p+	c #D0D2D2",
"q+	c #C4C3C2",
"r+	c #DBDCDA",
"s+	c #DEDFDE",
"t+	c #D7D8D6",
"u+	c #D9DAD8",
"v+	c #DCDDDC",
"w+	c #C2C3C1",
"x+	c #CDCECD",
"y+	c #C7C7C8",
"z+	c #CDCCCB",
"A+	c #CBCACA",
"B+	c #CCCBCB",
"C+	c #C9C9C7",
"D+	c #C6C7C5",
"E+	c #CDCECF",
"F+	c #C5C4C2",
"G+	c #C3C4C2",
"H+	c #BABABA",
"I+	c #D8D7D5",
"J+	c #D6D5D5",
"K+	c #BCBCBB",
"L+	c #BDBDBC",
"M+	c #BFBFBF",
"N+	c #C1C1C2",
"O+	c #D5D6D3",
"P+	c #C7C8C6",
"Q+	c #C4C6C5",
"R+	c #C6C8C7",
"S+	c #C6C8C6",
"                                                                  . . . + @ # $ % & & * % = - ; > , ' ) # ! ~ ~ * % { ] ) ) ^ / ",
"                                                                  ( _ : < [ } | 1 2 3 4 5 6 7 : 8 9 1 3 0 a b b _ c b a d [ 1 a ",
"                                                                  e f g h i j k j j j l m n m o p q r s t u h j j v v w l h h x ",
"                                                                  y z e A B C D D C B B B C E F G H I J C C K B B E E L L L M N ",
"                                                                  e O P Q R S T T T H H H U V W X H J Y Z H H ` R D  .O D L L 0 ",
"                                                                  q O ..6 q +.+.@.@.+.+.+.C V #.$.H J %.3 &.&.*.*.=.q q -.L ;.0 ",
"                                                                  J R >.5 q ,.,.@.@.@.'.@.).C !.~.y q {.].=.&.*.q q -.^.e L L N ",
"                                                                  H ` >.4 e *.*.&.,.+.&.+.).)./.p e =.{.0 q (.=.q ^.-.^.-._.L N ",
"                                                                  e H >.4 -.*.,.&.&.&.*.'.).:.!.p J <.[.[ -.q q q q -.-.q E E 0 ",
"                                                                  J H }.: *.&.@.@.|.,.&.'.O O F p y =.{.[ J q q =.q q -.J _.E 0 ",
"                                                                  -.H Y 6 &.+.@.9 1.2.@.2.:.O 3.p y -.4.].-.q q q =.q q e _._.].",
"                                                                  -.H }.5.6.7.8.9.0.0.0.a.b.:.c.X e -.{.a.d.e.n u m m n 8.[._.2 ",
"                                                                  J y f.4.g.4.4.{.[.h.4.{.{.@.i.X J -.f.j.g.4.{.Y k.Q Q }.P e 4 ",
"                                                                  &.O l.,.|.|.|.|.m.|.@.,.,.n.4 X J O |.|.|.|.o.|.|.,.*.-.J H b ",
"                                                                  e <.J J ,.,.=.=.n.q -.q =.J q q q -.=.n.=.J T <.<.<.<.J p.O H ",
"                                                                  [.q.q.q.b b b r.b f f f s._ j.f t.u.b d v.w.r.w.r.a r.d c q.h.",
"                                                                  [.x.x.y...Q Q [.[.Q z.Q Q f.Y q.A.B.Z Q C.D.D.C.B...E.E.1.x.2.",
"                                                                  2.4 3.F.: : : 5 G.6 /.F H.i./.}.}.F.I.F.J.: J.: 4 4 J.G.5 6 K.",
"                                                                  &.L.M.N.O.P.P.Q.P.R.S.T.U.V.W.X.Y.Z.`. +.+O.++@+++++O.S.N.O.#+",
"                                                                  $+e x.J %+J J J &+&+&+H &+*+=+-+;+,.9 n.,.>+n.,+%+%+H '+'+B 5 ",
"                                                                  &.,+h.b l.)+)+!+m.)+m.)+%+~+{+]+y.m.s.t.^+^+^+/+)+)+l.(+_+:+5 ",
"                                                                  ,.=.g.c.@.<+2.9 9 9 [+9 H O =+}+|.|+s.#.x.9 9 x.2.2.<+|.C B 4 ",
"                                                                  ,.=.h.F ,.@.|.o.2.x.9 9 H ~+1+}+|.2+b.F.x.[+x.|.|.@.|.@.U B 4 ",
"                                                                  *.T {./.&.,.|.@.|.2.x.[+H O d.{.@.,.g.6 |.2.|.|.|.@.@.,.U B 3+",
"                                                                  =.T Y F.&.,.,.,.@.@.2.[+p.O 4+}+,.,.g.5+@.|.|.|.|.|.|.&.B U 3+",
"                                                                  =.J [.6 ,.,.+.@.@.@.@.x.H H d.}+,.,.6+J.,.|.|.|.+.,.,.&.U B 3 ",
"                                                                  n.T {.#.o.2.2.2.2.x.[+1.H '+4+}+=.n.g.5 |.2.x.o.o.|.@.+.B 7+3 ",
"                                                                  =.p.Q 0.8+a.6.6.6.9+0+a+[ *+e.%.,+-.Y b+c+0+6.9.d+5.6.0+f E 3 ",
"                                                                  J H }.Q f.Q Q Q Y f.Y [.{.+.e+f+e J Y 4.4.Y f.>.}.>.P 1.P q K.",
"                                                                  J R l.g+l.l.m.m.h+x.h+h+h+m.r k.H R m.m.!+h+h+h+m.m.l.n.n.i+c ",
"                                                                  e =.=.,.,.,.n.n.n.=.&.,.,.=.,.q e *.,.,.,.,.l.,.=.=.n.=.,+p.J ",
"                                                                  j+h.k+A.c v.v.b r.r.d d d _ q.q.q.q.f b b d d d b b r.f t.q.[.",
"                                                                  2+|+|+m.h+l+j+; Q Q C.Q Q Q P 4.[.1.m+Z Z Z ..Z ..1.E.h+y.y.|.",
"                                                                  ( b 5 3+} 5+n+4 5+5+5 v 7 I.G.8 p 2 J.3+< d d d d d < < 2 3 d ",
"                                                                  e A.u j v n+n+n+n+o+v l m m o p+q J.9.g q+j n+n+r r v v i j x ",
"                                                                  y K e r+B C D D C B B B V E F k.H I J C C K B B E E L L L s+N ",
"                                                                  e O P Q R t+T T T H p.H U V c.k.e J Y Z H H ` R u+ .O D L L 0 ",
"                                                                  -.R >.6 (.+.,.@.@.'.+.'.C V 3.k.H J {.3 &.&.*.*.q q q -.L ;.0 ",
"                                                                  J ` ..J.q ,.,.@.+.@.+.@.).C H.k.y -.{.].q &.=.q q q -.e L L N ",
"                                                                  H ` ..3 e *.&.&.,.+.,.+.).C F k.y =.{.0 q *.=.q -.-.e -.L L N ",
"                                                                  J H >.3 q *.&.&.&.&.(.'.).:.W k.J -.Y [ -.q q q q -.-.q E E 0 ",
"                                                                  J H }.: &.,.@.|.|.&.&.+.O O c.k.J <.{.[ -.q q =.q q -.-.L E 0 ",
"                                                                  -.H Y F.,.+.|.1.1.2.8 2.O O i.k.y -.4.].q =.q q q =.q -.v+_.].",
"                                                                  -.H }.5.6.7.8.9.0.0.0.a._ :.i.k.e -.{.a.d.e.n m m m w+8.[.E 2 ",
"                                                                  e t+f.4.x+4.{.[.[.h.4.%.4.@.4+%.J J Y g.g.{.Y Y }.}.}.}.P e y+",
"                                                                  &.O 2+,.|.|.|.l.|.|.+.,.,.=.3 G J O 2+2+|.|.|.|.|.,.=.J t+H s.",
"                                                                  e =.J =.,.,.=.=.n.q -.q =.-.q q q =.=.n.=.<.<.T <.<.T J t+R H ",
"                                                                  [.q.q.z+b A+b w.b _ f _ b _ j.j.f B+b d v.d r.w.r.r.r.d b q.h.",
"                                                                  [.x.x.1...Q Q [.Q }...>.}.Q f.j.A.B.Q B.D.D.D.D.B.Z ....1.x.x.",
"                                                                  o.q.< u.f f b d d < C+3+5+L.3 8 [+< d t.z+q.A.q.k+k+q.q.k+z+> ",
"                                                                  &.c n l o+| D+D+r 6 6 o+7 o+o E+2.F+6.8.g u h j w h G+m m G+H+",
"                                                                  ,.J ;+T ,+J J ,+J J J e e :.{+-+x.,.9 >+l.>+n.,+T I+p.H H :+5 ",
"                                                                  ,.=.h.B+(+|+)+m.m.|+m.|+%+( {+6+;+m.f t.^+^+^+)+)+)+l.>+R :+5 ",
"                                                                  ,.=.g.c.@.2.2.9 9 9 9 9 H O =+}+|.|+s.#.x.9 9 x.2.2.2.|.C B 4 ",
"                                                                  ,.=.h.#.,.@.o.o.2.;+;+9 H ( 1+}+|.l.b.F.x.[+x.|.|.@.@.@.K B 3 ",
"                                                                  =.T 4.7 ,.,.|.|.|.2.x.[+H O d.%.@.,.g.r o.2.|.|.|.@.|.,.U B 3+",
"                                                                  =.J Y F.J+,.,.,.@.@.2.x.p.O 4+{.,.,.g.5+@.|.|.@.|.|.|.,.B U 3 ",
"                                                                  =.T Y 6 &.,.,.@.@.|.|.x.H H d.}+,.,.g.J.,.|.|.|.@.,.,.&.B B 3 ",
"                                                                  n.T {.7 |.o.o.o.o.o.x.9 H R d.}+=.=.g.J.@.o.x.|.o.@.@.,.B r+3 ",
"                                                                  =.p.Q d+8+6.6.6.6.a.0+K+[ C e.%.=.-.Y b+L+0+6.9.d+M+6.b+f E 3 ",
"                                                                  J H }.Q f.Q Q f.Y Y Y [.{.+.N+f+e t+f.4.4.[.f.}.}.}.P ~.P q K.",
"                                                                  e R 2+O+l.|+m.^+h+h+h+h+h+m.r Y y R m.m.^+h+h+h+!+!+2+n.n.i+b ",
"                                                                  ( J J =.=.n.,+T T J =.=.n.=.=.e H =.=.=.=.=.,.n.T J ,+,+J '+p.",
"                                                                  1 3+P+J.6 w w G.6 6 /.7 Q+R+1 1 1 0 1 3 : J.r J.S+J.6 4 4 1 a "};
