/* XPM */
static char * ea_xpm[] = {
"64 64 3 1",
" 	c #FFFFFF",
".	c #BADDE9",
"+	c #EDF5F6",
"      ..++++++++...       ...++   ++.......++               ..++",
"++++++......+++...        ...++++++........+++              ..++",
"++++++...........          ..++++...........+++             ..++",
"++++...+   .....+           ..+++...    .....++            +...+",
"......+     ....+           ......        ....++          ++....",
" .....+    +...++            ....         .....++        ++...  ",
"  ....+    +...++            ...+          ....+++       ++.++  ",
"   ....+++++...+++           ...+          .....++++    ++..+   ",
"     ...++++...++++          ...+          ......+++++++++.++   ",
"       ........++++         +...++          .....++++++++..+    ",
"        ........+++++       +..+++           .....++++++...+    ",
"         ........++++++    ++..++++            .....+++...++    ",
"          .........++++++++++..++++             .........++     ",
"           ..........++++++++..+++++             ........++     ",
"           ...+  ......++++++...+++++          ++.......+++     ",
"           ...+   ........++....++++++        +++.......+++     ",
"          +..+    ...............++++++++++++++++.......++++    ",
"          ..++    ......  ............++++++++++..+   ..++++    ",
"        ++..++   +.....    ......................+    ...+++++  ",
"++++  ++....++ +++...      .....................+      ..+++++++",
"++++++......+++++...        ...+++ ............++      ...+++.++",
".............++....+        ...+      ........++        ........",
"........   .......++        ...++        ....+++         .......",
".......     ......+          ..++          ..++           ......",
"    ..++    .....++          ..++++         .+++           .....",
"    ..++     ....++          ...+++++    ++...++           .... ",
"     .++      ...+++          ..+++++++++.....++           ...  ",
"     ..+       ..+++          .................+           ..   ",
"     ..++      ..+++          .................++         ...   ",
"      ..+      ...++          .......    ......++        ....   ",
"      ..++   +....+++         ....+       ....+++       +...    ",
"      ..+++++......++         ....+        ...++++    ++....    ",
"       ..++++......++         ...+          ..+++++  ++....     ",
"       ...++..  ....++       ....+           ..++++++++..+      ",
"       .....      ..++      +....+           +...++++...++      ",
"      +....       ...++     +....+           +..........+       ",
"      +....       ...+++   +.....++          ++........+        ",
"      +...         ...++++++......++         ++.......++        ",
"     +...+         ....+++...   ...++      ++++.......++        ",
"     +...+         .........     ..++     +++.........++        ",
"     +..++          .......      ..++++  +++..........++++      ",
"    ++..++           .....+      ...+++++++....    .....++++    ",
"    ++..++           ....+        ...+++++...       .....+++++  ",
"   ++...++            ...+         ...+++...+         ...++++++ ",
"++++....++            ..++         ........+          +...++++++",
"++++....++           +..++         +.......+           +...+++++",
"+++.....+++         ++..+++        +......++            +...++++",
"+........+++        +....++        +......+             +.....++",
"...    ...++++    +++.....++      ++......++             +......",
"         ...++++++++.......++++  +++......++             +......",
"          .....+++....    ..++++++++......+++            ++....+",
"          ..........       ...+++++..+  ..++++          +++...+ ",
"           .......         ..........+   ..++++++++++++++++..++ ",
"          +......+         ..........+    ..++++++++++++.....++ ",
"         ++......+         ... .....++    ......++++++.......++ ",
"+       ++.......++        ..    ...++     ..................+++",
"+++    ++..    ..+++      +..     ...++   +.....          ...+++",
"++++++++..+     ..+++     +.       ...+++++...+             ..++",
"+++++++..+      +.++++   +..+      ....+++..++               ...",
".........+     ++..++++++...+       ........++               ...",
"........+      ++...+++....++       ......+++                ...",
"+  ....+       +...........++       ......++                 ...",
"     ..+       +............++       .....++                 ..+",
"      .+++     +.....   ....++     ++.....++                 .++"};
